NotoSerifDevanagari.glyphspackage
{
glyphname = divide;
layers = (
{
layerId = "3E60C6C7-DFFD-4AAE-9DD7-DF994DEB26A2";
paths = (
{
closed = 1;
nodes = (
"509 318 LINE",
"509 397 LINE",
"60 397 LINE",
"60 318 LINE"
);
},
{
closed = 1;
nodes = (
"318 93 OFFCURVE",
"344 110 OFFCURVE",
"344 158 CURVE SMOOTH",
"344 207 OFFCURVE",
"318 223 OFFCURVE",
"285 223 CURVE SMOOTH",
"250 223 OFFCURVE",
"225 207 OFFCURVE",
"225 158 CURVE SMOOTH",
"225 110 OFFCURVE",
"250 93 OFFCURVE",
"285 93 CURVE SMOOTH"
);
},
{
closed = 1;
nodes = (
"318 492 OFFCURVE",
"344 509 OFFCURVE",
"344 557 CURVE SMOOTH",
"344 606 OFFCURVE",
"318 622 OFFCURVE",
"285 622 CURVE SMOOTH",
"250 622 OFFCURVE",
"225 606 OFFCURVE",
"225 557 CURVE SMOOTH",
"225 509 OFFCURVE",
"250 492 OFFCURVE",
"285 492 CURVE SMOOTH"
);
}
);
width = 569;
},
{
layerId = "E22305A4-B0AF-4429-B69B-D5D74FEEE350";
paths = (
{
closed = 1;
nodes = (
"494 328 LINE",
"494 387 LINE",
"65 387 LINE",
"65 328 LINE"
);
},
{
closed = 1;
nodes = (
"308 113 OFFCURVE",
"331 127 OFFCURVE",
"331 168 CURVE SMOOTH",
"331 210 OFFCURVE",
"308 223 OFFCURVE",
"280 223 CURVE SMOOTH",
"251 223 OFFCURVE",
"229 210 OFFCURVE",
"229 168 CURVE SMOOTH",
"229 127 OFFCURVE",
"251 113 OFFCURVE",
"280 113 CURVE SMOOTH"
);
},
{
closed = 1;
nodes = (
"308 492 OFFCURVE",
"331 506 OFFCURVE",
"331 547 CURVE SMOOTH",
"331 589 OFFCURVE",
"308 602 OFFCURVE",
"280 602 CURVE SMOOTH",
"251 602 OFFCURVE",
"229 589 OFFCURVE",
"229 547 CURVE SMOOTH",
"229 506 OFFCURVE",
"251 492 OFFCURVE",
"280 492 CURVE SMOOTH"
);
}
);
width = 559;
},
{
layerId = "26889610-2B6B-400B-B1BB-1A42565FFDAF";
paths = (
{
closed = 1;
nodes = (
"494 322 LINE",
"494 393 LINE",
"65 393 LINE",
"65 322 LINE"
);
},
{
closed = 1;
nodes = (
"311 107 OFFCURVE",
"336 123 OFFCURVE",
"336 168 CURVE SMOOTH",
"336 214 OFFCURVE",
"311 229 OFFCURVE",
"280 229 CURVE SMOOTH",
"248 229 OFFCURVE",
"224 214 OFFCURVE",
"224 168 CURVE SMOOTH",
"224 123 OFFCURVE",
"248 107 OFFCURVE",
"280 107 CURVE SMOOTH"
);
},
{
closed = 1;
nodes = (
"311 486 OFFCURVE",
"336 502 OFFCURVE",
"336 547 CURVE SMOOTH",
"336 593 OFFCURVE",
"311 608 OFFCURVE",
"280 608 CURVE SMOOTH",
"248 608 OFFCURVE",
"224 593 OFFCURVE",
"224 547 CURVE SMOOTH",
"224 502 OFFCURVE",
"248 486 OFFCURVE",
"280 486 CURVE SMOOTH"
);
}
);
width = 559;
},
{
layerId = "E10056C4-06A7-4834-9783-123B62B78F3D";
paths = (
{
closed = 1;
nodes = (
"391 321 LINE",
"391 394 LINE",
"34 394 LINE",
"34 321 LINE"
);
},
{
closed = 1;
nodes = (
"241 106 OFFCURVE",
"264 122 OFFCURVE",
"264 168 CURVE SMOOTH",
"264 215 OFFCURVE",
"241 230 OFFCURVE",
"213 230 CURVE SMOOTH",
"182 230 OFFCURVE",
"161 215 OFFCURVE",
"161 168 CURVE SMOOTH",
"161 122 OFFCURVE",
"182 106 OFFCURVE",
"213 106 CURVE SMOOTH"
);
},
{
closed = 1;
nodes = (
"241 485 OFFCURVE",
"264 501 OFFCURVE",
"264 547 CURVE SMOOTH",
"264 594 OFFCURVE",
"241 609 OFFCURVE",
"213 609 CURVE SMOOTH",
"182 609 OFFCURVE",
"161 594 OFFCURVE",
"161 547 CURVE SMOOTH",
"161 501 OFFCURVE",
"182 485 OFFCURVE",
"213 485 CURVE SMOOTH"
);
}
);
width = 425;
},
{
layerId = "B188D42B-E0C1-4C36-A461-FECF08FB9142";
paths = (
{
closed = 1;
nodes = (
"375 344 LINE",
"375 372 LINE",
"50 372 LINE",
"50 344 LINE"
);
},
{
closed = 1;
nodes = (
"230 132 OFFCURVE",
"242 140 OFFCURVE",
"242 168 CURVE SMOOTH",
"242 198 OFFCURVE",
"230 206 OFFCURVE",
"213 206 CURVE SMOOTH",
"195 206 OFFCURVE",
"185 198 OFFCURVE",
"185 168 CURVE SMOOTH",
"185 140 OFFCURVE",
"195 132 OFFCURVE",
"213 132 CURVE SMOOTH"
);
},
{
closed = 1;
nodes = (
"230 513 OFFCURVE",
"242 521 OFFCURVE",
"242 549 CURVE SMOOTH",
"242 579 OFFCURVE",
"230 587 OFFCURVE",
"213 587 CURVE SMOOTH",
"195 587 OFFCURVE",
"185 579 OFFCURVE",
"185 549 CURVE SMOOTH",
"185 521 OFFCURVE",
"195 513 OFFCURVE",
"213 513 CURVE SMOOTH"
);
}
);
width = 425;
},
{
layerId = "92BDF110-6149-41B0-AB08-5310EECFA1B7";
paths = (
{
closed = 1;
nodes = (
"494 343 LINE",
"494 371 LINE",
"65 371 LINE",
"65 343 LINE"
);
},
{
closed = 1;
nodes = (
"302 144 OFFCURVE",
"321 155 OFFCURVE",
"321 186 CURVE SMOOTH",
"321 219 OFFCURVE",
"302 229 OFFCURVE",
"280 229 CURVE SMOOTH",
"257 229 OFFCURVE",
"239 219 OFFCURVE",
"239 186 CURVE SMOOTH",
"239 155 OFFCURVE",
"257 144 OFFCURVE",
"280 144 CURVE SMOOTH"
);
},
{
closed = 1;
nodes = (
"302 486 OFFCURVE",
"321 497 OFFCURVE",
"321 529 CURVE SMOOTH",
"321 561 OFFCURVE",
"302 571 OFFCURVE",
"280 571 CURVE SMOOTH",
"257 571 OFFCURVE",
"239 561 OFFCURVE",
"239 529 CURVE SMOOTH",
"239 497 OFFCURVE",
"257 486 OFFCURVE",
"280 486 CURVE SMOOTH"
);
}
);
width = 559;
},
{
layerId = "1C76EA3D-1F01-478B-AF6D-23469B2400A3";
paths = (
{
closed = 1;
nodes = (
"382 329 LINE",
"382 386 LINE",
"43 386 LINE",
"43 329 LINE"
);
},
{
closed = 1;
nodes = (
"237 114 OFFCURVE",
"256 128 OFFCURVE",
"256 168 CURVE SMOOTH",
"256 209 OFFCURVE",
"237 222 OFFCURVE",
"213 222 CURVE SMOOTH",
"188 222 OFFCURVE",
"169 209 OFFCURVE",
"169 168 CURVE SMOOTH",
"169 128 OFFCURVE",
"188 114 OFFCURVE",
"213 114 CURVE SMOOTH"
);
},
{
closed = 1;
nodes = (
"237 493 OFFCURVE",
"256 507 OFFCURVE",
"256 547 CURVE SMOOTH",
"256 588 OFFCURVE",
"237 601 OFFCURVE",
"213 601 CURVE SMOOTH",
"188 601 OFFCURVE",
"169 588 OFFCURVE",
"169 547 CURVE SMOOTH",
"169 507 OFFCURVE",
"188 493 OFFCURVE",
"213 493 CURVE SMOOTH"
);
}
);
width = 425;
},
{
layerId = "48B0D659-D2E4-4014-AFB5-7353283B7180";
paths = (
{
closed = 1;
nodes = (
"387 324 LINE",
"387 391 LINE",
"38 391 LINE",
"38 324 LINE"
);
},
{
closed = 1;
nodes = (
"239 109 OFFCURVE",
"261 125 OFFCURVE",
"261 168 CURVE SMOOTH",
"261 212 OFFCURVE",
"239 227 OFFCURVE",
"213 227 CURVE SMOOTH",
"185 227 OFFCURVE",
"164 212 OFFCURVE",
"164 168 CURVE SMOOTH",
"164 125 OFFCURVE",
"185 109 OFFCURVE",
"213 109 CURVE SMOOTH"
);
},
{
closed = 1;
nodes = (
"239 488 OFFCURVE",
"261 504 OFFCURVE",
"261 547 CURVE SMOOTH",
"261 591 OFFCURVE",
"239 606 OFFCURVE",
"213 606 CURVE SMOOTH",
"185 606 OFFCURVE",
"164 591 OFFCURVE",
"164 547 CURVE SMOOTH",
"164 504 OFFCURVE",
"185 488 OFFCURVE",
"213 488 CURVE SMOOTH"
);
}
);
width = 425;
}
);
unicode = 00F7;
script = "";
category = Symbol;
subCategory = Math;
}
{
glyphname = multiply;
layers = (
{
layerId = "3E60C6C7-DFFD-4AAE-9DD7-DF994DEB26A2";
paths = (
{
closed = 1;
nodes = (
"284 302 LINE",
"428 157 LINE",
"484 213 LINE",
"340 358 LINE",
"484 503 LINE",
"427 560 LINE",
"284 416 LINE",
"141 559 LINE",
"83 503 LINE",
"226 359 LINE",
"83 214 LINE",
"141 157 LINE"
);
}
);
width = 569;
},
{
layerId = "E22305A4-B0AF-4429-B69B-D5D74FEEE350";
paths = (
{
closed = 1;
nodes = (
"279 316 LINE",
"445 150 LINE",
"487 192 LINE",
"321 358 LINE",
"487 524 LINE",
"445 567 LINE",
"279 400 LINE",
"113 566 LINE",
"71 524 LINE",
"237 359 LINE",
"71 193 LINE",
"113 150 LINE"
);
}
);
width = 559;
},
{
layerId = "26889610-2B6B-400B-B1BB-1A42565FFDAF";
paths = (
{
closed = 1;
nodes = (
"279 308 LINE",
"427 160 LINE",
"477 210 LINE",
"329 358 LINE",
"477 506 LINE",
"426 557 LINE",
"279 409 LINE",
"132 556 LINE",
"81 506 LINE",
"228 359 LINE",
"81 211 LINE",
"132 160 LINE"
);
}
);
width = 559;
},
{
layerId = "E10056C4-06A7-4834-9783-123B62B78F3D";
paths = (
{
closed = 1;
nodes = (
"211 304 LINE",
"329 166 LINE",
"383 213 LINE",
"258 360 LINE",
"383 506 LINE",
"328 552 LINE",
"211 415 LINE",
"92 555 LINE",
"37 509 LINE",
"164 360 LINE",
"37 210 LINE",
"91 163 LINE"
);
}
);
width = 425;
},
{
layerId = "B188D42B-E0C1-4C36-A461-FECF08FB9142";
paths = (
{
closed = 1;
nodes = (
"219 340 LINE",
"361 150 LINE",
"384 168 LINE",
"237 363 LINE",
"384 560 LINE",
"362 577 LINE",
"219 387 LINE",
"76 577 LINE",
"54 560 LINE",
"201 363 LINE",
"54 168 LINE",
"77 150 LINE"
);
}
);
width = 425;
},
{
layerId = "92BDF110-6149-41B0-AB08-5310EECFA1B7";
paths = (
{
closed = 1;
nodes = (
"279 337 LINE",
"474 143 LINE",
"494 162 LINE",
"299 357 LINE",
"494 553 LINE",
"475 573 LINE",
"279 377 LINE",
"84 572 LINE",
"65 552 LINE",
"260 357 LINE",
"66 163 LINE",
"84 143 LINE"
);
}
);
width = 559;
},
{
layerId = "1C76EA3D-1F01-478B-AF6D-23469B2400A3";
paths = (
{
closed = 1;
nodes = (
"215 314 LINE",
"343 151 LINE",
"386 186 LINE",
"251 358 LINE",
"386 529 LINE",
"343 564 LINE",
"215 403 LINE",
"88 565 LINE",
"44 530 LINE",
"180 358 LINE",
"44 185 LINE",
"87 151 LINE"
);
}
);
width = 425;
},
{
layerId = "48B0D659-D2E4-4014-AFB5-7353283B7180";
paths = (
{
closed = 1;
nodes = (
"213 308 LINE",
"335 160 LINE",
"384 201 LINE",
"255 359 LINE",
"384 516 LINE",
"334 557 LINE",
"213 410 LINE",
"90 559 LINE",
"40 518 LINE",
"171 359 LINE",
"40 199 LINE",
"89 158 LINE"
);
}
);
width = 425;
}
);
unicode = 00D7;
script = "";
category = Symbol;
subCategory = Math;
}
{
glyphname = "anusvaraAntargomukha-vedic";
production = uni1CE9;
layers = (
{
anchors = (
{
name = bottom_right;
position = "{404, -6}";
},
{
name = candra;
position = "{441, 623}";
},
{
name = top;
position = "{441, 623}";
}
);
layerId = "E22305A4-B0AF-4429-B69B-D5D74FEEE350";
paths = (
{
closed = 1;
nodes = (
"624 -5 OFFCURVE",
"760 128 OFFCURVE",
"760 332 CURVE SMOOTH",
"760 505 OFFCURVE",
"689 627 OFFCURVE",
"566 627 CURVE SMOOTH",
"495 627 OFFCURVE",
"447 580 OFFCURVE",
"447 517 CURVE SMOOTH",
"447 426 OFFCURVE",
"549 357 OFFCURVE",
"656 356 CURVE",
"659 396 LINE",
"581 401 OFFCURVE",
"522 435 OFFCURVE",
"522 490 CURVE SMOOTH",
"522 533 OFFCURVE",
"557 561 OFFCURVE",
"597 561 CURVE SMOOTH",
"658 561 OFFCURVE",
"699 515 OFFCURVE",
"699 376 CURVE SMOOTH",
"699 218 OFFCURVE",
"570 60 OFFCURVE",
"381 60 CURVE SMOOTH",
"216 60 OFFCURVE",
"128 149 OFFCURVE",
"128 319 CURVE SMOOTH",
"128 448 OFFCURVE",
"187 573 OFFCURVE",
"280 573 CURVE SMOOTH",
"313 573 OFFCURVE",
"331 557 OFFCURVE",
"331 528 CURVE SMOOTH",
"331 475 OFFCURVE",
"267 434 OFFCURVE",
"187 428 CURVE",
"213 346 LINE",
"319 362 OFFCURVE",
"392 410 OFFCURVE",
"392 481 CURVE SMOOTH",
"392 563 OFFCURVE",
"337 627 OFFCURVE",
"255 627 CURVE SMOOTH",
"124 627 OFFCURVE",
"49 505 OFFCURVE",
"49 365 CURVE SMOOTH",
"49 156 OFFCURVE",
"208 -5 OFFCURVE",
"415 -5 CURVE SMOOTH"
);
}
);
width = 809;
},
{
anchors = (
{
name = bottom_right;
position = "{380, -6}";
},
{
name = candra;
position = "{407, 622}";
},
{
name = top;
position = "{407, 622}";
}
);
layerId = "92BDF110-6149-41B0-AB08-5310EECFA1B7";
paths = (
{
closed = 1;
nodes = (
"585 -5 OFFCURVE",
"717 153 OFFCURVE",
"717 362 CURVE SMOOTH",
"717 523 OFFCURVE",
"651 627 OFFCURVE",
"548 627 CURVE SMOOTH",
"485 627 OFFCURVE",
"438 583 OFFCURVE",
"438 522 CURVE SMOOTH",
"438 433 OFFCURVE",
"518 374 OFFCURVE",
"628 368 CURVE",
"630 390 LINE",
"535 396 OFFCURVE",
"465 443 OFFCURVE",
"465 517 CURVE SMOOTH",
"465 567 OFFCURVE",
"500 603 OFFCURVE",
"554 603 CURVE SMOOTH",
"641 603 OFFCURVE",
"690 516 OFFCURVE",
"690 368 CURVE SMOOTH",
"690 168 OFFCURVE",
"571 22 OFFCURVE",
"375 22 CURVE SMOOTH",
"182 22 OFFCURVE",
"71 158 OFFCURVE",
"71 338 CURVE SMOOTH",
"71 493 OFFCURVE",
"156 604 OFFCURVE",
"253 604 CURVE SMOOTH",
"304 604 OFFCURVE",
"335 572 OFFCURVE",
"335 518 CURVE SMOOTH",
"335 446 OFFCURVE",
"271 400 OFFCURVE",
"166 388 CURVE",
"175 360 LINE",
"284 373 OFFCURVE",
"362 427 OFFCURVE",
"362 513 CURVE SMOOTH",
"362 578 OFFCURVE",
"318 628 OFFCURVE",
"247 628 CURVE SMOOTH",
"141 628 OFFCURVE",
"44 511 OFFCURVE",
"44 343 CURVE SMOOTH",
"44 146 OFFCURVE",
"171 -5 OFFCURVE",
"381 -5 CURVE SMOOTH"
);
}
);
width = 761;
},
{
anchors = (
{
name = bottom_right;
position = "{428, -6}";
},
{
name = candra;
position = "{495, 626}";
},
{
name = top;
position = "{495, 626}";
}
);
layerId = "26889610-2B6B-400B-B1BB-1A42565FFDAF";
paths = (
{
closed = 1;
nodes = (
"663 -12 OFFCURVE",
"805 128 OFFCURVE",
"805 328 CURVE SMOOTH",
"805 477 OFFCURVE",
"730 633 OFFCURVE",
"587 633 CURVE SMOOTH",
"511 633 OFFCURVE",
"458 582 OFFCURVE",
"458 511 CURVE SMOOTH",
"458 412 OFFCURVE",
"549 347 OFFCURVE",
"676 337 CURVE",
"681 405 LINE",
"610 412 OFFCURVE",
"563 441 OFFCURVE",
"563 485 CURVE SMOOTH",
"563 516 OFFCURVE",
"587 538 OFFCURVE",
"623 538 CURVE SMOOTH",
"681 538 OFFCURVE",
"712 485 OFFCURVE",
"712 404 CURVE SMOOTH",
"712 218 OFFCURVE",
"565 83 OFFCURVE",
"384 83 CURVE SMOOTH",
"230 83 OFFCURVE",
"149 177 OFFCURVE",
"149 312 CURVE SMOOTH",
"149 464 OFFCURVE",
"214 559 OFFCURVE",
"291 559 CURVE SMOOTH",
"320 559 OFFCURVE",
"337 543 OFFCURVE",
"337 517 CURVE SMOOTH",
"337 470 OFFCURVE",
"280 440 OFFCURVE",
"185 432 CURVE",
"219 325 LINE",
"346 341 OFFCURVE",
"421 391 OFFCURVE",
"421 479 CURVE SMOOTH",
"421 561 OFFCURVE",
"357 633 OFFCURVE",
"265 633 CURVE SMOOTH",
"153 633 OFFCURVE",
"52 533 OFFCURVE",
"52 372 CURVE SMOOTH",
"52 177 OFFCURVE",
"227 -12 OFFCURVE",
"448 -12 CURVE SMOOTH"
);
}
);
width = 857;
},
{
anchors = (
{
name = bottom_right;
position = "{448, -6}";
},
{
name = candra;
position = "{530, 627}";
},
{
name = top;
position = "{530, 627}";
}
);
layerId = "3E60C6C7-DFFD-4AAE-9DD7-DF994DEB26A2";
paths = (
{
closed = 1;
nodes = (
"695 -15 OFFCURVE",
"841 122 OFFCURVE",
"841 318 CURVE SMOOTH",
"841 460 OFFCURVE",
"763 635 OFFCURVE",
"605 635 CURVE SMOOTH",
"523 635 OFFCURVE",
"468 583 OFFCURVE",
"468 506 CURVE SMOOTH",
"468 403 OFFCURVE",
"561 338 OFFCURVE",
"697 325 CURVE",
"703 411 LINE",
"638 418 OFFCURVE",
"599 442 OFFCURVE",
"599 476 CURVE SMOOTH",
"599 500 OFFCURVE",
"618 517 OFFCURVE",
"649 517 CURVE SMOOTH",
"700 517 OFFCURVE",
"725 472 OFFCURVE",
"725 419 CURVE SMOOTH",
"725 232 OFFCURVE",
"566 104 OFFCURVE",
"389 104 CURVE SMOOTH",
"246 104 OFFCURVE",
"175 187 OFFCURVE",
"175 303 CURVE SMOOTH",
"175 459 OFFCURVE",
"235 545 OFFCURVE",
"306 545 CURVE SMOOTH",
"327 545 OFFCURVE",
"341 533 OFFCURVE",
"341 514 CURVE SMOOTH",
"341 475 OFFCURVE",
"287 453 OFFCURVE",
"190 445 CURVE",
"234 311 LINE",
"369 328 OFFCURVE",
"444 378 OFFCURVE",
"444 469 CURVE SMOOTH",
"444 556 OFFCURVE",
"373 635 OFFCURVE",
"273 635 CURVE SMOOTH",
"163 635 OFFCURVE",
"56 544 OFFCURVE",
"56 381 CURVE SMOOTH",
"56 189 OFFCURVE",
"247 -15 OFFCURVE",
"474 -15 CURVE SMOOTH"
);
}
);
width = 896;
},
{
anchors = (
{
name = bottom_right;
position = "{289, -6}";
},
{
name = candra;
position = "{303, 622}";
},
{
name = top;
position = "{303, 622}";
}
);
layerId = "B188D42B-E0C1-4C36-A461-FECF08FB9142";
paths = (
{
closed = 1;
nodes = (
"445 -5 OFFCURVE",
"545 153 OFFCURVE",
"545 362 CURVE SMOOTH",
"545 523 OFFCURVE",
"500 627 OFFCURVE",
"417 627 CURVE SMOOTH",
"367 627 OFFCURVE",
"330 587 OFFCURVE",
"330 530 CURVE SMOOTH",
"330 449 OFFCURVE",
"389 393 OFFCURVE",
"470 368 CURVE",
"477 390 LINE",
"407 411 OFFCURVE",
"357 460 OFFCURVE",
"357 525 CURVE SMOOTH",
"357 570 OFFCURVE",
"384 603 OFFCURVE",
"423 603 CURVE SMOOTH",
"487 603 OFFCURVE",
"518 517 OFFCURVE",
"518 368 CURVE SMOOTH",
"518 170 OFFCURVE",
"428 22 OFFCURVE",
"285 22 CURVE SMOOTH",
"142 22 OFFCURVE",
"61 157 OFFCURVE",
"61 340 CURVE SMOOTH",
"61 491 OFFCURVE",
"116 604 OFFCURVE",
"194 604 CURVE SMOOTH",
"230 604 OFFCURVE",
"249 577 OFFCURVE",
"249 533 CURVE SMOOTH",
"249 463 OFFCURVE",
"197 413 OFFCURVE",
"128 389 CURVE",
"138 359 LINE",
"218 390 OFFCURVE",
"276 448 OFFCURVE",
"276 528 CURVE SMOOTH",
"276 583 OFFCURVE",
"244 628 OFFCURVE",
"188 628 CURVE SMOOTH",
"98 628 OFFCURVE",
"34 510 OFFCURVE",
"34 345 CURVE SMOOTH",
"34 147 OFFCURVE",
"134 -5 OFFCURVE",
"291 -5 CURVE SMOOTH"
);
}
);
width = 579;
},
{
anchors = (
{
name = bottom_right;
position = "{327, -6}";
},
{
name = candra;
position = "{362, 623}";
},
{
name = top;
position = "{362, 623}";
}
);
layerId = "1C76EA3D-1F01-478B-AF6D-23469B2400A3";
paths = (
{
closed = 1;
nodes = (
"504 -5 OFFCURVE",
"614 144 OFFCURVE",
"614 354 CURVE SMOOTH",
"614 503 OFFCURVE",
"563 627 OFFCURVE",
"458 627 CURVE SMOOTH",
"403 627 OFFCURVE",
"357 583 OFFCURVE",
"357 526 CURVE SMOOTH",
"357 439 OFFCURVE",
"433 373 OFFCURVE",
"518 357 CURVE",
"528 395 LINE",
"467 412 OFFCURVE",
"423 449 OFFCURVE",
"423 501 CURVE SMOOTH",
"423 539 OFFCURVE",
"448 564 OFFCURVE",
"479 564 CURVE SMOOTH",
"527 564 OFFCURVE",
"558 516 OFFCURVE",
"558 395 CURVE SMOOTH",
"558 229 OFFCURVE",
"452 56 OFFCURVE",
"303 56 CURVE SMOOTH",
"174 56 OFFCURVE",
"105 150 OFFCURVE",
"105 321 CURVE SMOOTH",
"105 452 OFFCURVE",
"158 576 OFFCURVE",
"225 576 CURVE SMOOTH",
"250 576 OFFCURVE",
"264 559 OFFCURVE",
"264 531 CURVE SMOOTH",
"264 479 OFFCURVE",
"221 447 OFFCURVE",
"147 424 CURVE",
"172 347 LINE",
"259 372 OFFCURVE",
"317 420 OFFCURVE",
"317 493 CURVE SMOOTH",
"317 561 OFFCURVE",
"271 627 OFFCURVE",
"201 627 CURVE SMOOTH",
"100 627 OFFCURVE",
"40 508 OFFCURVE",
"40 368 CURVE SMOOTH",
"40 147 OFFCURVE",
"159 -5 OFFCURVE",
"337 -5 CURVE SMOOTH"
);
}
);
width = 653;
},
{
anchors = (
{
name = bottom_right;
position = "{349, -6}";
},
{
name = candra;
position = "{404, 625}";
},
{
name = top;
position = "{404, 625}";
}
);
layerId = "48B0D659-D2E4-4014-AFB5-7353283B7180";
paths = (
{
closed = 1;
nodes = (
"540 -9 OFFCURVE",
"655 131 OFFCURVE",
"655 334 CURVE SMOOTH",
"655 485 OFFCURVE",
"597 631 OFFCURVE",
"479 631 CURVE SMOOTH",
"417 631 OFFCURVE",
"370 583 OFFCURVE",
"370 521 CURVE SMOOTH",
"370 431 OFFCURVE",
"446 365 OFFCURVE",
"542 344 CURVE",
"553 402 LINE",
"499 418 OFFCURVE",
"463 449 OFFCURVE",
"463 490 CURVE SMOOTH",
"463 522 OFFCURVE",
"483 543 OFFCURVE",
"509 543 CURVE SMOOTH",
"550 543 OFFCURVE",
"574 497 OFFCURVE",
"574 401 CURVE SMOOTH",
"574 228 OFFCURVE",
"456 77 OFFCURVE",
"315 77 CURVE SMOOTH",
"193 77 OFFCURVE",
"131 166 OFFCURVE",
"131 313 CURVE SMOOTH",
"131 453 OFFCURVE",
"178 561 OFFCURVE",
"238 561 CURVE SMOOTH",
"259 561 OFFCURVE",
"270 549 OFFCURVE",
"270 528 CURVE SMOOTH",
"270 484 OFFCURVE",
"225 450 OFFCURVE",
"153 434 CURVE",
"186 330 LINE",
"285 353 OFFCURVE",
"344 406 OFFCURVE",
"344 484 CURVE SMOOTH",
"344 561 OFFCURVE",
"293 631 OFFCURVE",
"214 631 CURVE SMOOTH",
"107 631 OFFCURVE",
"43 523 OFFCURVE",
"43 373 CURVE SMOOTH",
"43 162 OFFCURVE",
"181 -9 OFFCURVE",
"366 -9 CURVE SMOOTH"
);
}
);
width = 698;
},
{
anchors = (
{
name = bottom_right;
position = "{357, -6}";
},
{
name = candra;
position = "{425, 627}";
},
{
name = top;
position = "{425, 627}";
}
);
layerId = "E10056C4-06A7-4834-9783-123B62B78F3D";
paths = (
{
closed = 1;
nodes = (
"554 -12 OFFCURVE",
"669 124 OFFCURVE",
"669 322 CURVE SMOOTH",
"669 471 OFFCURVE",
"608 633 OFFCURVE",
"483 633 CURVE SMOOTH",
"418 633 OFFCURVE",
"369 583 OFFCURVE",
"369 518 CURVE SMOOTH",
"369 426 OFFCURVE",
"443 361 OFFCURVE",
"545 335 CURVE",
"557 407 LINE",
"510 423 OFFCURVE",
"482 451 OFFCURVE",
"482 483 CURVE SMOOTH",
"482 510 OFFCURVE",
"496 528 OFFCURVE",
"518 528 CURVE SMOOTH",
"552 528 OFFCURVE",
"570 483 OFFCURVE",
"570 408 CURVE SMOOTH",
"570 228 OFFCURVE",
"446 93 OFFCURVE",
"314 93 CURVE SMOOTH",
"203 93 OFFCURVE",
"148 178 OFFCURVE",
"148 307 CURVE SMOOTH",
"148 456 OFFCURVE",
"190 551 OFFCURVE",
"242 551 CURVE SMOOTH",
"258 551 OFFCURVE",
"267 541 OFFCURVE",
"267 525 CURVE SMOOTH",
"267 487 OFFCURVE",
"224 455 OFFCURVE",
"152 440 CURVE",
"191 318 LINE",
"297 340 OFFCURVE",
"355 396 OFFCURVE",
"355 480 CURVE SMOOTH",
"355 561 OFFCURVE",
"301 633 OFFCURVE",
"217 633 CURVE SMOOTH",
"112 633 OFFCURVE",
"45 535 OFFCURVE",
"45 377 CURVE SMOOTH",
"45 172 OFFCURVE",
"192 -12 OFFCURVE",
"380 -12 CURVE SMOOTH"
);
}
);
width = 714;
}
);
note = "\012    uni1CE9\012  ";
unicode = 1CE9;
script = vedic;
category = Letter;
subCategory = Other;
userData = {
com.schriftgestaltung.Glyphs.ColorIndex = 1;
com.typemytype.robofont.layerData = {
"Light Feb 25 16, 15:48" = {
anchors = (
);
components = (
);
contours = (
{
points = (
{
segmentType = line;
smooth = 0;
x = 1317;
y = 764;
},
{
smooth = 0;
x = 1284;
y = 755;
},
{
smooth = 0;
x = 1248;
y = 751;
},
{
segmentType = curve;
smooth = 1;
x = 1207;
y = 751;
},
{
smooth = 0;
x = 1002;
y = 751;
},
{
smooth = 0;
x = 875;
y = 864;
},
{
segmentType = curve;
smooth = 1;
x = 875;
y = 1033;
},
{
smooth = 0;
x = 875;
y = 1194;
},
{
smooth = 0;
x = 979;
y = 1295;
},
{
segmentType = curve;
smooth = 1;
x = 1148;
y = 1295;
},
{
smooth = 0;
x = 1295;
y = 1295;
},
{
smooth = 0;
x = 1415;
y = 1213;
},
{
segmentType = curve;
smooth = 1;
x = 1486;
y = 1036;
},
{
smooth = 0;
x = 1521;
y = 947;
},
{
smooth = 0;
x = 1539;
y = 839;
},
{
segmentType = curve;
smooth = 1;
x = 1539;
y = 711;
},
{
smooth = 0;
x = 1539;
y = 263;
},
{
smooth = 0;
x = 1282;
y = 0;
},
{
segmentType = curve;
smooth = 1;
x = 830;
y = 0;
},
{
smooth = 0;
x = 369;
y = 0;
},
{
smooth = 0;
x = 105;
y = 269;
},
{
segmentType = curve;
smooth = 1;
x = 105;
y = 717;
},
{
smooth = 0;
x = 105;
y = 1080;
},
{
smooth = 0;
x = 262;
y = 1295;
},
{
segmentType = curve;
smooth = 1;
x = 505;
y = 1295;
},
{
smooth = 0;
x = 665;
y = 1295;
},
{
smooth = 0;
x = 769;
y = 1186;
},
{
segmentType = curve;
smooth = 1;
x = 769;
y = 1033;
},
{
smooth = 0;
x = 769;
y = 861;
},
{
smooth = 0;
x = 652;
y = 751;
},
{
segmentType = curve;
smooth = 1;
x = 445;
y = 751;
},
{
smooth = 0;
x = 398;
y = 751;
},
{
smooth = 0;
x = 358;
y = 757;
},
{
segmentType = curve;
smooth = 0;
x = 325;
y = 770;
},
{
segmentType = line;
smooth = 0;
x = 353;
y = 903;
},
{
smooth = 0;
x = 374;
y = 896;
},
{
smooth = 0;
x = 401;
y = 893;
},
{
segmentType = curve;
smooth = 1;
x = 434;
y = 893;
},
{
smooth = 0;
x = 562;
y = 893;
},
{
smooth = 0;
x = 624;
y = 948;
},
{
segmentType = curve;
smooth = 1;
x = 624;
y = 1031;
},
{
smooth = 0;
x = 624;
y = 1107;
},
{
smooth = 0;
x = 571;
y = 1155;
},
{
segmentType = curve;
smooth = 1;
x = 498;
y = 1155;
},
{
smooth = 0;
x = 359;
y = 1155;
},
{
smooth = 0;
x = 270;
y = 997;
},
{
segmentType = curve;
smooth = 1;
x = 270;
y = 710;
},
{
segmentType = line;
smooth = 1;
x = 270;
y = 697;
},
{
smooth = 0;
x = 270;
y = 364;
},
{
smooth = 0;
x = 464;
y = 151;
},
{
segmentType = curve;
smooth = 1;
x = 812;
y = 151;
},
{
smooth = 0;
x = 1179;
y = 151;
},
{
smooth = 0;
x = 1374;
y = 358;
},
{
segmentType = curve;
smooth = 1;
x = 1374;
y = 718;
},
{
segmentType = line;
smooth = 1;
x = 1374;
y = 728;
},
{
smooth = 0;
x = 1374;
y = 996;
},
{
smooth = 0;
x = 1290;
y = 1155;
},
{
segmentType = curve;
smooth = 1;
x = 1153;
y = 1155;
},
{
smooth = 0;
x = 1072;
y = 1155;
},
{
smooth = 0;
x = 1020;
y = 1107;
},
{
segmentType = curve;
smooth = 1;
x = 1020;
y = 1031;
},
{
smooth = 0;
x = 1020;
y = 943;
},
{
smooth = 0;
x = 1091;
y = 893;
},
{
segmentType = curve;
smooth = 1;
x = 1220;
y = 893;
},
{
smooth = 0;
x = 1249;
y = 893;
},
{
smooth = 0;
x = 1274;
y = 896;
},
{
segmentType = curve;
smooth = 0;
x = 1296;
y = 903;
}
);
}
);
lib = {
};
name = uni1CE9;
unicodes = (
);
width = 1634;
};
background = {
anchors = (
);
components = (
);
contours = (
{
points = (
{
smooth = 0;
x = 371;
y = 200;
},
{
smooth = 0;
x = 390;
y = 219;
},
{
segmentType = curve;
smooth = 1;
x = 390;
y = 243;
},
{
smooth = 0;
x = 390;
y = 267;
},
{
smooth = 0;
x = 371;
y = 286;
},
{
segmentType = curve;
smooth = 1;
x = 347;
y = 286;
},
{
smooth = 0;
x = 323;
y = 286;
},
{
smooth = 0;
x = 304;
y = 267;
},
{
segmentType = curve;
smooth = 1;
x = 304;
y = 243;
},
{
smooth = 0;
x = 304;
y = 219;
},
{
smooth = 0;
x = 323;
y = 200;
},
{
segmentType = curve;
smooth = 1;
x = 347;
y = 200;
}
);
},
{
points = (
{
smooth = 0;
x = 251;
y = 779;
},
{
smooth = 0;
x = 291;
y = 819;
},
{
segmentType = curve;
smooth = 1;
x = 291;
y = 869;
},
{
smooth = 0;
x = 291;
y = 918;
},
{
smooth = 0;
x = 251;
y = 958;
},
{
segmentType = curve;
smooth = 1;
x = 202;
y = 958;
},
{
smooth = 0;
x = 152;
y = 958;
},
{
smooth = 0;
x = 112;
y = 918;
},
{
segmentType = curve;
smooth = 1;
x = 112;
y = 869;
},
{
smooth = 0;
x = 112;
y = 819;
},
{
smooth = 0;
x = 152;
y = 779;
},
{
segmentType = curve;
smooth = 1;
x = 202;
y = 779;
}
);
},
{
points = (
{
smooth = 0;
x = 1352;
y = 151;
},
{
smooth = 0;
x = 1392;
y = 191;
},
{
segmentType = curve;
smooth = 1;
x = 1392;
y = 241;
},
{
smooth = 0;
x = 1392;
y = 290;
},
{
smooth = 0;
x = 1352;
y = 330;
},
{
segmentType = curve;
smooth = 1;
x = 1303;
y = 330;
},
{
smooth = 0;
x = 1253;
y = 330;
},
{
smooth = 0;
x = 1213;
y = 290;
},
{
segmentType = curve;
smooth = 1;
x = 1213;
y = 241;
},
{
smooth = 0;
x = 1213;
y = 191;
},
{
smooth = 0;
x = 1253;
y = 151;
},
{
segmentType = curve;
smooth = 1;
x = 1303;
y = 151;
}
);
},
{
points = (
{
smooth = 0;
x = 1083;
y = 1073;
},
{
smooth = 0;
x = 1123;
y = 1113;
},
{
segmentType = curve;
smooth = 1;
x = 1123;
y = 1163;
},
{
smooth = 0;
x = 1123;
y = 1212;
},
{
smooth = 0;
x = 1083;
y = 1252;
},
{
segmentType = curve;
smooth = 1;
x = 1034;
y = 1252;
},
{
smooth = 0;
x = 984;
y = 1252;
},
{
smooth = 0;
x = 944;
y = 1212;
},
{
segmentType = curve;
smooth = 1;
x = 944;
y = 1163;
},
{
smooth = 0;
x = 944;
y = 1113;
},
{
smooth = 0;
x = 984;
y = 1073;
},
{
segmentType = curve;
smooth = 1;
x = 1034;
y = 1073;
}
);
},
{
points = (
{
smooth = 0;
x = 1440;
y = 1012;
},
{
smooth = 0;
x = 1459;
y = 1031;
},
{
segmentType = curve;
smooth = 1;
x = 1459;
y = 1055;
},
{
smooth = 0;
x = 1459;
y = 1079;
},
{
smooth = 0;
x = 1440;
y = 1098;
},
{
segmentType = curve;
smooth = 1;
x = 1416;
y = 1098;
},
{
smooth = 0;
x = 1392;
y = 1098;
},
{
smooth = 0;
x = 1373;
y = 1079;
},
{
segmentType = curve;
smooth = 1;
x = 1373;
y = 1055;
},
{
smooth = 0;
x = 1373;
y = 1031;
},
{
smooth = 0;
x = 1392;
y = 1012;
},
{
segmentType = curve;
smooth = 1;
x = 1416;
y = 1012;
}
);
},
{
points = (
{
smooth = 0;
x = 674;
y = 781;
},
{
smooth = 0;
x = 714;
y = 821;
},
{
segmentType = curve;
smooth = 1;
x = 714;
y = 871;
},
{
smooth = 0;
x = 714;
y = 920;
},
{
smooth = 0;
x = 674;
y = 960;
},
{
segmentType = curve;
smooth = 1;
x = 625;
y = 960;
},
{
smooth = 0;
x = 575;
y = 960;
},
{
smooth = 0;
x = 535;
y = 920;
},
{
segmentType = curve;
smooth = 1;
x = 535;
y = 871;
},
{
smooth = 0;
x = 535;
y = 821;
},
{
smooth = 0;
x = 575;
y = 781;
},
{
segmentType = curve;
smooth = 1;
x = 625;
y = 781;
}
);
},
{
points = (
{
smooth = 0;
x = 712;
y = 1133;
},
{
smooth = 0;
x = 731;
y = 1152;
},
{
segmentType = curve;
smooth = 1;
x = 731;
y = 1176;
},
{
smooth = 0;
x = 731;
y = 1200;
},
{
smooth = 0;
x = 712;
y = 1219;
},
{
segmentType = curve;
smooth = 1;
x = 688;
y = 1219;
},
{
smooth = 0;
x = 664;
y = 1219;
},
{
smooth = 0;
x = 645;
y = 1200;
},
{
segmentType = curve;
smooth = 1;
x = 645;
y = 1176;
},
{
smooth = 0;
x = 645;
y = 1152;
},
{
smooth = 0;
x = 664;
y = 1133;
},
{
segmentType = curve;
smooth = 1;
x = 688;
y = 1133;
}
);
}
);
lib = {
};
name = uni1CE9;
unicodes = (
);
width = 1657;
};
};
};
}
{
glyphname = "anusvaraBahirgomukha-vedic";
production = uni1CEA;
layers = (
{
anchors = (
{
name = bottom_right;
position = "{397, -6}";
},
{
name = candra;
position = "{434, 623}";
},
{
name = top;
position = "{434, 623}";
}
);
layerId = "E22305A4-B0AF-4429-B69B-D5D74FEEE350";
paths = (
{
closed = 1;
nodes = (
"573 -5 OFFCURVE",
"665 71 OFFCURVE",
"665 161 CURVE SMOOTH",
"665 307 OFFCURVE",
"520 357 OFFCURVE",
"520 472 CURVE SMOOTH",
"520 534 OFFCURVE",
"572 572 OFFCURVE",
"630 572 CURVE SMOOTH",
"660 572 OFFCURVE",
"673 555 OFFCURVE",
"673 537 CURVE SMOOTH",
"673 498 OFFCURVE",
"618 472 OFFCURVE",
"574 467 CURVE",
"608 393 LINE",
"685 407 OFFCURVE",
"732 442 OFFCURVE",
"732 497 CURVE SMOOTH",
"732 570 OFFCURVE",
"664 633 OFFCURVE",
"591 633 CURVE SMOOTH",
"505 633 OFFCURVE",
"438 583 OFFCURVE",
"438 495 CURVE SMOOTH",
"438 374 OFFCURVE",
"585 325 OFFCURVE",
"585 200 CURVE SMOOTH",
"585 114 OFFCURVE",
"515 62 OFFCURVE",
"382 62 CURVE SMOOTH",
"254 62 OFFCURVE",
"176 92 OFFCURVE",
"176 168 CURVE SMOOTH",
"176 273 OFFCURVE",
"358 326 OFFCURVE",
"358 458 CURVE SMOOTH",
"358 539 OFFCURVE",
"266 629 OFFCURVE",
"188 629 CURVE SMOOTH",
"106 629 OFFCURVE",
"63 581 OFFCURVE",
"63 526 CURVE SMOOTH",
"63 476 OFFCURVE",
"99 419 OFFCURVE",
"172 388 CURVE",
"189 412 LINE",
"153 432 OFFCURVE",
"138 458 OFFCURVE",
"138 483 CURVE SMOOTH",
"138 524 OFFCURVE",
"177 561 OFFCURVE",
"230 561 CURVE SMOOTH",
"267 561 OFFCURVE",
"287 541 OFFCURVE",
"287 504 CURVE SMOOTH",
"287 360 OFFCURVE",
"107 353 OFFCURVE",
"107 216 CURVE SMOOTH",
"107 84 OFFCURVE",
"257 -5 OFFCURVE",
"408 -5 CURVE SMOOTH"
);
}
);
width = 756;
},
{
anchors = (
{
name = bottom_right;
position = "{364, -6}";
},
{
name = candra;
position = "{377, 622}";
},
{
name = top;
position = "{377, 622}";
}
);
layerId = "92BDF110-6149-41B0-AB08-5310EECFA1B7";
paths = (
{
closed = 1;
nodes = (
"510 -5 OFFCURVE",
"613 65 OFFCURVE",
"613 181 CURVE SMOOTH",
"613 320 OFFCURVE",
"450 376 OFFCURVE",
"450 492 CURVE SMOOTH",
"450 560 OFFCURVE",
"498 608 OFFCURVE",
"567 608 CURVE SMOOTH",
"623 608 OFFCURVE",
"656 579 OFFCURVE",
"656 528 CURVE SMOOTH",
"656 485 OFFCURVE",
"626 446 OFFCURVE",
"550 433 CURVE",
"562 407 LINE",
"641 426 OFFCURVE",
"680 469 OFFCURVE",
"680 523 CURVE SMOOTH",
"680 586 OFFCURVE",
"631 633 OFFCURVE",
"561 633 CURVE SMOOTH",
"482 633 OFFCURVE",
"422 575 OFFCURVE",
"422 497 CURVE SMOOTH",
"422 369 OFFCURVE",
"587 313 OFFCURVE",
"587 186 CURVE SMOOTH",
"587 83 OFFCURVE",
"490 20 OFFCURVE",
"347 20 CURVE SMOOTH",
"208 20 OFFCURVE",
"119 86 OFFCURVE",
"119 177 CURVE SMOOTH",
"119 317 OFFCURVE",
"311 351 OFFCURVE",
"311 497 CURVE SMOOTH",
"311 568 OFFCURVE",
"265 628 OFFCURVE",
"177 628 CURVE SMOOTH",
"103 628 OFFCURVE",
"49 579 OFFCURVE",
"49 519 CURVE SMOOTH",
"49 461 OFFCURVE",
"88 422 OFFCURVE",
"140 394 CURVE",
"150 411 LINE",
"107 436 OFFCURVE",
"75 466 OFFCURVE",
"75 514 CURVE SMOOTH",
"75 566 OFFCURVE",
"116 603 OFFCURVE",
"183 603 CURVE SMOOTH",
"255 603 OFFCURVE",
"285 559 OFFCURVE",
"285 501 CURVE SMOOTH",
"285 367 OFFCURVE",
"92 332 OFFCURVE",
"92 182 CURVE SMOOTH",
"92 78 OFFCURVE",
"200 -5 OFFCURVE",
"353 -5 CURVE SMOOTH"
);
}
);
width = 709;
},
{
anchors = (
{
name = bottom_right;
position = "{449, -6}";
},
{
name = candra;
position = "{511, 626}";
},
{
name = top;
position = "{511, 626}";
}
);
layerId = "26889610-2B6B-400B-B1BB-1A42565FFDAF";
paths = (
{
closed = 1;
nodes = (
"639 -8 OFFCURVE",
"747 60 OFFCURVE",
"747 162 CURVE SMOOTH",
"747 289 OFFCURVE",
"587 359 OFFCURVE",
"587 459 CURVE SMOOTH",
"587 517 OFFCURVE",
"633 553 OFFCURVE",
"684 553 CURVE SMOOTH",
"713 553 OFFCURVE",
"727 539 OFFCURVE",
"727 519 CURVE SMOOTH",
"727 489 OFFCURVE",
"688 467 OFFCURVE",
"631 457 CURVE",
"677 359 LINE",
"758 374 OFFCURVE",
"812 407 OFFCURVE",
"812 473 CURVE SMOOTH",
"812 553 OFFCURVE",
"738 634 OFFCURVE",
"636 634 CURVE SMOOTH",
"544 634 OFFCURVE",
"480 580 OFFCURVE",
"480 502 CURVE SMOOTH",
"480 387 OFFCURVE",
"624 323 OFFCURVE",
"624 216 CURVE SMOOTH",
"624 136 OFFCURVE",
"535 86 OFFCURVE",
"417 86 CURVE SMOOTH",
"300 86 OFFCURVE",
"246 118 OFFCURVE",
"246 168 CURVE SMOOTH",
"246 258 OFFCURVE",
"419 304 OFFCURVE",
"419 427 CURVE SMOOTH",
"419 527 OFFCURVE",
"335 633 OFFCURVE",
"216 633 CURVE SMOOTH",
"137 633 OFFCURVE",
"86 584 OFFCURVE",
"86 524 CURVE SMOOTH",
"86 463 OFFCURVE",
"132 410 OFFCURVE",
"208 369 CURVE",
"243 416 LINE",
"216 433 OFFCURVE",
"200 451 OFFCURVE",
"200 474 CURVE SMOOTH",
"200 510 OFFCURVE",
"235 537 OFFCURVE",
"276 537 CURVE SMOOTH",
"312 537 OFFCURVE",
"329 517 OFFCURVE",
"329 488 CURVE SMOOTH",
"329 379 OFFCURVE",
"134 340 OFFCURVE",
"134 214 CURVE SMOOTH",
"134 104 OFFCURVE",
"262 -8 OFFCURVE",
"468 -8 CURVE SMOOTH"
);
}
);
width = 855;
},
{
anchors = (
{
name = bottom_right;
position = "{483, -6}";
},
{
name = candra;
position = "{565, 627}";
},
{
name = top;
position = "{565, 627}";
}
);
layerId = "3E60C6C7-DFFD-4AAE-9DD7-DF994DEB26A2";
paths = (
{
closed = 1;
nodes = (
"688 -10 OFFCURVE",
"800 57 OFFCURVE",
"800 157 CURVE SMOOTH",
"800 277 OFFCURVE",
"639 354 OFFCURVE",
"639 447 CURVE SMOOTH",
"639 503 OFFCURVE",
"683 535 OFFCURVE",
"729 535 CURVE SMOOTH",
"750 535 OFFCURVE",
"759 526 OFFCURVE",
"759 513 CURVE SMOOTH",
"759 488 OFFCURVE",
"720 472 OFFCURVE",
"666 463 CURVE",
"723 340 LINE",
"806 354 OFFCURVE",
"865 384 OFFCURVE",
"865 455 CURVE SMOOTH",
"865 541 OFFCURVE",
"783 635 OFFCURVE",
"668 635 CURVE SMOOTH",
"570 635 OFFCURVE",
"505 581 OFFCURVE",
"505 505 CURVE SMOOTH",
"505 395 OFFCURVE",
"643 326 OFFCURVE",
"643 227 CURVE SMOOTH",
"643 154 OFFCURVE",
"554 109 OFFCURVE",
"444 109 CURVE SMOOTH",
"333 109 OFFCURVE",
"292 131 OFFCURVE",
"292 166 CURVE SMOOTH",
"292 239 OFFCURVE",
"461 288 OFFCURVE",
"461 404 CURVE SMOOTH",
"461 514 OFFCURVE",
"367 635 OFFCURVE",
"232 635 CURVE SMOOTH",
"151 635 OFFCURVE",
"101 585 OFFCURVE",
"101 526 CURVE SMOOTH",
"101 462 OFFCURVE",
"150 406 OFFCURVE",
"234 359 CURVE",
"277 418 LINE",
"256 432 OFFCURVE",
"245 445 OFFCURVE",
"245 462 CURVE SMOOTH",
"245 492 OFFCURVE",
"278 516 OFFCURVE",
"310 516 CURVE SMOOTH",
"336 516 OFFCURVE",
"350 501 OFFCURVE",
"350 482 CURVE SMOOTH",
"350 386 OFFCURVE",
"151 340 OFFCURVE",
"151 222 CURVE SMOOTH",
"151 114 OFFCURVE",
"281 -10 OFFCURVE",
"512 -10 CURVE SMOOTH"
);
}
);
width = 915;
},
{
anchors = (
{
name = bottom_right;
position = "{279, -6}";
},
{
name = candra;
position = "{293, 622}";
},
{
name = top;
position = "{293, 622}";
}
);
layerId = "B188D42B-E0C1-4C36-A461-FECF08FB9142";
paths = (
{
closed = 1;
nodes = (
"393 -5 OFFCURVE",
"469 66 OFFCURVE",
"469 170 CURVE SMOOTH",
"469 312 OFFCURVE",
"347 392 OFFCURVE",
"347 511 CURVE SMOOTH",
"347 568 OFFCURVE",
"382 608 OFFCURVE",
"432 608 CURVE SMOOTH",
"471 608 OFFCURVE",
"494 582 OFFCURVE",
"494 539 CURVE SMOOTH",
"494 494 OFFCURVE",
"465 461 OFFCURVE",
"417 435 CURVE",
"434 410 LINE",
"486 441 OFFCURVE",
"519 481 OFFCURVE",
"519 534 CURVE SMOOTH",
"519 590 OFFCURVE",
"479 633 OFFCURVE",
"426 633 CURVE SMOOTH",
"365 633 OFFCURVE",
"319 583 OFFCURVE",
"319 516 CURVE SMOOTH",
"319 391 OFFCURVE",
"442 311 OFFCURVE",
"442 175 CURVE SMOOTH",
"442 85 OFFCURVE",
"374 22 OFFCURVE",
"267 22 CURVE SMOOTH",
"164 22 OFFCURVE",
"98 78 OFFCURVE",
"98 155 CURVE SMOOTH",
"98 284 OFFCURVE",
"241 360 OFFCURVE",
"241 499 CURVE SMOOTH",
"241 569 OFFCURVE",
"200 628 OFFCURVE",
"137 628 CURVE SMOOTH",
"79 628 OFFCURVE",
"39 582 OFFCURVE",
"39 524 CURVE SMOOTH",
"39 473 OFFCURVE",
"65 430 OFFCURVE",
"104 396 CURVE",
"119 411 LINE",
"86 444 OFFCURVE",
"65 476 OFFCURVE",
"65 519 CURVE SMOOTH",
"65 568 OFFCURVE",
"96 603 OFFCURVE",
"143 603 CURVE SMOOTH",
"193 603 OFFCURVE",
"215 560 OFFCURVE",
"215 504 CURVE SMOOTH",
"215 377 OFFCURVE",
"72 301 OFFCURVE",
"72 160 CURVE SMOOTH",
"72 66 OFFCURVE",
"154 -5 OFFCURVE",
"273 -5 CURVE SMOOTH"
);
}
);
width = 540;
},
{
anchors = (
{
name = bottom_right;
position = "{328, -6}";
},
{
name = candra;
position = "{363, 623}";
},
{
name = top;
position = "{363, 623}";
}
);
layerId = "1C76EA3D-1F01-478B-AF6D-23469B2400A3";
paths = (
{
closed = 1;
nodes = (
"466 -5 OFFCURVE",
"547 71 OFFCURVE",
"547 163 CURVE SMOOTH",
"547 298 OFFCURVE",
"428 366 OFFCURVE",
"428 484 CURVE SMOOTH",
"428 540 OFFCURVE",
"466 575 OFFCURVE",
"507 575 CURVE SMOOTH",
"535 575 OFFCURVE",
"547 560 OFFCURVE",
"547 540 CURVE SMOOTH",
"547 508 OFFCURVE",
"513 482 OFFCURVE",
"465 464 CURVE",
"500 394 LINE",
"562 420 OFFCURVE",
"600 454 OFFCURVE",
"600 509 CURVE SMOOTH",
"600 576 OFFCURVE",
"549 633 OFFCURVE",
"479 633 CURVE SMOOTH",
"411 633 OFFCURVE",
"358 580 OFFCURVE",
"358 504 CURVE SMOOTH",
"358 398 OFFCURVE",
"475 328 OFFCURVE",
"475 199 CURVE SMOOTH",
"475 115 OFFCURVE",
"408 58 OFFCURVE",
"301 58 CURVE SMOOTH",
"209 58 OFFCURVE",
"156 91 OFFCURVE",
"156 150 CURVE SMOOTH",
"156 250 OFFCURVE",
"298 344 OFFCURVE",
"298 461 CURVE SMOOTH",
"298 541 OFFCURVE",
"234 629 OFFCURVE",
"155 629 CURVE SMOOTH",
"98 629 OFFCURVE",
"56 589 OFFCURVE",
"56 535 CURVE SMOOTH",
"56 483 OFFCURVE",
"88 434 OFFCURVE",
"140 392 CURVE",
"163 412 LINE",
"139 439 OFFCURVE",
"124 466 OFFCURVE",
"124 496 CURVE SMOOTH",
"124 532 OFFCURVE",
"152 564 OFFCURVE",
"189 564 CURVE SMOOTH",
"222 564 OFFCURVE",
"238 542 OFFCURVE",
"238 504 CURVE SMOOTH",
"238 375 OFFCURVE",
"91 316 OFFCURVE",
"91 193 CURVE SMOOTH",
"91 81 OFFCURVE",
"199 -5 OFFCURVE",
"328 -5 CURVE SMOOTH"
);
}
);
width = 624;
},
{
anchors = (
{
name = bottom_right;
position = "{366, -6}";
},
{
name = candra;
position = "{421, 625}";
},
{
name = top;
position = "{421, 625}";
}
);
layerId = "48B0D659-D2E4-4014-AFB5-7353283B7180";
paths = (
{
closed = 1;
nodes = (
"524 -7 OFFCURVE",
"610 63 OFFCURVE",
"610 155 CURVE SMOOTH",
"610 287 OFFCURVE",
"486 365 OFFCURVE",
"486 468 CURVE SMOOTH",
"486 524 OFFCURVE",
"521 557 OFFCURVE",
"557 557 CURVE SMOOTH",
"577 557 OFFCURVE",
"587 547 OFFCURVE",
"587 531 CURVE SMOOTH",
"587 505 OFFCURVE",
"554 481 OFFCURVE",
"509 464 CURVE",
"557 370 LINE",
"619 396 OFFCURVE",
"661 433 OFFCURVE",
"661 490 CURVE SMOOTH",
"661 564 OFFCURVE",
"604 634 OFFCURVE",
"518 634 CURVE SMOOTH",
"444 634 OFFCURVE",
"389 582 OFFCURVE",
"389 505 CURVE SMOOTH",
"389 397 OFFCURVE",
"500 322 OFFCURVE",
"500 206 CURVE SMOOTH",
"500 130 OFFCURVE",
"433 80 OFFCURVE",
"338 80 CURVE SMOOTH",
"254 80 OFFCURVE",
"209 110 OFFCURVE",
"209 158 CURVE SMOOTH",
"209 246 OFFCURVE",
"347 323 OFFCURVE",
"347 434 CURVE SMOOTH",
"347 528 OFFCURVE",
"275 632 OFFCURVE",
"180 632 CURVE SMOOTH",
"116 632 OFFCURVE",
"72 588 OFFCURVE",
"72 529 CURVE SMOOTH",
"72 473 OFFCURVE",
"109 421 OFFCURVE",
"168 380 CURVE",
"203 416 LINE",
"184 437 OFFCURVE",
"173 459 OFFCURVE",
"173 484 CURVE SMOOTH",
"173 515 OFFCURVE",
"196 543 OFFCURVE",
"225 543 CURVE SMOOTH",
"249 543 OFFCURVE",
"262 525 OFFCURVE",
"262 498 CURVE SMOOTH",
"262 382 OFFCURVE",
"111 325 OFFCURVE",
"111 208 CURVE SMOOTH",
"111 97 OFFCURVE",
"226 -7 OFFCURVE",
"384 -7 CURVE SMOOTH"
);
}
);
width = 695;
},
{
anchors = (
{
name = bottom_right;
position = "{388, -6}";
},
{
name = candra;
position = "{456, 627}";
},
{
name = top;
position = "{456, 627}";
}
);
layerId = "E10056C4-06A7-4834-9783-123B62B78F3D";
paths = (
{
closed = 1;
nodes = (
"556 -9 OFFCURVE",
"643 57 OFFCURVE",
"643 149 CURVE SMOOTH",
"643 277 OFFCURVE",
"518 366 OFFCURVE",
"518 458 CURVE SMOOTH",
"518 512 OFFCURVE",
"550 545 OFFCURVE",
"581 545 CURVE SMOOTH",
"595 545 OFFCURVE",
"603 538 OFFCURVE",
"603 526 CURVE SMOOTH",
"603 503 OFFCURVE",
"574 482 OFFCURVE",
"531 464 CURVE",
"588 353 LINE",
"649 380 OFFCURVE",
"693 418 OFFCURVE",
"693 478 CURVE SMOOTH",
"693 555 OFFCURVE",
"632 634 OFFCURVE",
"535 634 CURVE SMOOTH",
"458 634 OFFCURVE",
"403 583 OFFCURVE",
"403 506 CURVE SMOOTH",
"403 400 OFFCURVE",
"508 317 OFFCURVE",
"508 211 CURVE SMOOTH",
"508 141 OFFCURVE",
"440 97 OFFCURVE",
"357 97 CURVE SMOOTH",
"282 97 OFFCURVE",
"246 124 OFFCURVE",
"246 162 CURVE SMOOTH",
"246 239 OFFCURVE",
"377 309 OFFCURVE",
"377 415 CURVE SMOOTH",
"377 519 OFFCURVE",
"303 634 OFFCURVE",
"195 634 CURVE SMOOTH",
"129 634 OFFCURVE",
"84 588 OFFCURVE",
"84 526 CURVE SMOOTH",
"84 467 OFFCURVE",
"123 414 OFFCURVE",
"186 371 CURVE",
"230 418 LINE",
"216 436 OFFCURVE",
"208 456 OFFCURVE",
"208 476 CURVE SMOOTH",
"208 504 OFFCURVE",
"226 527 OFFCURVE",
"248 527 CURVE SMOOTH",
"265 527 OFFCURVE",
"275 513 OFFCURVE",
"275 492 CURVE SMOOTH",
"275 389 OFFCURVE",
"124 326 OFFCURVE",
"124 216 CURVE SMOOTH",
"124 109 OFFCURVE",
"239 -9 OFFCURVE",
"416 -9 CURVE SMOOTH"
);
}
);
width = 734;
}
);
note = "\012    uni1CEA\012  ";
unicode = 1CEA;
script = vedic;
category = Letter;
subCategory = Other;
userData = {
com.schriftgestaltung.Glyphs.ColorIndex = 1;
com.typemytype.robofont.layerData = {
"Light Feb 25 16, 16:27" = {
anchors = (
);
components = (
);
contours = (
{
points = (
{
segmentType = line;
smooth = 0;
x = 392;
y = 797;
},
{
smooth = 0;
x = 191;
y = 820;
},
{
smooth = 0;
x = 87;
y = 916;
},
{
segmentType = curve;
smooth = 1;
x = 87;
y = 1064;
},
{
smooth = 0;
x = 87;
y = 1203;
},
{
smooth = 0;
x = 195;
y = 1295;
},
{
segmentType = curve;
smooth = 1;
x = 358;
y = 1295;
},
{
smooth = 0;
x = 497;
y = 1295;
},
{
smooth = 0;
x = 597;
y = 1242;
},
{
segmentType = curve;
smooth = 1;
x = 646;
y = 1150;
},
{
smooth = 0;
x = 671;
y = 1104;
},
{
smooth = 0;
x = 683;
y = 1055;
},
{
segmentType = curve;
smooth = 1;
x = 683;
y = 1002;
},
{
smooth = 0;
x = 683;
y = 869;
},
{
smooth = 0;
x = 630;
y = 775;
},
{
segmentType = curve;
smooth = 1;
x = 498;
y = 650;
},
{
smooth = 0;
x = 401;
y = 558;
},
{
smooth = 0;
x = 369;
y = 498;
},
{
segmentType = curve;
smooth = 1;
x = 369;
y = 403;
},
{
smooth = 0;
x = 369;
y = 251;
},
{
smooth = 0;
x = 506;
y = 151;
},
{
segmentType = curve;
smooth = 1;
x = 766;
y = 151;
},
{
smooth = 0;
x = 937;
y = 151;
},
{
smooth = 0;
x = 1061;
y = 196;
},
{
segmentType = curve;
smooth = 1;
x = 1125;
y = 278;
},
{
smooth = 0;
x = 1157;
y = 319;
},
{
smooth = 0;
x = 1173;
y = 363;
},
{
segmentType = curve;
smooth = 1;
x = 1173;
y = 410;
},
{
smooth = 0;
x = 1173;
y = 501;
},
{
smooth = 0;
x = 1149;
y = 552;
},
{
segmentType = curve;
smooth = 1;
x = 1033;
y = 663;
},
{
smooth = 0;
x = 901;
y = 788;
},
{
smooth = 0;
x = 860;
y = 868;
},
{
segmentType = curve;
smooth = 1;
x = 860;
y = 1016;
},
{
smooth = 0;
x = 860;
y = 1171;
},
{
smooth = 0;
x = 980;
y = 1295;
},
{
segmentType = curve;
smooth = 1;
x = 1187;
y = 1295;
},
{
smooth = 0;
x = 1358;
y = 1295;
},
{
smooth = 0;
x = 1455;
y = 1204;
},
{
segmentType = curve;
smooth = 1;
x = 1455;
y = 1052;
},
{
smooth = 0;
x = 1455;
y = 909;
},
{
smooth = 0;
x = 1351;
y = 815;
},
{
segmentType = curve;
smooth = 0;
x = 1150;
y = 794;
},
{
segmentType = line;
smooth = 0;
x = 1130;
y = 937;
},
{
smooth = 0;
x = 1245;
y = 946;
},
{
smooth = 0;
x = 1303;
y = 988;
},
{
segmentType = curve;
smooth = 1;
x = 1303;
y = 1061;
},
{
smooth = 0;
x = 1303;
y = 1128;
},
{
smooth = 0;
x = 1265;
y = 1164;
},
{
segmentType = curve;
smooth = 1;
x = 1193;
y = 1164;
},
{
smooth = 0;
x = 1090;
y = 1164;
},
{
smooth = 0;
x = 1019;
y = 1096;
},
{
segmentType = curve;
smooth = 1;
x = 1019;
y = 997;
},
{
smooth = 0;
x = 1019;
y = 910;
},
{
smooth = 0;
x = 1055;
y = 848;
},
{
segmentType = curve;
smooth = 1;
x = 1150;
y = 760;
},
{
smooth = 0;
x = 1285;
y = 633;
},
{
smooth = 0;
x = 1338;
y = 522;
},
{
segmentType = curve;
smooth = 1;
x = 1338;
y = 403;
},
{
smooth = 0;
x = 1338;
y = 148;
},
{
smooth = 0;
x = 1138;
y = 0;
},
{
segmentType = curve;
smooth = 1;
x = 765;
y = 0;
},
{
smooth = 0;
x = 513;
y = 0;
},
{
smooth = 0;
x = 343;
y = 76;
},
{
segmentType = curve;
smooth = 1;
x = 264;
y = 198;
},
{
smooth = 0;
x = 224;
y = 259;
},
{
smooth = 0;
x = 204;
y = 328;
},
{
segmentType = curve;
smooth = 1;
x = 204;
y = 407;
},
{
smooth = 0;
x = 204;
y = 491;
},
{
smooth = 0;
x = 224;
y = 555;
},
{
segmentType = curve;
smooth = 1;
x = 269;
y = 624;
},
{
smooth = 0;
x = 291;
y = 659;
},
{
smooth = 0;
x = 333;
y = 706;
},
{
segmentType = curve;
smooth = 1;
x = 396;
y = 767;
},
{
smooth = 0;
x = 496;
y = 864;
},
{
smooth = 0;
x = 523;
y = 924;
},
{
segmentType = curve;
smooth = 1;
x = 523;
y = 1009;
},
{
smooth = 0;
x = 523;
y = 1097;
},
{
smooth = 0;
x = 454;
y = 1164;
},
{
segmentType = curve;
smooth = 1;
x = 363;
y = 1164;
},
{
smooth = 0;
x = 283;
y = 1164;
},
{
smooth = 0;
x = 239;
y = 1126;
},
{
segmentType = curve;
smooth = 1;
x = 239;
y = 1061;
},
{
smooth = 0;
x = 239;
y = 988;
},
{
smooth = 0;
x = 297;
y = 946;
},
{
segmentType = curve;
smooth = 0;
x = 412;
y = 937;
}
);
}
);
lib = {
};
name = uni1CEA;
unicodes = (
);
width = 1532;
};
background = {
anchors = (
);
components = (
);
contours = (
{
points = (
{
smooth = 0;
x = 312;
y = 194;
},
{
smooth = 0;
x = 331;
y = 213;
},
{
segmentType = curve;
smooth = 1;
x = 331;
y = 237;
},
{
smooth = 0;
x = 331;
y = 261;
},
{
smooth = 0;
x = 312;
y = 280;
},
{
segmentType = curve;
smooth = 1;
x = 288;
y = 280;
},
{
smooth = 0;
x = 264;
y = 280;
},
{
smooth = 0;
x = 245;
y = 261;
},
{
segmentType = curve;
smooth = 1;
x = 245;
y = 237;
},
{
smooth = 0;
x = 245;
y = 213;
},
{
smooth = 0;
x = 264;
y = 194;
},
{
segmentType = curve;
smooth = 1;
x = 288;
y = 194;
}
);
},
{
points = (
{
smooth = 0;
x = 201;
y = 1043;
},
{
smooth = 0;
x = 241;
y = 1083;
},
{
segmentType = curve;
smooth = 1;
x = 241;
y = 1133;
},
{
smooth = 0;
x = 241;
y = 1182;
},
{
smooth = 0;
x = 201;
y = 1222;
},
{
segmentType = curve;
smooth = 1;
x = 152;
y = 1222;
},
{
smooth = 0;
x = 102;
y = 1222;
},
{
smooth = 0;
x = 62;
y = 1182;
},
{
segmentType = curve;
smooth = 1;
x = 62;
y = 1133;
},
{
smooth = 0;
x = 62;
y = 1083;
},
{
smooth = 0;
x = 102;
y = 1043;
},
{
segmentType = curve;
smooth = 1;
x = 152;
y = 1043;
}
);
},
{
points = (
{
smooth = 0;
x = 803;
y = -12;
},
{
smooth = 0;
x = 843;
y = 28;
},
{
segmentType = curve;
smooth = 1;
x = 843;
y = 78;
},
{
smooth = 0;
x = 843;
y = 127;
},
{
smooth = 0;
x = 803;
y = 167;
},
{
segmentType = curve;
smooth = 1;
x = 754;
y = 167;
},
{
smooth = 0;
x = 704;
y = 167;
},
{
smooth = 0;
x = 664;
y = 127;
},
{
segmentType = curve;
smooth = 1;
x = 664;
y = 78;
},
{
smooth = 0;
x = 664;
y = 28;
},
{
smooth = 0;
x = 704;
y = -12;
},
{
segmentType = curve;
smooth = 1;
x = 754;
y = -12;
}
);
},
{
points = (
{
smooth = 0;
x = 976;
y = 1019;
},
{
smooth = 0;
x = 1016;
y = 1059;
},
{
segmentType = curve;
smooth = 1;
x = 1016;
y = 1109;
},
{
smooth = 0;
x = 1016;
y = 1158;
},
{
smooth = 0;
x = 976;
y = 1198;
},
{
segmentType = curve;
smooth = 1;
x = 927;
y = 1198;
},
{
smooth = 0;
x = 877;
y = 1198;
},
{
smooth = 0;
x = 837;
y = 1158;
},
{
segmentType = curve;
smooth = 1;
x = 837;
y = 1109;
},
{
smooth = 0;
x = 837;
y = 1059;
},
{
smooth = 0;
x = 877;
y = 1019;
},
{
segmentType = curve;
smooth = 1;
x = 927;
y = 1019;
}
);
},
{
points = (
{
smooth = 0;
x = 1345;
y = 1115;
},
{
smooth = 0;
x = 1364;
y = 1134;
},
{
segmentType = curve;
smooth = 1;
x = 1364;
y = 1158;
},
{
smooth = 0;
x = 1364;
y = 1182;
},
{
smooth = 0;
x = 1345;
y = 1201;
},
{
segmentType = curve;
smooth = 1;
x = 1321;
y = 1201;
},
{
smooth = 0;
x = 1297;
y = 1201;
},
{
smooth = 0;
x = 1278;
y = 1182;
},
{
segmentType = curve;
smooth = 1;
x = 1278;
y = 1158;
},
{
smooth = 0;
x = 1278;
y = 1134;
},
{
smooth = 0;
x = 1297;
y = 1115;
},
{
segmentType = curve;
smooth = 1;
x = 1321;
y = 1115;
}
);
},
{
points = (
{
smooth = 0;
x = 437;
y = 569;
},
{
smooth = 0;
x = 477;
y = 609;
},
{
segmentType = curve;
smooth = 1;
x = 477;
y = 659;
},
{
smooth = 0;
x = 477;
y = 708;
},
{
smooth = 0;
x = 437;
y = 748;
},
{
segmentType = curve;
smooth = 1;
x = 388;
y = 748;
},
{
smooth = 0;
x = 338;
y = 748;
},
{
smooth = 0;
x = 298;
y = 708;
},
{
segmentType = curve;
smooth = 1;
x = 298;
y = 659;
},
{
smooth = 0;
x = 298;
y = 609;
},
{
smooth = 0;
x = 338;
y = 569;
},
{
segmentType = curve;
smooth = 1;
x = 388;
y = 569;
}
);
},
{
points = (
{
smooth = 0;
x = 524;
y = 1100;
},
{
smooth = 0;
x = 543;
y = 1119;
},
{
segmentType = curve;
smooth = 1;
x = 543;
y = 1143;
},
{
smooth = 0;
x = 543;
y = 1167;
},
{
smooth = 0;
x = 524;
y = 1186;
},
{
segmentType = curve;
smooth = 1;
x = 500;
y = 1186;
},
{
smooth = 0;
x = 476;
y = 1186;
},
{
smooth = 0;
x = 457;
y = 1167;
},
{
segmentType = curve;
smooth = 1;
x = 457;
y = 1143;
},
{
smooth = 0;
x = 457;
y = 1119;
},
{
smooth = 0;
x = 476;
y = 1100;
},
{
segmentType = curve;
smooth = 1;
x = 500;
y = 1100;
}
);
}
);
lib = {
};
name = uni1CEA;
unicodes = (
);
width = 1513;
};
};
};
}
{
glyphname = "anusvaraUbhayatoMukha-vedic";
production = uni1CF1;
layers = (
{
layerId = "E22305A4-B0AF-4429-B69B-D5D74FEEE350";
paths = (
{
closed = 1;
nodes = (
"402 11 OFFCURVE",
"461 96 OFFCURVE",
"461 169 CURVE SMOOTH",
"461 240 OFFCURVE",
"375 312 OFFCURVE",
"310 312 CURVE SMOOTH",
"171 312 LINE SMOOTH",
"132 312 OFFCURVE",
"117 328 OFFCURVE",
"117 354 CURVE SMOOTH",
"117 417 OFFCURVE",
"167 487 OFFCURVE",
"258 552 CURVE",
"201 616 LINE",
"98 542 OFFCURVE",
"39 457 OFFCURVE",
"39 384 CURVE SMOOTH",
"39 313 OFFCURVE",
"126 241 OFFCURVE",
"191 241 CURVE SMOOTH",
"330 241 LINE SMOOTH",
"368 241 OFFCURVE",
"384 225 OFFCURVE",
"384 199 CURVE SMOOTH",
"384 136 OFFCURVE",
"333 65 OFFCURVE",
"242 0 CURVE",
"300 -63 LINE"
);
},
{
closed = 1;
nodes = (
"248 112 LINE",
"176 184 LINE",
"104 112 LINE",
"176 41 LINE"
);
},
{
closed = 1;
nodes = (
"396 440 LINE",
"324 512 LINE",
"252 440 LINE",
"324 369 LINE"
);
}
);
width = 500;
},
{
layerId = "92BDF110-6149-41B0-AB08-5310EECFA1B7";
paths = (
{
closed = 1;
nodes = (
"359 11 OFFCURVE",
"427 93 OFFCURVE",
"427 170 CURVE SMOOTH",
"427 242 OFFCURVE",
"375 289 OFFCURVE",
"294 289 CURVE SMOOTH",
"166 289 LINE SMOOTH",
"103 289 OFFCURVE",
"66 321 OFFCURVE",
"66 377 CURVE SMOOTH",
"66 450 OFFCURVE",
"129 525 OFFCURVE",
"229 595 CURVE",
"211 616 LINE",
"107 542 OFFCURVE",
"39 459 OFFCURVE",
"39 382 CURVE SMOOTH",
"39 311 OFFCURVE",
"91 264 OFFCURVE",
"172 264 CURVE SMOOTH",
"300 264 LINE SMOOTH",
"363 264 OFFCURVE",
"399 232 OFFCURVE",
"399 175 CURVE SMOOTH",
"399 103 OFFCURVE",
"336 27 OFFCURVE",
"236 -42 CURVE",
"254 -63 LINE"
);
},
{
closed = 1;
nodes = (
"196 112 LINE",
"156 152 LINE",
"117 112 LINE",
"156 73 LINE"
);
},
{
closed = 1;
nodes = (
"344 440 LINE",
"305 480 LINE",
"265 440 LINE",
"305 401 LINE"
);
}
);
width = 466;
},
{
layerId = "26889610-2B6B-400B-B1BB-1A42565FFDAF";
paths = (
{
closed = 1;
nodes = (
"442 -9 OFFCURVE",
"507 69 OFFCURVE",
"507 147 CURVE SMOOTH",
"507 231 OFFCURVE",
"413 327 OFFCURVE",
"325 327 CURVE SMOOTH",
"204 327 LINE SMOOTH",
"171 327 OFFCURVE",
"151 342 OFFCURVE",
"151 368 CURVE SMOOTH",
"151 415 OFFCURVE",
"205 475 OFFCURVE",
"292 532 CURVE",
"205 627 LINE",
"105 563 OFFCURVE",
"40 485 OFFCURVE",
"40 407 CURVE SMOOTH",
"40 324 OFFCURVE",
"134 227 OFFCURVE",
"222 227 CURVE SMOOTH",
"343 227 LINE SMOOTH",
"376 227 OFFCURVE",
"396 212 OFFCURVE",
"396 186 CURVE SMOOTH",
"396 139 OFFCURVE",
"342 79 OFFCURVE",
"255 22 CURVE",
"342 -73 LINE"
);
},
{
closed = 1;
nodes = (
"250 107 LINE",
"169 186 LINE",
"88 107 LINE",
"169 27 LINE"
);
},
{
closed = 1;
nodes = (
"458 448 LINE",
"377 527 LINE",
"296 448 LINE",
"377 368 LINE"
);
}
);
width = 547;
},
{
layerId = "3E60C6C7-DFFD-4AAE-9DD7-DF994DEB26A2";
paths = (
{
closed = 1;
nodes = (
"474 -18 OFFCURVE",
"539 59 OFFCURVE",
"539 137 CURVE SMOOTH",
"539 226 OFFCURVE",
"432 340 OFFCURVE",
"338 340 CURVE SMOOTH",
"221 340 LINE SMOOTH",
"196 340 OFFCURVE",
"181 351 OFFCURVE",
"181 367 CURVE SMOOTH",
"181 405 OFFCURVE",
"232 458 OFFCURVE",
"315 511 CURVE",
"205 632 LINE",
"106 573 OFFCURVE",
"41 497 OFFCURVE",
"41 417 CURVE SMOOTH",
"41 329 OFFCURVE",
"148 215 OFFCURVE",
"242 215 CURVE SMOOTH",
"359 215 LINE SMOOTH",
"384 215 OFFCURVE",
"399 204 OFFCURVE",
"399 188 CURVE SMOOTH",
"399 149 OFFCURVE",
"347 96 OFFCURVE",
"264 44 CURVE",
"374 -77 LINE"
);
},
{
closed = 1;
nodes = (
"267 104 LINE",
"173 196 LINE",
"79 104 LINE",
"173 12 LINE"
);
},
{
closed = 1;
nodes = (
"501 451 LINE",
"407 543 LINE",
"313 451 LINE",
"407 358 LINE"
);
}
);
width = 580;
},
{
layerId = "B188D42B-E0C1-4C36-A461-FECF08FB9142";
paths = (
{
closed = 1;
nodes = (
"276 11 OFFCURVE",
"326 94 OFFCURVE",
"326 170 CURVE SMOOTH",
"326 242 OFFCURVE",
"287 290 OFFCURVE",
"223 290 CURVE SMOOTH",
"125 290 LINE SMOOTH",
"82 290 OFFCURVE",
"58 321 OFFCURVE",
"58 376 CURVE SMOOTH",
"58 449 OFFCURVE",
"104 525 OFFCURVE",
"180 596 CURVE",
"157 616 LINE",
"79 542 OFFCURVE",
"29 458 OFFCURVE",
"29 382 CURVE SMOOTH",
"29 311 OFFCURVE",
"69 263 OFFCURVE",
"132 263 CURVE SMOOTH",
"230 263 LINE SMOOTH",
"273 263 OFFCURVE",
"297 231 OFFCURVE",
"297 177 CURVE SMOOTH",
"297 105 OFFCURVE",
"252 29 OFFCURVE",
"175 -42 CURVE",
"198 -63 LINE"
);
},
{
closed = 1;
nodes = (
"156 112 LINE",
"121 154 LINE",
"85 112 LINE",
"121 71 LINE"
);
},
{
closed = 1;
nodes = (
"267 440 LINE",
"232 482 LINE",
"197 440 LINE",
"232 399 LINE"
);
}
);
width = 355;
},
{
layerId = "1C76EA3D-1F01-478B-AF6D-23469B2400A3";
paths = (
{
closed = 1;
nodes = (
"329 14 OFFCURVE",
"377 95 OFFCURVE",
"377 169 CURVE SMOOTH",
"377 240 OFFCURVE",
"313 310 OFFCURVE",
"249 310 CURVE SMOOTH",
"145 310 LINE SMOOTH",
"114 310 OFFCURVE",
"100 328 OFFCURVE",
"100 356 CURVE SMOOTH",
"100 422 OFFCURVE",
"144 494 OFFCURVE",
"218 562 CURVE",
"161 616 LINE",
"80 542 OFFCURVE",
"31 457 OFFCURVE",
"31 384 CURVE SMOOTH",
"31 313 OFFCURVE",
"96 243 OFFCURVE",
"159 243 CURVE SMOOTH",
"264 243 LINE SMOOTH",
"294 243 OFFCURVE",
"309 225 OFFCURVE",
"309 197 CURVE SMOOTH",
"309 133 OFFCURVE",
"266 67 OFFCURVE",
"188 -3 CURVE",
"248 -63 LINE"
);
},
{
closed = 1;
nodes = (
"195 112 LINE",
"137 181 LINE",
"79 112 LINE",
"137 43 LINE"
);
},
{
closed = 1;
nodes = (
"329 440 LINE",
"271 509 LINE",
"212 440 LINE",
"271 372 LINE"
);
}
);
width = 408;
},
{
layerId = "48B0D659-D2E4-4014-AFB5-7353283B7180";
paths = (
{
closed = 1;
nodes = (
"364 -1 OFFCURVE",
"414 79 OFFCURVE",
"414 155 CURVE SMOOTH",
"414 234 OFFCURVE",
"338 324 OFFCURVE",
"264 324 CURVE SMOOTH",
"170 324 LINE SMOOTH",
"145 324 OFFCURVE",
"132 338 OFFCURVE",
"132 360 CURVE SMOOTH",
"132 415 OFFCURVE",
"174 480 OFFCURVE",
"247 542 CURVE",
"162 623 LINE",
"82 555 OFFCURVE",
"32 474 OFFCURVE",
"32 398 CURVE SMOOTH",
"32 320 OFFCURVE",
"108 230 OFFCURVE",
"182 230 CURVE SMOOTH",
"276 230 LINE SMOOTH",
"301 230 OFFCURVE",
"315 216 OFFCURVE",
"315 193 CURVE SMOOTH",
"315 140 OFFCURVE",
"272 77 OFFCURVE",
"199 14 CURVE",
"284 -69 LINE"
);
},
{
closed = 1;
nodes = (
"211 109 LINE",
"140 188 LINE",
"69 109 LINE",
"140 29 LINE"
);
},
{
closed = 1;
nodes = (
"378 445 LINE",
"306 524 LINE",
"235 445 LINE",
"306 365 LINE"
);
}
);
width = 446;
},
{
layerId = "E10056C4-06A7-4834-9783-123B62B78F3D";
paths = (
{
closed = 1;
nodes = (
"382 -11 OFFCURVE",
"432 67 OFFCURVE",
"432 145 CURVE SMOOTH",
"432 230 OFFCURVE",
"351 333 OFFCURVE",
"268 333 CURVE SMOOTH",
"186 333 LINE SMOOTH",
"165 333 OFFCURVE",
"153 345 OFFCURVE",
"153 364 CURVE SMOOTH",
"153 410 OFFCURVE",
"195 470 OFFCURVE",
"264 529 CURVE",
"159 628 LINE",
"82 565 OFFCURVE",
"32 486 OFFCURVE",
"32 409 CURVE SMOOTH",
"32 325 OFFCURVE",
"114 221 OFFCURVE",
"196 221 CURVE SMOOTH",
"278 221 LINE SMOOTH",
"299 221 OFFCURVE",
"311 209 OFFCURVE",
"311 190 CURVE SMOOTH",
"311 144 OFFCURVE",
"269 84 OFFCURVE",
"201 26 CURVE",
"305 -74 LINE"
);
},
{
closed = 1;
nodes = (
"217 106 LINE",
"138 193 LINE",
"58 106 LINE",
"138 19 LINE"
);
},
{
closed = 1;
nodes = (
"407 448 LINE",
"327 535 LINE",
"248 448 LINE",
"327 361 LINE"
);
}
);
width = 464;
}
);
note = "\012    uni1CF1\012  ";
unicode = 1CF1;
script = vedic;
category = Letter;
subCategory = Other;
userData = {
com.schriftgestaltung.Glyphs.ColorIndex = 1;
com.typemytype.robofont.layerData = {
"Light Feb 25 16, 19:38" = {
anchors = (
);
components = (
);
contours = (
{
points = (
{
segmentType = line;
smooth = 0;
x = 539;
y = 1079;
},
{
smooth = 0;
x = 454;
y = 1016;
},
{
smooth = 0;
x = 301;
y = 891;
},
{
segmentType = curve;
smooth = 1;
x = 264;
y = 831;
},
{
smooth = 0;
x = 245;
y = 800;
},
{
smooth = 0;
x = 236;
y = 770;
},
{
segmentType = curve;
smooth = 1;
x = 236;
y = 741;
},
{
smooth = 0;
x = 236;
y = 690;
},
{
smooth = 0;
x = 266;
y = 658;
},
{
segmentType = curve;
smooth = 1;
x = 314;
y = 647;
},
{
smooth = 0;
x = 337;
y = 642;
},
{
smooth = 0;
x = 378;
y = 639;
},
{
segmentType = curve;
smooth = 1;
x = 437;
y = 639;
},
{
segmentType = line;
smooth = 1;
x = 581;
y = 639;
},
{
smooth = 0;
x = 745;
y = 639;
},
{
smooth = 0;
x = 815;
y = 623;
},
{
segmentType = curve;
smooth = 1;
x = 876;
y = 579;
},
{
smooth = 0;
x = 936;
y = 535;
},
{
smooth = 0;
x = 963;
y = 480;
},
{
segmentType = curve;
smooth = 1;
x = 963;
y = 408;
},
{
smooth = 0;
x = 963;
y = 323;
},
{
smooth = 0;
x = 943;
y = 266;
},
{
segmentType = curve;
smooth = 1;
x = 884;
y = 194;
},
{
smooth = 0;
x = 825;
y = 122;
},
{
smooth = 0;
x = 683;
y = 0;
},
{
segmentType = curve;
smooth = 0;
x = 594;
y = -67;
},
{
segmentType = line;
smooth = 0;
x = 498;
y = 53;
},
{
smooth = 0;
x = 583;
y = 114;
},
{
smooth = 0;
x = 736;
y = 241;
},
{
segmentType = curve;
smooth = 1;
x = 773;
y = 302;
},
{
smooth = 0;
x = 792;
y = 332;
},
{
smooth = 0;
x = 801;
y = 362;
},
{
segmentType = curve;
smooth = 1;
x = 801;
y = 391;
},
{
smooth = 0;
x = 801;
y = 442;
},
{
smooth = 0;
x = 771;
y = 474;
},
{
segmentType = curve;
smooth = 1;
x = 724;
y = 485;
},
{
smooth = 0;
x = 700;
y = 490;
},
{
smooth = 0;
x = 659;
y = 493;
},
{
segmentType = curve;
smooth = 1;
x = 600;
y = 493;
},
{
segmentType = line;
smooth = 1;
x = 456;
y = 493;
},
{
smooth = 0;
x = 292;
y = 493;
},
{
smooth = 0;
x = 222;
y = 509;
},
{
segmentType = curve;
smooth = 1;
x = 162;
y = 553;
},
{
smooth = 0;
x = 101;
y = 597;
},
{
smooth = 0;
x = 74;
y = 652;
},
{
segmentType = curve;
smooth = 1;
x = 74;
y = 724;
},
{
smooth = 0;
x = 74;
y = 815;
},
{
smooth = 0;
x = 98;
y = 873;
},
{
segmentType = curve;
smooth = 1;
x = 159;
y = 946;
},
{
smooth = 0;
x = 220;
y = 1018;
},
{
smooth = 0;
x = 364;
y = 1140;
},
{
segmentType = curve;
smooth = 0;
x = 443;
y = 1199;
}
);
},
{
points = (
{
smooth = 0;
x = 774;
y = 1022;
},
{
smooth = 0;
x = 830;
y = 962;
},
{
segmentType = curve;
smooth = 1;
x = 830;
y = 891;
},
{
smooth = 0;
x = 830;
y = 820;
},
{
smooth = 0;
x = 774;
y = 760;
},
{
segmentType = curve;
smooth = 1;
x = 705;
y = 760;
},
{
smooth = 0;
x = 636;
y = 760;
},
{
smooth = 0;
x = 580;
y = 820;
},
{
segmentType = curve;
smooth = 1;
x = 580;
y = 891;
},
{
smooth = 0;
x = 580;
y = 962;
},
{
smooth = 0;
x = 636;
y = 1022;
},
{
segmentType = curve;
smooth = 1;
x = 705;
y = 1022;
}
);
},
{
points = (
{
smooth = 0;
x = 400;
y = 372;
},
{
smooth = 0;
x = 457;
y = 313;
},
{
segmentType = curve;
smooth = 1;
x = 457;
y = 241;
},
{
smooth = 0;
x = 457;
y = 170;
},
{
smooth = 0;
x = 401;
y = 110;
},
{
segmentType = curve;
smooth = 1;
x = 332;
y = 110;
},
{
smooth = 0;
x = 263;
y = 110;
},
{
smooth = 0;
x = 207;
y = 170;
},
{
segmentType = curve;
smooth = 1;
x = 207;
y = 241;
},
{
smooth = 0;
x = 207;
y = 312;
},
{
smooth = 0;
x = 263;
y = 372;
},
{
segmentType = curve;
smooth = 1;
x = 332;
y = 372;
}
);
}
);
lib = {
};
name = uni1CF1;
unicodes = (
);
width = 1031;
};
background = {
anchors = (
);
components = (
);
contours = (
{
points = (
{
smooth = 0;
x = 467;
y = 990;
},
{
smooth = 0;
x = 507;
y = 1030;
},
{
segmentType = curve;
smooth = 1;
x = 507;
y = 1080;
},
{
smooth = 0;
x = 507;
y = 1129;
},
{
smooth = 0;
x = 467;
y = 1169;
},
{
segmentType = curve;
smooth = 1;
x = 418;
y = 1169;
},
{
smooth = 0;
x = 368;
y = 1169;
},
{
smooth = 0;
x = 328;
y = 1129;
},
{
segmentType = curve;
smooth = 1;
x = 328;
y = 1080;
},
{
smooth = 0;
x = 328;
y = 1030;
},
{
smooth = 0;
x = 368;
y = 990;
},
{
segmentType = curve;
smooth = 1;
x = 418;
y = 990;
}
);
},
{
points = (
{
smooth = 0;
x = 223;
y = 588;
},
{
smooth = 0;
x = 242;
y = 607;
},
{
segmentType = curve;
smooth = 1;
x = 242;
y = 631;
},
{
smooth = 0;
x = 242;
y = 655;
},
{
smooth = 0;
x = 223;
y = 674;
},
{
segmentType = curve;
smooth = 1;
x = 199;
y = 674;
},
{
smooth = 0;
x = 175;
y = 674;
},
{
smooth = 0;
x = 156;
y = 655;
},
{
segmentType = curve;
smooth = 1;
x = 156;
y = 631;
},
{
smooth = 0;
x = 156;
y = 607;
},
{
smooth = 0;
x = 175;
y = 588;
},
{
segmentType = curve;
smooth = 1;
x = 199;
y = 588;
}
);
}
);
lib = {
};
name = uni1CF1;
unicodes = (
);
width = 1031;
};
};
};
}
{
glyphname = "anusvaraVamagomukha-vedic";
production = uni1CEB;
layers = (
{
anchors = (
{
name = bottom_right;
position = "{414, -6}";
},
{
name = candra;
position = "{451, 623}";
},
{
name = top;
position = "{451, 623}";
}
);
layerId = "E22305A4-B0AF-4429-B69B-D5D74FEEE350";
paths = (
{
closed = 1;
nodes = (
"619 -5 OFFCURVE",
"750 131 OFFCURVE",
"750 321 CURVE SMOOTH",
"750 473 OFFCURVE",
"673 573 OFFCURVE",
"560 573 CURVE SMOOTH",
"489 573 OFFCURVE",
"435 528 OFFCURVE",
"435 460 CURVE SMOOTH",
"435 358 OFFCURVE",
"538 311 OFFCURVE",
"637 301 CURVE",
"643 337 LINE",
"576 348 OFFCURVE",
"510 366 OFFCURVE",
"510 428 CURVE SMOOTH",
"510 477 OFFCURVE",
"554 507 OFFCURVE",
"597 507 CURVE SMOOTH",
"649 507 OFFCURVE",
"687 474 OFFCURVE",
"687 371 CURVE SMOOTH",
"687 196 OFFCURVE",
"556 63 OFFCURVE",
"389 63 CURVE SMOOTH",
"275 63 OFFCURVE",
"206 104 OFFCURVE",
"206 168 CURVE SMOOTH",
"206 273 OFFCURVE",
"373 321 OFFCURVE",
"373 458 CURVE SMOOTH",
"373 539 OFFCURVE",
"281 629 OFFCURVE",
"204 629 CURVE SMOOTH",
"122 629 OFFCURVE",
"78 580 OFFCURVE",
"78 523 CURVE SMOOTH",
"78 473 OFFCURVE",
"113 416 OFFCURVE",
"187 381 CURVE",
"206 412 LINE",
"169 432 OFFCURVE",
"154 458 OFFCURVE",
"154 484 CURVE SMOOTH",
"154 524 OFFCURVE",
"192 561 OFFCURVE",
"246 561 CURVE SMOOTH",
"282 561 OFFCURVE",
"302 541 OFFCURVE",
"302 504 CURVE SMOOTH",
"302 360 OFFCURVE",
"137 353 OFFCURVE",
"137 216 CURVE SMOOTH",
"137 98 OFFCURVE",
"266 -5 OFFCURVE",
"432 -5 CURVE SMOOTH"
);
}
);
width = 779;
},
{
anchors = (
{
name = bottom_right;
position = "{375, -6}";
},
{
name = candra;
position = "{388, 622}";
},
{
name = top;
position = "{388, 622}";
}
);
layerId = "92BDF110-6149-41B0-AB08-5310EECFA1B7";
paths = (
{
closed = 1;
nodes = (
"549 -5 OFFCURVE",
"691 146 OFFCURVE",
"691 344 CURVE SMOOTH",
"691 491 OFFCURVE",
"631 573 OFFCURVE",
"537 573 CURVE SMOOTH",
"467 573 OFFCURVE",
"414 522 OFFCURVE",
"414 455 CURVE SMOOTH",
"414 374 OFFCURVE",
"478 323 OFFCURVE",
"606 304 CURVE",
"609 328 LINE",
"499 343 OFFCURVE",
"441 384 OFFCURVE",
"441 450 CURVE SMOOTH",
"441 508 OFFCURVE",
"482 548 OFFCURVE",
"542 548 CURVE SMOOTH",
"624 548 OFFCURVE",
"667 482 OFFCURVE",
"667 349 CURVE SMOOTH",
"667 162 OFFCURVE",
"534 21 OFFCURVE",
"358 21 CURVE SMOOTH",
"227 21 OFFCURVE",
"144 87 OFFCURVE",
"144 172 CURVE SMOOTH",
"144 309 OFFCURVE",
"320 344 OFFCURVE",
"320 497 CURVE SMOOTH",
"320 568 OFFCURVE",
"274 628 OFFCURVE",
"187 628 CURVE SMOOTH",
"112 628 OFFCURVE",
"59 579 OFFCURVE",
"59 519 CURVE SMOOTH",
"59 461 OFFCURVE",
"98 422 OFFCURVE",
"149 394 CURVE",
"160 411 LINE",
"117 436 OFFCURVE",
"85 466 OFFCURVE",
"85 514 CURVE SMOOTH",
"85 566 OFFCURVE",
"126 603 OFFCURVE",
"193 603 CURVE SMOOTH",
"265 603 OFFCURVE",
"295 559 OFFCURVE",
"295 501 CURVE SMOOTH",
"295 360 OFFCURVE",
"117 324 OFFCURVE",
"117 177 CURVE SMOOTH",
"117 78 OFFCURVE",
"215 -5 OFFCURVE",
"364 -5 CURVE SMOOTH"
);
}
);
width = 706;
},
{
anchors = (
{
name = bottom_right;
position = "{447, -6}";
},
{
name = candra;
position = "{509, 626}";
},
{
name = top;
position = "{509, 626}";
}
);
layerId = "26889610-2B6B-400B-B1BB-1A42565FFDAF";
paths = (
{
closed = 1;
nodes = (
"670 -8 OFFCURVE",
"798 131 OFFCURVE",
"798 315 CURVE SMOOTH",
"798 458 OFFCURVE",
"727 578 OFFCURVE",
"598 578 CURVE SMOOTH",
"518 578 OFFCURVE",
"460 525 OFFCURVE",
"460 452 CURVE SMOOTH",
"460 363 OFFCURVE",
"536 311 OFFCURVE",
"655 295 CURVE",
"669 352 LINE",
"610 361 OFFCURVE",
"575 380 OFFCURVE",
"575 418 CURVE SMOOTH",
"575 453 OFFCURVE",
"608 482 OFFCURVE",
"645 482 CURVE SMOOTH",
"684 482 OFFCURVE",
"706 451 OFFCURVE",
"706 389 CURVE SMOOTH",
"706 223 OFFCURVE",
"573 86 OFFCURVE",
"403 86 CURVE SMOOTH",
"307 86 OFFCURVE",
"252 119 OFFCURVE",
"252 171 CURVE SMOOTH",
"252 264 OFFCURVE",
"406 310 OFFCURVE",
"406 446 CURVE SMOOTH",
"406 534 OFFCURVE",
"324 633 OFFCURVE",
"224 633 CURVE SMOOTH",
"149 633 OFFCURVE",
"97 583 OFFCURVE",
"97 522 CURVE SMOOTH",
"97 459 OFFCURVE",
"138 410 OFFCURVE",
"210 375 CURVE",
"237 421 LINE",
"210 437 OFFCURVE",
"195 454 OFFCURVE",
"195 475 CURVE SMOOTH",
"195 509 OFFCURVE",
"229 537 OFFCURVE",
"273 537 CURVE SMOOTH",
"305 537 OFFCURVE",
"320 520 OFFCURVE",
"320 492 CURVE SMOOTH",
"320 401 OFFCURVE",
"154 342 OFFCURVE",
"154 224 CURVE SMOOTH",
"154 97 OFFCURVE",
"293 -8 OFFCURVE",
"465 -8 CURVE SMOOTH"
);
}
);
width = 832;
},
{
anchors = (
{
name = bottom_right;
position = "{475, -6}";
},
{
name = candra;
position = "{557, 627}";
},
{
name = top;
position = "{557, 627}";
}
);
layerId = "3E60C6C7-DFFD-4AAE-9DD7-DF994DEB26A2";
paths = (
{
closed = 1;
nodes = (
"716 -10 OFFCURVE",
"840 126 OFFCURVE",
"840 306 CURVE SMOOTH",
"840 446 OFFCURVE",
"766 579 OFFCURVE",
"625 579 CURVE SMOOTH",
"540 579 OFFCURVE",
"480 525 OFFCURVE",
"480 450 CURVE SMOOTH",
"480 360 OFFCURVE",
"556 307 OFFCURVE",
"676 291 CURVE",
"694 362 LINE",
"649 368 OFFCURVE",
"625 381 OFFCURVE",
"625 407 CURVE SMOOTH",
"625 434 OFFCURVE",
"655 460 OFFCURVE",
"686 460 CURVE SMOOTH",
"711 460 OFFCURVE",
"725 439 OFFCURVE",
"725 403 CURVE SMOOTH",
"725 243 OFFCURVE",
"590 108 OFFCURVE",
"420 108 CURVE SMOOTH",
"336 108 OFFCURVE",
"290 130 OFFCURVE",
"290 172 CURVE SMOOTH",
"290 251 OFFCURVE",
"437 299 OFFCURVE",
"437 431 CURVE SMOOTH",
"437 524 OFFCURVE",
"346 635 OFFCURVE",
"239 635 CURVE SMOOTH",
"165 635 OFFCURVE",
"111 584 OFFCURVE",
"111 522 CURVE SMOOTH",
"111 455 OFFCURVE",
"153 405 OFFCURVE",
"232 368 CURVE",
"264 426 LINE",
"242 438 OFFCURVE",
"232 449 OFFCURVE",
"232 463 CURVE SMOOTH",
"232 491 OFFCURVE",
"265 515 OFFCURVE",
"301 515 CURVE SMOOTH",
"322 515 OFFCURVE",
"332 506 OFFCURVE",
"332 487 CURVE SMOOTH",
"332 419 OFFCURVE",
"168 345 OFFCURVE",
"168 238 CURVE SMOOTH",
"168 102 OFFCURVE",
"320 -10 OFFCURVE",
"502 -10 CURVE SMOOTH"
);
}
);
width = 881;
},
{
anchors = (
{
name = bottom_right;
position = "{287, -6}";
},
{
name = candra;
position = "{301, 622}";
},
{
name = top;
position = "{301, 622}";
}
);
layerId = "B188D42B-E0C1-4C36-A461-FECF08FB9142";
paths = (
{
closed = 1;
nodes = (
"414 -5 OFFCURVE",
"528 154 OFFCURVE",
"528 365 CURVE SMOOTH",
"528 503 OFFCURVE",
"484 573 OFFCURVE",
"406 573 CURVE SMOOTH",
"354 573 OFFCURVE",
"314 531 OFFCURVE",
"314 475 CURVE SMOOTH",
"314 401 OFFCURVE",
"370 347 OFFCURVE",
"451 306 CURVE",
"461 325 LINE",
"389 365 OFFCURVE",
"341 407 OFFCURVE",
"341 470 CURVE SMOOTH",
"341 517 OFFCURVE",
"372 548 OFFCURVE",
"412 548 CURVE SMOOTH",
"475 548 OFFCURVE",
"504 494 OFFCURVE",
"504 370 CURVE SMOOTH",
"504 171 OFFCURVE",
"397 21 OFFCURVE",
"257 21 CURVE SMOOTH",
"172 21 OFFCURVE",
"118 70 OFFCURVE",
"118 146 CURVE SMOOTH",
"118 261 OFFCURVE",
"248 366 OFFCURVE",
"248 506 CURVE SMOOTH",
"248 572 OFFCURVE",
"207 628 OFFCURVE",
"145 628 CURVE SMOOTH",
"87 628 OFFCURVE",
"47 582 OFFCURVE",
"47 525 CURVE SMOOTH",
"47 472 OFFCURVE",
"75 432 OFFCURVE",
"111 396 CURVE",
"126 411 LINE",
"95 443 OFFCURVE",
"74 475 OFFCURVE",
"74 520 CURVE SMOOTH",
"74 569 OFFCURVE",
"104 603 OFFCURVE",
"151 603 CURVE SMOOTH",
"201 603 OFFCURVE",
"223 563 OFFCURVE",
"223 511 CURVE SMOOTH",
"223 382 OFFCURVE",
"91 278 OFFCURVE",
"91 150 CURVE SMOOTH",
"91 60 OFFCURVE",
"162 -5 OFFCURVE",
"263 -5 CURVE SMOOTH"
);
}
);
width = 540;
},
{
anchors = (
{
name = bottom_right;
position = "{336, -6}";
},
{
name = candra;
position = "{371, 623}";
},
{
name = top;
position = "{371, 623}";
}
);
layerId = "1C76EA3D-1F01-478B-AF6D-23469B2400A3";
paths = (
{
closed = 1;
nodes = (
"494 -5 OFFCURVE",
"606 143 OFFCURVE",
"606 333 CURVE SMOOTH",
"606 478 OFFCURVE",
"542 573 OFFCURVE",
"445 573 CURVE SMOOTH",
"388 573 OFFCURVE",
"351 532 OFFCURVE",
"351 479 CURVE SMOOTH",
"351 395 OFFCURVE",
"423 335 OFFCURVE",
"499 302 CURVE",
"515 334 LINE",
"468 360 OFFCURVE",
"419 400 OFFCURVE",
"419 451 CURVE SMOOTH",
"419 488 OFFCURVE",
"443 511 OFFCURVE",
"476 511 CURVE SMOOTH",
"518 511 OFFCURVE",
"549 477 OFFCURVE",
"549 379 CURVE SMOOTH",
"549 203 OFFCURVE",
"437 59 OFFCURVE",
"291 59 CURVE SMOOTH",
"214 59 OFFCURVE",
"178 93 OFFCURVE",
"178 145 CURVE SMOOTH",
"178 250 OFFCURVE",
"309 330 OFFCURVE",
"309 456 CURVE SMOOTH",
"309 539 OFFCURVE",
"246 629 OFFCURVE",
"169 629 CURVE SMOOTH",
"110 629 OFFCURVE",
"66 585 OFFCURVE",
"66 529 CURVE SMOOTH",
"66 476 OFFCURVE",
"98 428 OFFCURVE",
"147 384 CURVE",
"174 408 LINE",
"145 438 OFFCURVE",
"130 465 OFFCURVE",
"130 497 CURVE SMOOTH",
"130 537 OFFCURVE",
"159 564 OFFCURVE",
"196 564 CURVE SMOOTH",
"229 564 OFFCURVE",
"244 542 OFFCURVE",
"244 504 CURVE SMOOTH",
"244 372 OFFCURVE",
"107 310 OFFCURVE",
"107 183 CURVE SMOOTH",
"107 85 OFFCURVE",
"205 -5 OFFCURVE",
"329 -5 CURVE SMOOTH"
);
}
);
width = 622;
},
{
anchors = (
{
name = bottom_right;
position = "{364, -6}";
},
{
name = candra;
position = "{419, 625}";
},
{
name = top;
position = "{419, 625}";
}
);
layerId = "48B0D659-D2E4-4014-AFB5-7353283B7180";
paths = (
{
closed = 1;
nodes = (
"540 -7 OFFCURVE",
"647 139 OFFCURVE",
"647 321 CURVE SMOOTH",
"647 464 OFFCURVE",
"586 576 OFFCURVE",
"479 576 CURVE SMOOTH",
"416 576 OFFCURVE",
"371 532 OFFCURVE",
"371 470 CURVE SMOOTH",
"371 387 OFFCURVE",
"439 331 OFFCURVE",
"516 299 CURVE",
"540 346 LINE",
"502 367 OFFCURVE",
"470 397 OFFCURVE",
"470 437 CURVE SMOOTH",
"470 467 OFFCURVE",
"490 488 OFFCURVE",
"515 488 CURVE SMOOTH",
"545 488 OFFCURVE",
"565 461 OFFCURVE",
"565 390 CURVE SMOOTH",
"565 225 OFFCURVE",
"451 80 OFFCURVE",
"312 80 CURVE SMOOTH",
"247 80 OFFCURVE",
"214 107 OFFCURVE",
"214 152 CURVE SMOOTH",
"214 241 OFFCURVE",
"341 315 OFFCURVE",
"341 433 CURVE SMOOTH",
"341 528 OFFCURVE",
"272 632 OFFCURVE",
"186 632 CURVE SMOOTH",
"122 632 OFFCURVE",
"82 586 OFFCURVE",
"82 530 CURVE SMOOTH",
"82 476 OFFCURVE",
"115 424 OFFCURVE",
"166 384 CURVE",
"201 417 LINE",
"181 439 OFFCURVE",
"170 461 OFFCURVE",
"170 485 CURVE SMOOTH",
"170 516 OFFCURVE",
"193 541 OFFCURVE",
"222 541 CURVE SMOOTH",
"245 541 OFFCURVE",
"257 524 OFFCURVE",
"257 496 CURVE SMOOTH",
"257 392 OFFCURVE",
"123 326 OFFCURVE",
"123 209 CURVE SMOOTH",
"123 100 OFFCURVE",
"239 -7 OFFCURVE",
"370 -7 CURVE SMOOTH"
);
}
);
width = 675;
},
{
anchors = (
{
name = bottom_right;
position = "{377, -6}";
},
{
name = candra;
position = "{445, 627}";
},
{
name = top;
position = "{445, 627}";
}
);
layerId = "E10056C4-06A7-4834-9783-123B62B78F3D";
paths = (
{
closed = 1;
nodes = (
"560 -9 OFFCURVE",
"663 138 OFFCURVE",
"663 314 CURVE SMOOTH",
"663 454 OFFCURVE",
"604 578 OFFCURVE",
"492 578 CURVE SMOOTH",
"425 578 OFFCURVE",
"378 532 OFFCURVE",
"378 466 CURVE SMOOTH",
"378 385 OFFCURVE",
"438 331 OFFCURVE",
"513 297 CURVE",
"545 354 LINE",
"516 374 OFFCURVE",
"498 400 OFFCURVE",
"498 430 CURVE SMOOTH",
"498 453 OFFCURVE",
"513 472 OFFCURVE",
"532 472 CURVE SMOOTH",
"551 472 OFFCURVE",
"563 449 OFFCURVE",
"563 399 CURVE SMOOTH",
"563 242 OFFCURVE",
"449 96 OFFCURVE",
"317 96 CURVE SMOOTH",
"265 96 OFFCURVE",
"237 117 OFFCURVE",
"237 153 CURVE SMOOTH",
"237 231 OFFCURVE",
"357 305 OFFCURVE",
"357 416 CURVE SMOOTH",
"357 520 OFFCURVE",
"288 634 OFFCURVE",
"195 634 CURVE SMOOTH",
"131 634 OFFCURVE",
"92 587 OFFCURVE",
"92 531 CURVE SMOOTH",
"92 476 OFFCURVE",
"126 422 OFFCURVE",
"175 383 CURVE",
"218 423 LINE",
"204 441 OFFCURVE",
"197 458 OFFCURVE",
"197 479 CURVE SMOOTH",
"197 502 OFFCURVE",
"214 524 OFFCURVE",
"236 524 CURVE SMOOTH",
"252 524 OFFCURVE",
"261 512 OFFCURVE",
"261 489 CURVE SMOOTH",
"261 408 OFFCURVE",
"132 331 OFFCURVE",
"132 224 CURVE SMOOTH",
"132 108 OFFCURVE",
"257 -9 OFFCURVE",
"389 -9 CURVE SMOOTH"
);
}
);
width = 696;
}
);
note = "\012    uni1CEB\012  ";
unicode = 1CEB;
script = vedic;
category = Letter;
subCategory = Other;
userData = {
com.schriftgestaltung.Glyphs.ColorIndex = 1;
com.typemytype.robofont.layerData = {
"Light Feb 25 16, 17:15" = {
anchors = (
);
components = (
);
contours = (
{
points = (
{
segmentType = line;
smooth = 0;
x = 392;
y = 797;
},
{
smooth = 0;
x = 191;
y = 820;
},
{
smooth = 0;
x = 87;
y = 916;
},
{
segmentType = curve;
smooth = 1;
x = 87;
y = 1064;
},
{
smooth = 0;
x = 87;
y = 1203;
},
{
smooth = 0;
x = 195;
y = 1295;
},
{
segmentType = curve;
smooth = 1;
x = 358;
y = 1295;
},
{
smooth = 0;
x = 497;
y = 1295;
},
{
smooth = 0;
x = 597;
y = 1242;
},
{
segmentType = curve;
smooth = 1;
x = 646;
y = 1150;
},
{
smooth = 0;
x = 671;
y = 1104;
},
{
smooth = 0;
x = 683;
y = 1055;
},
{
segmentType = curve;
smooth = 1;
x = 683;
y = 1002;
},
{
smooth = 0;
x = 683;
y = 869;
},
{
smooth = 0;
x = 630;
y = 775;
},
{
segmentType = curve;
smooth = 1;
x = 498;
y = 650;
},
{
smooth = 0;
x = 401;
y = 558;
},
{
smooth = 0;
x = 369;
y = 498;
},
{
segmentType = curve;
smooth = 1;
x = 369;
y = 403;
},
{
smooth = 0;
x = 369;
y = 252;
},
{
smooth = 0;
x = 503;
y = 151;
},
{
segmentType = curve;
smooth = 1;
x = 754;
y = 151;
},
{
smooth = 0;
x = 1107;
y = 151;
},
{
smooth = 0;
x = 1288;
y = 335;
},
{
segmentType = curve;
smooth = 1;
x = 1288;
y = 672;
},
{
smooth = 0;
x = 1288;
y = 892;
},
{
smooth = 0;
x = 1200;
y = 1036;
},
{
segmentType = curve;
smooth = 1;
x = 1067;
y = 1036;
},
{
smooth = 0;
x = 986;
y = 1036;
},
{
smooth = 0;
x = 934;
y = 988;
},
{
segmentType = curve;
smooth = 1;
x = 934;
y = 912;
},
{
smooth = 0;
x = 934;
y = 825;
},
{
smooth = 0;
x = 1004;
y = 774;
},
{
segmentType = curve;
smooth = 1;
x = 1133;
y = 774;
},
{
smooth = 0;
x = 1163;
y = 774;
},
{
smooth = 0;
x = 1187;
y = 777;
},
{
segmentType = curve;
smooth = 0;
x = 1206;
y = 783;
},
{
segmentType = line;
smooth = 0;
x = 1231;
y = 645;
},
{
smooth = 0;
x = 1200;
y = 636;
},
{
smooth = 0;
x = 1163;
y = 632;
},
{
segmentType = curve;
smooth = 1;
x = 1121;
y = 632;
},
{
smooth = 0;
x = 916;
y = 632;
},
{
smooth = 0;
x = 789;
y = 745;
},
{
segmentType = curve;
smooth = 1;
x = 789;
y = 914;
},
{
smooth = 0;
x = 789;
y = 1075;
},
{
smooth = 0;
x = 893;
y = 1176;
},
{
segmentType = curve;
smooth = 1;
x = 1062;
y = 1176;
},
{
smooth = 0;
x = 1298;
y = 1176;
},
{
smooth = 0;
x = 1453;
y = 979;
},
{
segmentType = curve;
smooth = 1;
x = 1453;
y = 664;
},
{
smooth = 0;
x = 1453;
y = 243;
},
{
smooth = 0;
x = 1204;
y = 0;
},
{
segmentType = curve;
smooth = 1;
x = 764;
y = 0;
},
{
smooth = 0;
x = 405;
y = 0;
},
{
smooth = 0;
x = 204;
y = 155;
},
{
segmentType = curve;
smooth = 1;
x = 204;
y = 407;
},
{
smooth = 0;
x = 204;
y = 491;
},
{
smooth = 0;
x = 224;
y = 555;
},
{
segmentType = curve;
smooth = 1;
x = 269;
y = 624;
},
{
smooth = 0;
x = 291;
y = 659;
},
{
smooth = 0;
x = 333;
y = 706;
},
{
segmentType = curve;
smooth = 1;
x = 396;
y = 767;
},
{
smooth = 0;
x = 496;
y = 864;
},
{
smooth = 0;
x = 523;
y = 924;
},
{
segmentType = curve;
smooth = 1;
x = 523;
y = 1009;
},
{
smooth = 0;
x = 523;
y = 1097;
},
{
smooth = 0;
x = 454;
y = 1164;
},
{
segmentType = curve;
smooth = 1;
x = 363;
y = 1164;
},
{
smooth = 0;
x = 283;
y = 1164;
},
{
smooth = 0;
x = 239;
y = 1126;
},
{
segmentType = curve;
smooth = 1;
x = 239;
y = 1061;
},
{
smooth = 0;
x = 239;
y = 988;
},
{
smooth = 0;
x = 297;
y = 946;
},
{
segmentType = curve;
smooth = 0;
x = 412;
y = 937;
}
);
}
);
lib = {
};
name = uni1CEB;
unicodes = (
);
width = 1538;
};
background = {
anchors = (
);
components = (
);
contours = (
{
points = (
{
smooth = 0;
x = 349;
y = 194;
},
{
smooth = 0;
x = 368;
y = 213;
},
{
segmentType = curve;
smooth = 1;
x = 368;
y = 237;
},
{
smooth = 0;
x = 368;
y = 261;
},
{
smooth = 0;
x = 349;
y = 280;
},
{
segmentType = curve;
smooth = 1;
x = 325;
y = 280;
},
{
smooth = 0;
x = 301;
y = 280;
},
{
smooth = 0;
x = 282;
y = 261;
},
{
segmentType = curve;
smooth = 1;
x = 282;
y = 237;
},
{
smooth = 0;
x = 282;
y = 213;
},
{
smooth = 0;
x = 301;
y = 194;
},
{
segmentType = curve;
smooth = 1;
x = 325;
y = 194;
}
);
},
{
points = (
{
smooth = 0;
x = 238;
y = 1043;
},
{
smooth = 0;
x = 278;
y = 1083;
},
{
segmentType = curve;
smooth = 1;
x = 278;
y = 1133;
},
{
smooth = 0;
x = 278;
y = 1182;
},
{
smooth = 0;
x = 238;
y = 1222;
},
{
segmentType = curve;
smooth = 1;
x = 189;
y = 1222;
},
{
smooth = 0;
x = 139;
y = 1222;
},
{
smooth = 0;
x = 99;
y = 1182;
},
{
segmentType = curve;
smooth = 1;
x = 99;
y = 1133;
},
{
smooth = 0;
x = 99;
y = 1083;
},
{
smooth = 0;
x = 139;
y = 1043;
},
{
segmentType = curve;
smooth = 1;
x = 189;
y = 1043;
}
);
},
{
points = (
{
smooth = 0;
x = 1261;
y = 139;
},
{
smooth = 0;
x = 1301;
y = 179;
},
{
segmentType = curve;
smooth = 1;
x = 1301;
y = 229;
},
{
smooth = 0;
x = 1301;
y = 278;
},
{
smooth = 0;
x = 1261;
y = 318;
},
{
segmentType = curve;
smooth = 1;
x = 1212;
y = 318;
},
{
smooth = 0;
x = 1162;
y = 318;
},
{
smooth = 0;
x = 1122;
y = 278;
},
{
segmentType = curve;
smooth = 1;
x = 1122;
y = 229;
},
{
smooth = 0;
x = 1122;
y = 179;
},
{
smooth = 0;
x = 1162;
y = 139;
},
{
segmentType = curve;
smooth = 1;
x = 1212;
y = 139;
}
);
},
{
points = (
{
smooth = 0;
x = 988;
y = 949;
},
{
smooth = 0;
x = 1028;
y = 989;
},
{
segmentType = curve;
smooth = 1;
x = 1028;
y = 1039;
},
{
smooth = 0;
x = 1028;
y = 1088;
},
{
smooth = 0;
x = 988;
y = 1128;
},
{
segmentType = curve;
smooth = 1;
x = 939;
y = 1128;
},
{
smooth = 0;
x = 889;
y = 1128;
},
{
smooth = 0;
x = 849;
y = 1088;
},
{
segmentType = curve;
smooth = 1;
x = 849;
y = 1039;
},
{
smooth = 0;
x = 849;
y = 989;
},
{
smooth = 0;
x = 889;
y = 949;
},
{
segmentType = curve;
smooth = 1;
x = 939;
y = 949;
}
);
},
{
points = (
{
smooth = 0;
x = 1322;
y = 978;
},
{
smooth = 0;
x = 1341;
y = 997;
},
{
segmentType = curve;
smooth = 1;
x = 1341;
y = 1021;
},
{
smooth = 0;
x = 1341;
y = 1045;
},
{
smooth = 0;
x = 1322;
y = 1064;
},
{
segmentType = curve;
smooth = 1;
x = 1298;
y = 1064;
},
{
smooth = 0;
x = 1274;
y = 1064;
},
{
smooth = 0;
x = 1255;
y = 1045;
},
{
segmentType = curve;
smooth = 1;
x = 1255;
y = 1021;
},
{
smooth = 0;
x = 1255;
y = 997;
},
{
smooth = 0;
x = 1274;
y = 978;
},
{
segmentType = curve;
smooth = 1;
x = 1298;
y = 978;
}
);
},
{
points = (
{
smooth = 0;
x = 474;
y = 569;
},
{
smooth = 0;
x = 514;
y = 609;
},
{
segmentType = curve;
smooth = 1;
x = 514;
y = 659;
},
{
smooth = 0;
x = 514;
y = 708;
},
{
smooth = 0;
x = 474;
y = 748;
},
{
segmentType = curve;
smooth = 1;
x = 425;
y = 748;
},
{
smooth = 0;
x = 375;
y = 748;
},
{
smooth = 0;
x = 335;
y = 708;
},
{
segmentType = curve;
smooth = 1;
x = 335;
y = 659;
},
{
smooth = 0;
x = 335;
y = 609;
},
{
smooth = 0;
x = 375;
y = 569;
},
{
segmentType = curve;
smooth = 1;
x = 425;
y = 569;
}
);
},
{
points = (
{
smooth = 0;
x = 561;
y = 1100;
},
{
smooth = 0;
x = 580;
y = 1119;
},
{
segmentType = curve;
smooth = 1;
x = 580;
y = 1143;
},
{
smooth = 0;
x = 580;
y = 1167;
},
{
smooth = 0;
x = 561;
y = 1186;
},
{
segmentType = curve;
smooth = 1;
x = 537;
y = 1186;
},
{
smooth = 0;
x = 513;
y = 1186;
},
{
smooth = 0;
x = 494;
y = 1167;
},
{
segmentType = curve;
smooth = 1;
x = 494;
y = 1143;
},
{
smooth = 0;
x = 494;
y = 1119;
},
{
smooth = 0;
x = 513;
y = 1100;
},
{
segmentType = curve;
smooth = 1;
x = 537;
y = 1100;
}
);
},
{
points = (
{
smooth = 0;
x = 1203;
y = 619;
},
{
smooth = 0;
x = 1222;
y = 638;
},
{
segmentType = curve;
smooth = 1;
x = 1222;
y = 662;
},
{
smooth = 0;
x = 1222;
y = 686;
},
{
smooth = 0;
x = 1203;
y = 705;
},
{
segmentType = curve;
smooth = 1;
x = 1179;
y = 705;
},
{
smooth = 0;
x = 1155;
y = 705;
},
{
smooth = 0;
x = 1136;
y = 686;
},
{
segmentType = curve;
smooth = 1;
x = 1136;
y = 662;
},
{
smooth = 0;
x = 1136;
y = 638;
},
{
smooth = 0;
x = 1155;
y = 619;
},
{
segmentType = curve;
smooth = 1;
x = 1179;
y = 619;
}
);
},
{
points = (
{
smooth = 0;
x = 325;
y = 780;
},
{
smooth = 0;
x = 344;
y = 799;
},
{
segmentType = curve;
smooth = 1;
x = 344;
y = 823;
},
{
smooth = 0;
x = 344;
y = 847;
},
{
smooth = 0;
x = 325;
y = 866;
},
{
segmentType = curve;
smooth = 1;
x = 301;
y = 866;
},
{
smooth = 0;
x = 277;
y = 866;
},
{
smooth = 0;
x = 258;
y = 847;
},
{
segmentType = curve;
smooth = 1;
x = 258;
y = 823;
},
{
smooth = 0;
x = 258;
y = 799;
},
{
smooth = 0;
x = 277;
y = 780;
},
{
segmentType = curve;
smooth = 1;
x = 301;
y = 780;
}
);
}
);
lib = {
};
name = uni1CEB;
unicodes = (
);
width = 1538;
};
};
};
}
{
glyphname = "anusvaraVamagomukhaTail-vedic";
production = uni1CEC;
layers = (
{
anchors = (
{
name = bottom_right;
position = "{451, -6}";
},
{
name = candra;
position = "{451, 623}";
},
{
name = top;
position = "{451, 623}";
}
);
layerId = "E22305A4-B0AF-4429-B69B-D5D74FEEE350";
paths = (
{
closed = 1;
nodes = (
"592 -5 OFFCURVE",
"721 144 OFFCURVE",
"721 350 CURVE SMOOTH",
"721 484 OFFCURVE",
"650 573 OFFCURVE",
"545 573 CURVE SMOOTH",
"480 573 OFFCURVE",
"430 528 OFFCURVE",
"430 460 CURVE SMOOTH",
"430 363 OFFCURVE",
"529 307 OFFCURVE",
"651 266 CURVE SMOOTH",
"729 240 OFFCURVE",
"775 217 OFFCURVE",
"775 150 CURVE SMOOTH",
"775 115 OFFCURVE",
"750 76 OFFCURVE",
"709 54 CURVE",
"783 -5 LINE",
"821 21 OFFCURVE",
"850 70 OFFCURVE",
"850 125 CURVE SMOOTH",
"850 211 OFFCURVE",
"787 262 OFFCURVE",
"664 306 CURVE SMOOTH",
"583 335 OFFCURVE",
"510 363 OFFCURVE",
"510 426 CURVE SMOOTH",
"510 476 OFFCURVE",
"552 507 OFFCURVE",
"592 507 CURVE SMOOTH",
"630 507 OFFCURVE",
"657 481 OFFCURVE",
"657 400 CURVE SMOOTH",
"657 209 OFFCURVE",
"530 63 OFFCURVE",
"367 63 CURVE SMOOTH",
"267 63 OFFCURVE",
"206 104 OFFCURVE",
"206 168 CURVE SMOOTH",
"206 273 OFFCURVE",
"373 321 OFFCURVE",
"373 458 CURVE SMOOTH",
"373 539 OFFCURVE",
"281 629 OFFCURVE",
"204 629 CURVE SMOOTH",
"122 629 OFFCURVE",
"78 580 OFFCURVE",
"78 523 CURVE SMOOTH",
"78 473 OFFCURVE",
"113 416 OFFCURVE",
"187 381 CURVE",
"206 412 LINE",
"169 432 OFFCURVE",
"154 458 OFFCURVE",
"154 484 CURVE SMOOTH",
"154 524 OFFCURVE",
"192 561 OFFCURVE",
"246 561 CURVE SMOOTH",
"282 561 OFFCURVE",
"302 541 OFFCURVE",
"302 504 CURVE SMOOTH",
"302 360 OFFCURVE",
"137 353 OFFCURVE",
"137 216 CURVE SMOOTH",
"137 98 OFFCURVE",
"256 -5 OFFCURVE",
"410 -5 CURVE SMOOTH"
);
}
);
width = 801;
},
{
anchors = (
{
name = bottom_right;
position = "{388, -6}";
},
{
name = candra;
position = "{388, 622}";
},
{
name = top;
position = "{388, 622}";
}
);
layerId = "92BDF110-6149-41B0-AB08-5310EECFA1B7";
paths = (
{
closed = 1;
nodes = (
"532 -5 OFFCURVE",
"667 159 OFFCURVE",
"667 374 CURVE SMOOTH",
"667 501 OFFCURVE",
"616 573 OFFCURVE",
"533 573 CURVE SMOOTH",
"469 573 OFFCURVE",
"414 518 OFFCURVE",
"414 453 CURVE SMOOTH",
"414 360 OFFCURVE",
"502 315 OFFCURVE",
"625 271 CURVE SMOOTH",
"731 233 OFFCURVE",
"767 200 OFFCURVE",
"767 141 CURVE SMOOTH",
"767 95 OFFCURVE",
"741 64 OFFCURVE",
"701 32 CURVE",
"724 13 LINE",
"765 47 OFFCURVE",
"794 86 OFFCURVE",
"794 136 CURVE SMOOTH",
"794 208 OFFCURVE",
"749 251 OFFCURVE",
"634 292 CURVE SMOOTH",
"519 333 OFFCURVE",
"441 370 OFFCURVE",
"441 448 CURVE SMOOTH",
"441 504 OFFCURVE",
"484 548 OFFCURVE",
"539 548 CURVE SMOOTH",
"607 548 OFFCURVE",
"642 492 OFFCURVE",
"642 378 CURVE SMOOTH",
"642 175 OFFCURVE",
"517 21 OFFCURVE",
"339 21 CURVE SMOOTH",
"219 21 OFFCURVE",
"144 87 OFFCURVE",
"144 172 CURVE SMOOTH",
"144 309 OFFCURVE",
"320 344 OFFCURVE",
"320 497 CURVE SMOOTH",
"320 568 OFFCURVE",
"274 628 OFFCURVE",
"187 628 CURVE SMOOTH",
"112 628 OFFCURVE",
"59 579 OFFCURVE",
"59 519 CURVE SMOOTH",
"59 461 OFFCURVE",
"98 422 OFFCURVE",
"149 394 CURVE",
"160 411 LINE",
"117 436 OFFCURVE",
"85 466 OFFCURVE",
"85 514 CURVE SMOOTH",
"85 566 OFFCURVE",
"126 603 OFFCURVE",
"193 603 CURVE SMOOTH",
"265 603 OFFCURVE",
"295 559 OFFCURVE",
"295 501 CURVE SMOOTH",
"295 360 OFFCURVE",
"117 324 OFFCURVE",
"117 177 CURVE SMOOTH",
"117 78 OFFCURVE",
"207 -5 OFFCURVE",
"345 -5 CURVE SMOOTH"
);
}
);
width = 735;
},
{
anchors = (
{
name = bottom_right;
position = "{509, -6}";
},
{
name = candra;
position = "{509, 626}";
},
{
name = top;
position = "{509, 626}";
}
);
layerId = "26889610-2B6B-400B-B1BB-1A42565FFDAF";
paths = (
{
closed = 1;
nodes = (
"650 -8 OFFCURVE",
"776 140 OFFCURVE",
"776 335 CURVE SMOOTH",
"776 466 OFFCURVE",
"711 578 OFFCURVE",
"593 578 CURVE SMOOTH",
"516 578 OFFCURVE",
"460 524 OFFCURVE",
"460 451 CURVE SMOOTH",
"460 360 OFFCURVE",
"567 306 OFFCURVE",
"708 251 CURVE SMOOTH",
"777 225 OFFCURVE",
"804 197 OFFCURVE",
"804 152 CURVE SMOOTH",
"804 111 OFFCURVE",
"778 81 OFFCURVE",
"737 54 CURVE",
"844 -33 LINE",
"889 10 OFFCURVE",
"918 52 OFFCURVE",
"918 109 CURVE SMOOTH",
"918 195 OFFCURVE",
"865 253 OFFCURVE",
"726 307 CURVE SMOOTH",
"627 345 OFFCURVE",
"575 369 OFFCURVE",
"575 417 CURVE SMOOTH",
"575 452 OFFCURVE",
"605 482 OFFCURVE",
"637 482 CURVE SMOOTH",
"667 482 OFFCURVE",
"684 459 OFFCURVE",
"684 409 CURVE SMOOTH",
"684 232 OFFCURVE",
"552 86 OFFCURVE",
"383 86 CURVE SMOOTH",
"300 86 OFFCURVE",
"252 119 OFFCURVE",
"252 171 CURVE SMOOTH",
"252 264 OFFCURVE",
"406 310 OFFCURVE",
"406 446 CURVE SMOOTH",
"406 534 OFFCURVE",
"324 633 OFFCURVE",
"224 633 CURVE SMOOTH",
"149 633 OFFCURVE",
"97 583 OFFCURVE",
"97 522 CURVE SMOOTH",
"97 459 OFFCURVE",
"138 410 OFFCURVE",
"210 375 CURVE",
"237 421 LINE",
"210 437 OFFCURVE",
"195 454 OFFCURVE",
"195 475 CURVE SMOOTH",
"195 509 OFFCURVE",
"229 537 OFFCURVE",
"273 537 CURVE SMOOTH",
"305 537 OFFCURVE",
"320 520 OFFCURVE",
"320 492 CURVE SMOOTH",
"320 401 OFFCURVE",
"154 342 OFFCURVE",
"154 224 CURVE SMOOTH",
"154 97 OFFCURVE",
"284 -8 OFFCURVE",
"445 -8 CURVE SMOOTH"
);
}
);
width = 859;
},
{
anchors = (
{
name = bottom_right;
position = "{557, -6}";
},
{
name = candra;
position = "{557, 627}";
},
{
name = top;
position = "{557, 627}";
}
);
layerId = "3E60C6C7-DFFD-4AAE-9DD7-DF994DEB26A2";
paths = (
{
closed = 1;
nodes = (
"695 -10 OFFCURVE",
"820 134 OFFCURVE",
"820 321 CURVE SMOOTH",
"820 454 OFFCURVE",
"752 579 OFFCURVE",
"620 579 CURVE SMOOTH",
"538 579 OFFCURVE",
"480 525 OFFCURVE",
"480 449 CURVE SMOOTH",
"480 358 OFFCURVE",
"595 303 OFFCURVE",
"745 243 CURVE SMOOTH",
"804 219 OFFCURVE",
"824 192 OFFCURVE",
"824 156 CURVE SMOOTH",
"824 115 OFFCURVE",
"798 87 OFFCURVE",
"756 61 CURVE",
"892 -50 LINE",
"939 -2 OFFCURVE",
"968 39 OFFCURVE",
"968 99 CURVE SMOOTH",
"968 190 OFFCURVE",
"915 252 OFFCURVE",
"765 311 CURVE SMOOTH",
"668 349 OFFCURVE",
"625 368 OFFCURVE",
"625 406 CURVE SMOOTH",
"625 434 OFFCURVE",
"651 460 OFFCURVE",
"676 460 CURVE SMOOTH",
"694 460 OFFCURVE",
"704 446 OFFCURVE",
"704 418 CURVE SMOOTH",
"704 252 OFFCURVE",
"569 108 OFFCURVE",
"400 108 CURVE SMOOTH",
"329 108 OFFCURVE",
"290 130 OFFCURVE",
"290 172 CURVE SMOOTH",
"290 251 OFFCURVE",
"437 299 OFFCURVE",
"437 431 CURVE SMOOTH",
"437 524 OFFCURVE",
"346 635 OFFCURVE",
"239 635 CURVE SMOOTH",
"165 635 OFFCURVE",
"111 584 OFFCURVE",
"111 522 CURVE SMOOTH",
"111 455 OFFCURVE",
"153 405 OFFCURVE",
"232 368 CURVE",
"264 426 LINE",
"242 438 OFFCURVE",
"232 449 OFFCURVE",
"232 463 CURVE SMOOTH",
"232 491 OFFCURVE",
"265 515 OFFCURVE",
"301 515 CURVE SMOOTH",
"322 515 OFFCURVE",
"332 506 OFFCURVE",
"332 487 CURVE SMOOTH",
"332 419 OFFCURVE",
"168 345 OFFCURVE",
"168 238 CURVE SMOOTH",
"168 102 OFFCURVE",
"310 -10 OFFCURVE",
"481 -10 CURVE SMOOTH"
);
}
);
width = 907;
},
{
anchors = (
{
name = bottom_right;
position = "{301, -6}";
},
{
name = candra;
position = "{301, 622}";
},
{
name = top;
position = "{301, 622}";
}
);
layerId = "B188D42B-E0C1-4C36-A461-FECF08FB9142";
paths = (
{
closed = 1;
nodes = (
"403 -5 OFFCURVE",
"509 154 OFFCURVE",
"509 365 CURVE SMOOTH",
"509 503 OFFCURVE",
"470 573 OFFCURVE",
"400 573 CURVE SMOOTH",
"351 573 OFFCURVE",
"314 534 OFFCURVE",
"314 481 CURVE SMOOTH",
"314 400 OFFCURVE",
"380 340 OFFCURVE",
"469 282 CURVE SMOOTH",
"548 231 OFFCURVE",
"577 198 OFFCURVE",
"577 142 CURVE SMOOTH",
"577 100 OFFCURVE",
"558 66 OFFCURVE",
"533 34 CURVE",
"561 15 LINE",
"586 50 OFFCURVE",
"605 86 OFFCURVE",
"605 136 CURVE SMOOTH",
"605 205 OFFCURVE",
"567 247 OFFCURVE",
"480 304 CURVE SMOOTH",
"397 359 OFFCURVE",
"341 406 OFFCURVE",
"341 477 CURVE SMOOTH",
"341 519 OFFCURVE",
"369 548 OFFCURVE",
"406 548 CURVE SMOOTH",
"460 548 OFFCURVE",
"484 494 OFFCURVE",
"484 370 CURVE SMOOTH",
"484 171 OFFCURVE",
"386 21 OFFCURVE",
"257 21 CURVE SMOOTH",
"172 21 OFFCURVE",
"118 70 OFFCURVE",
"118 146 CURVE SMOOTH",
"118 261 OFFCURVE",
"248 366 OFFCURVE",
"248 506 CURVE SMOOTH",
"248 572 OFFCURVE",
"207 628 OFFCURVE",
"145 628 CURVE SMOOTH",
"87 628 OFFCURVE",
"47 582 OFFCURVE",
"47 525 CURVE SMOOTH",
"47 472 OFFCURVE",
"75 432 OFFCURVE",
"111 396 CURVE",
"126 411 LINE",
"95 443 OFFCURVE",
"74 475 OFFCURVE",
"74 520 CURVE SMOOTH",
"74 569 OFFCURVE",
"104 603 OFFCURVE",
"151 603 CURVE SMOOTH",
"201 603 OFFCURVE",
"223 563 OFFCURVE",
"223 511 CURVE SMOOTH",
"223 382 OFFCURVE",
"91 278 OFFCURVE",
"91 150 CURVE SMOOTH",
"91 60 OFFCURVE",
"162 -5 OFFCURVE",
"263 -5 CURVE SMOOTH"
);
}
);
width = 563;
},
{
anchors = (
{
name = bottom_right;
position = "{371, -6}";
},
{
name = candra;
position = "{371, 623}";
},
{
name = top;
position = "{371, 623}";
}
);
layerId = "1C76EA3D-1F01-478B-AF6D-23469B2400A3";
paths = (
{
closed = 1;
nodes = (
"482 -5 OFFCURVE",
"586 143 OFFCURVE",
"586 333 CURVE SMOOTH",
"586 478 OFFCURVE",
"531 573 OFFCURVE",
"447 573 CURVE SMOOTH",
"389 573 OFFCURVE",
"351 530 OFFCURVE",
"351 475 CURVE SMOOTH",
"351 384 OFFCURVE",
"438 316 OFFCURVE",
"530 266 CURVE SMOOTH",
"605 225 OFFCURVE",
"623 202 OFFCURVE",
"623 159 CURVE SMOOTH",
"623 125 OFFCURVE",
"600 85 OFFCURVE",
"572 52 CURVE",
"644 4 LINE",
"673 42 OFFCURVE",
"690 78 OFFCURVE",
"690 129 CURVE SMOOTH",
"690 202 OFFCURVE",
"645 248 OFFCURVE",
"548 303 CURVE SMOOTH",
"472 346 OFFCURVE",
"419 396 OFFCURVE",
"419 451 CURVE SMOOTH",
"419 488 OFFCURVE",
"440 511 OFFCURVE",
"469 511 CURVE SMOOTH",
"504 511 OFFCURVE",
"530 477 OFFCURVE",
"530 379 CURVE SMOOTH",
"530 203 OFFCURVE",
"425 59 OFFCURVE",
"291 59 CURVE SMOOTH",
"214 59 OFFCURVE",
"178 93 OFFCURVE",
"178 145 CURVE SMOOTH",
"178 250 OFFCURVE",
"309 330 OFFCURVE",
"309 456 CURVE SMOOTH",
"309 539 OFFCURVE",
"246 629 OFFCURVE",
"169 629 CURVE SMOOTH",
"110 629 OFFCURVE",
"66 585 OFFCURVE",
"66 529 CURVE SMOOTH",
"66 476 OFFCURVE",
"98 428 OFFCURVE",
"147 384 CURVE",
"174 408 LINE",
"145 438 OFFCURVE",
"130 465 OFFCURVE",
"130 497 CURVE SMOOTH",
"130 537 OFFCURVE",
"159 564 OFFCURVE",
"196 564 CURVE SMOOTH",
"229 564 OFFCURVE",
"244 542 OFFCURVE",
"244 504 CURVE SMOOTH",
"244 372 OFFCURVE",
"107 310 OFFCURVE",
"107 183 CURVE SMOOTH",
"107 85 OFFCURVE",
"205 -5 OFFCURVE",
"329 -5 CURVE SMOOTH"
);
}
);
width = 648;
},
{
anchors = (
{
name = bottom_right;
position = "{419, -6}";
},
{
name = candra;
position = "{419, 625}";
},
{
name = top;
position = "{419, 625}";
}
);
layerId = "48B0D659-D2E4-4014-AFB5-7353283B7180";
paths = (
{
closed = 1;
nodes = (
"529 -7 OFFCURVE",
"629 139 OFFCURVE",
"629 332 CURVE SMOOTH",
"629 469 OFFCURVE",
"573 576 OFFCURVE",
"476 576 CURVE SMOOTH",
"413 576 OFFCURVE",
"371 532 OFFCURVE",
"371 470 CURVE SMOOTH",
"371 385 OFFCURVE",
"456 320 OFFCURVE",
"558 263 CURVE SMOOTH",
"617 231 OFFCURVE",
"642 206 OFFCURVE",
"642 155 CURVE SMOOTH",
"642 124 OFFCURVE",
"623 86 OFFCURVE",
"591 54 CURVE",
"692 -16 LINE",
"723 21 OFFCURVE",
"742 64 OFFCURVE",
"742 112 CURVE SMOOTH",
"742 191 OFFCURVE",
"693 246 OFFCURVE",
"585 307 CURVE SMOOTH",
"509 351 OFFCURVE",
"470 393 OFFCURVE",
"470 439 CURVE SMOOTH",
"470 468 OFFCURVE",
"487 488 OFFCURVE",
"508 488 CURVE SMOOTH",
"531 488 OFFCURVE",
"547 465 OFFCURVE",
"547 401 CURVE SMOOTH",
"547 225 OFFCURVE",
"441 80 OFFCURVE",
"308 80 CURVE SMOOTH",
"246 80 OFFCURVE",
"214 107 OFFCURVE",
"214 152 CURVE SMOOTH",
"214 241 OFFCURVE",
"341 315 OFFCURVE",
"341 433 CURVE SMOOTH",
"341 528 OFFCURVE",
"272 632 OFFCURVE",
"186 632 CURVE SMOOTH",
"122 632 OFFCURVE",
"82 586 OFFCURVE",
"82 530 CURVE SMOOTH",
"82 476 OFFCURVE",
"115 424 OFFCURVE",
"166 384 CURVE",
"201 417 LINE",
"181 439 OFFCURVE",
"170 461 OFFCURVE",
"170 485 CURVE SMOOTH",
"170 516 OFFCURVE",
"193 541 OFFCURVE",
"222 541 CURVE SMOOTH",
"245 541 OFFCURVE",
"257 524 OFFCURVE",
"257 496 CURVE SMOOTH",
"257 392 OFFCURVE",
"123 326 OFFCURVE",
"123 209 CURVE SMOOTH",
"123 100 OFFCURVE",
"237 -7 OFFCURVE",
"366 -7 CURVE SMOOTH"
);
}
);
width = 697;
},
{
anchors = (
{
name = bottom_right;
position = "{445, -6}";
},
{
name = candra;
position = "{445, 627}";
},
{
name = top;
position = "{445, 627}";
}
);
layerId = "E10056C4-06A7-4834-9783-123B62B78F3D";
paths = (
{
closed = 1;
nodes = (
"552 -9 OFFCURVE",
"647 137 OFFCURVE",
"647 328 CURVE SMOOTH",
"647 461 OFFCURVE",
"592 578 OFFCURVE",
"487 578 CURVE SMOOTH",
"422 578 OFFCURVE",
"378 533 OFFCURVE",
"378 469 CURVE SMOOTH",
"378 387 OFFCURVE",
"461 324 OFFCURVE",
"567 261 CURVE SMOOTH",
"615 232 OFFCURVE",
"640 207 OFFCURVE",
"640 154 CURVE SMOOTH",
"640 125 OFFCURVE",
"623 88 OFFCURVE",
"591 55 CURVE",
"713 -29 LINE",
"745 9 OFFCURVE",
"764 54 OFFCURVE",
"764 101 CURVE SMOOTH",
"764 182 OFFCURVE",
"714 243 OFFCURVE",
"601 310 CURVE SMOOTH",
"525 356 OFFCURVE",
"498 394 OFFCURVE",
"498 433 CURVE SMOOTH",
"498 454 OFFCURVE",
"509 472 OFFCURVE",
"524 472 CURVE SMOOTH",
"538 472 OFFCURVE",
"547 455 OFFCURVE",
"547 413 CURVE SMOOTH",
"547 241 OFFCURVE",
"442 96 OFFCURVE",
"313 96 CURVE SMOOTH",
"263 96 OFFCURVE",
"237 117 OFFCURVE",
"237 153 CURVE SMOOTH",
"237 231 OFFCURVE",
"357 305 OFFCURVE",
"357 416 CURVE SMOOTH",
"357 520 OFFCURVE",
"288 634 OFFCURVE",
"195 634 CURVE SMOOTH",
"131 634 OFFCURVE",
"92 587 OFFCURVE",
"92 531 CURVE SMOOTH",
"92 476 OFFCURVE",
"126 422 OFFCURVE",
"175 383 CURVE",
"218 423 LINE",
"204 441 OFFCURVE",
"197 458 OFFCURVE",
"197 479 CURVE SMOOTH",
"197 502 OFFCURVE",
"214 524 OFFCURVE",
"236 524 CURVE SMOOTH",
"252 524 OFFCURVE",
"261 512 OFFCURVE",
"261 489 CURVE SMOOTH",
"261 408 OFFCURVE",
"132 331 OFFCURVE",
"132 224 CURVE SMOOTH",
"132 108 OFFCURVE",
"255 -9 OFFCURVE",
"385 -9 CURVE SMOOTH"
);
}
);
width = 717;
}
);
note = "\012    uni1CEC\012  ";
unicode = 1CEC;
script = vedic;
category = Letter;
subCategory = Other;
userData = {
com.schriftgestaltung.Glyphs.ColorIndex = 1;
com.typemytype.robofont.layerData = {
"Light Feb 25 16, 17:34" = {
anchors = (
);
components = (
);
contours = (
{
points = (
{
segmentType = line;
smooth = 0;
x = 1368;
y = 107;
},
{
smooth = 0;
x = 1437;
y = 179;
},
{
smooth = 0;
x = 1480;
y = 269;
},
{
segmentType = curve;
smooth = 1;
x = 1480;
y = 352;
},
{
smooth = 0;
x = 1480;
y = 449;
},
{
smooth = 0;
x = 1443;
y = 498;
},
{
segmentType = curve;
smooth = 0;
x = 1355;
y = 531;
},
{
smooth = 0;
x = 1307;
y = 190;
},
{
smooth = 0;
x = 1087;
y = 0;
},
{
segmentType = curve;
smooth = 1;
x = 738;
y = 0;
},
{
smooth = 0;
x = 510;
y = 0;
},
{
smooth = 0;
x = 345;
y = 76;
},
{
segmentType = curve;
smooth = 1;
x = 265;
y = 199;
},
{
smooth = 0;
x = 224;
y = 260;
},
{
smooth = 0;
x = 204;
y = 330;
},
{
segmentType = curve;
smooth = 1;
x = 204;
y = 407;
},
{
smooth = 0;
x = 204;
y = 491;
},
{
smooth = 0;
x = 224;
y = 555;
},
{
segmentType = curve;
smooth = 1;
x = 269;
y = 624;
},
{
smooth = 0;
x = 291;
y = 659;
},
{
smooth = 0;
x = 333;
y = 706;
},
{
segmentType = curve;
smooth = 1;
x = 396;
y = 767;
},
{
smooth = 0;
x = 496;
y = 864;
},
{
smooth = 0;
x = 523;
y = 924;
},
{
segmentType = curve;
smooth = 1;
x = 523;
y = 1009;
},
{
smooth = 0;
x = 523;
y = 1097;
},
{
smooth = 0;
x = 454;
y = 1164;
},
{
segmentType = curve;
smooth = 1;
x = 363;
y = 1164;
},
{
smooth = 0;
x = 283;
y = 1164;
},
{
smooth = 0;
x = 239;
y = 1126;
},
{
segmentType = curve;
smooth = 1;
x = 239;
y = 1061;
},
{
smooth = 0;
x = 239;
y = 988;
},
{
smooth = 0;
x = 297;
y = 946;
},
{
segmentType = curve;
smooth = 0;
x = 412;
y = 937;
},
{
segmentType = line;
smooth = 0;
x = 392;
y = 797;
},
{
smooth = 0;
x = 191;
y = 820;
},
{
smooth = 0;
x = 87;
y = 916;
},
{
segmentType = curve;
smooth = 1;
x = 87;
y = 1064;
},
{
smooth = 0;
x = 87;
y = 1203;
},
{
smooth = 0;
x = 195;
y = 1295;
},
{
segmentType = curve;
smooth = 1;
x = 358;
y = 1295;
},
{
smooth = 0;
x = 494;
y = 1295;
},
{
smooth = 0;
x = 593;
y = 1244;
},
{
segmentType = curve;
smooth = 1;
x = 645;
y = 1151;
},
{
smooth = 0;
x = 670;
y = 1104;
},
{
smooth = 0;
x = 683;
y = 1054;
},
{
segmentType = curve;
smooth = 1;
x = 683;
y = 999;
},
{
smooth = 0;
x = 683;
y = 868;
},
{
smooth = 0;
x = 629;
y = 774;
},
{
segmentType = curve;
smooth = 1;
x = 498;
y = 650;
},
{
smooth = 0;
x = 401;
y = 558;
},
{
smooth = 0;
x = 369;
y = 498;
},
{
segmentType = curve;
smooth = 1;
x = 369;
y = 403;
},
{
smooth = 0;
x = 369;
y = 315;
},
{
smooth = 0;
x = 426;
y = 229;
},
{
segmentType = curve;
smooth = 1;
x = 535;
y = 185;
},
{
smooth = 0;
x = 589;
y = 162;
},
{
smooth = 0;
x = 653;
y = 151;
},
{
segmentType = curve;
smooth = 1;
x = 726;
y = 151;
},
{
smooth = 0;
x = 1002;
y = 151;
},
{
smooth = 0;
x = 1164;
y = 294;
},
{
segmentType = curve;
smooth = 0;
x = 1201;
y = 571;
},
{
smooth = 0;
x = 965;
y = 626;
},
{
smooth = 0;
x = 851;
y = 696;
},
{
segmentType = curve;
smooth = 1;
x = 803;
y = 781;
},
{
smooth = 0;
x = 778;
y = 823;
},
{
smooth = 0;
x = 766;
y = 872;
},
{
segmentType = curve;
smooth = 1;
x = 766;
y = 929;
},
{
smooth = 0;
x = 766;
y = 1077;
},
{
smooth = 0;
x = 872;
y = 1176;
},
{
segmentType = curve;
smooth = 1;
x = 1033;
y = 1176;
},
{
smooth = 0;
x = 1242;
y = 1176;
},
{
smooth = 0;
x = 1312;
y = 1021;
},
{
segmentType = curve;
smooth = 1;
x = 1341;
y = 897;
},
{
smooth = 0;
x = 1356;
y = 834;
},
{
smooth = 0;
x = 1364;
y = 761;
},
{
segmentType = curve;
smooth = 0;
x = 1365;
y = 678;
},
{
smooth = 0;
x = 1560;
y = 629;
},
{
smooth = 0;
x = 1645;
y = 526;
},
{
segmentType = curve;
smooth = 1;
x = 1645;
y = 365;
},
{
smooth = 0;
x = 1645;
y = 242;
},
{
smooth = 0;
x = 1599;
y = 121;
},
{
segmentType = curve;
smooth = 0;
x = 1516;
y = 22;
}
);
},
{
points = (
{
smooth = 0;
x = 1206;
y = 927;
},
{
smooth = 0;
x = 1148;
y = 1036;
},
{
segmentType = curve;
smooth = 1;
x = 1036;
y = 1036;
},
{
smooth = 0;
x = 971;
y = 1036;
},
{
smooth = 0;
x = 922;
y = 991;
},
{
segmentType = curve;
smooth = 1;
x = 922;
y = 926;
},
{
smooth = 0;
x = 922;
y = 811;
},
{
smooth = 0;
x = 1026;
y = 744;
},
{
segmentType = curve;
smooth = 0;
x = 1209;
y = 708;
}
);
}
);
lib = {
};
name = uni1CEC;
unicodes = (
);
width = 1696;
};
background = {
anchors = (
);
components = (
);
contours = (
{
points = (
{
smooth = 0;
x = 349;
y = 194;
},
{
smooth = 0;
x = 368;
y = 213;
},
{
segmentType = curve;
smooth = 1;
x = 368;
y = 237;
},
{
smooth = 0;
x = 368;
y = 261;
},
{
smooth = 0;
x = 349;
y = 280;
},
{
segmentType = curve;
smooth = 1;
x = 325;
y = 280;
},
{
smooth = 0;
x = 301;
y = 280;
},
{
smooth = 0;
x = 282;
y = 261;
},
{
segmentType = curve;
smooth = 1;
x = 282;
y = 237;
},
{
smooth = 0;
x = 282;
y = 213;
},
{
smooth = 0;
x = 301;
y = 194;
},
{
segmentType = curve;
smooth = 1;
x = 325;
y = 194;
}
);
},
{
points = (
{
smooth = 0;
x = 238;
y = 1043;
},
{
smooth = 0;
x = 278;
y = 1083;
},
{
segmentType = curve;
smooth = 1;
x = 278;
y = 1133;
},
{
smooth = 0;
x = 278;
y = 1182;
},
{
smooth = 0;
x = 238;
y = 1222;
},
{
segmentType = curve;
smooth = 1;
x = 189;
y = 1222;
},
{
smooth = 0;
x = 139;
y = 1222;
},
{
smooth = 0;
x = 99;
y = 1182;
},
{
segmentType = curve;
smooth = 1;
x = 99;
y = 1133;
},
{
smooth = 0;
x = 99;
y = 1083;
},
{
smooth = 0;
x = 139;
y = 1043;
},
{
segmentType = curve;
smooth = 1;
x = 189;
y = 1043;
}
);
},
{
points = (
{
smooth = 0;
x = 1195;
y = 139;
},
{
smooth = 0;
x = 1235;
y = 179;
},
{
segmentType = curve;
smooth = 1;
x = 1235;
y = 229;
},
{
smooth = 0;
x = 1235;
y = 278;
},
{
smooth = 0;
x = 1195;
y = 318;
},
{
segmentType = curve;
smooth = 1;
x = 1146;
y = 318;
},
{
smooth = 0;
x = 1096;
y = 318;
},
{
smooth = 0;
x = 1056;
y = 278;
},
{
segmentType = curve;
smooth = 1;
x = 1056;
y = 229;
},
{
smooth = 0;
x = 1056;
y = 179;
},
{
smooth = 0;
x = 1096;
y = 139;
},
{
segmentType = curve;
smooth = 1;
x = 1146;
y = 139;
}
);
},
{
points = (
{
smooth = 0;
x = 988;
y = 949;
},
{
smooth = 0;
x = 1028;
y = 989;
},
{
segmentType = curve;
smooth = 1;
x = 1028;
y = 1039;
},
{
smooth = 0;
x = 1028;
y = 1088;
},
{
smooth = 0;
x = 988;
y = 1128;
},
{
segmentType = curve;
smooth = 1;
x = 939;
y = 1128;
},
{
smooth = 0;
x = 889;
y = 1128;
},
{
smooth = 0;
x = 849;
y = 1088;
},
{
segmentType = curve;
smooth = 1;
x = 849;
y = 1039;
},
{
smooth = 0;
x = 849;
y = 989;
},
{
smooth = 0;
x = 889;
y = 949;
},
{
segmentType = curve;
smooth = 1;
x = 939;
y = 949;
}
);
},
{
points = (
{
smooth = 0;
x = 1295;
y = 969;
},
{
smooth = 0;
x = 1314;
y = 988;
},
{
segmentType = curve;
smooth = 1;
x = 1314;
y = 1012;
},
{
smooth = 0;
x = 1314;
y = 1036;
},
{
smooth = 0;
x = 1295;
y = 1055;
},
{
segmentType = curve;
smooth = 1;
x = 1271;
y = 1055;
},
{
smooth = 0;
x = 1247;
y = 1055;
},
{
smooth = 0;
x = 1228;
y = 1036;
},
{
segmentType = curve;
smooth = 1;
x = 1228;
y = 1012;
},
{
smooth = 0;
x = 1228;
y = 988;
},
{
smooth = 0;
x = 1247;
y = 969;
},
{
segmentType = curve;
smooth = 1;
x = 1271;
y = 969;
}
);
},
{
points = (
{
smooth = 0;
x = 474;
y = 569;
},
{
smooth = 0;
x = 514;
y = 609;
},
{
segmentType = curve;
smooth = 1;
x = 514;
y = 659;
},
{
smooth = 0;
x = 514;
y = 708;
},
{
smooth = 0;
x = 474;
y = 748;
},
{
segmentType = curve;
smooth = 1;
x = 425;
y = 748;
},
{
smooth = 0;
x = 375;
y = 748;
},
{
smooth = 0;
x = 335;
y = 708;
},
{
segmentType = curve;
smooth = 1;
x = 335;
y = 659;
},
{
smooth = 0;
x = 335;
y = 609;
},
{
smooth = 0;
x = 375;
y = 569;
},
{
segmentType = curve;
smooth = 1;
x = 425;
y = 569;
}
);
},
{
points = (
{
smooth = 0;
x = 561;
y = 1100;
},
{
smooth = 0;
x = 580;
y = 1119;
},
{
segmentType = curve;
smooth = 1;
x = 580;
y = 1143;
},
{
smooth = 0;
x = 580;
y = 1167;
},
{
smooth = 0;
x = 561;
y = 1186;
},
{
segmentType = curve;
smooth = 1;
x = 537;
y = 1186;
},
{
smooth = 0;
x = 513;
y = 1186;
},
{
smooth = 0;
x = 494;
y = 1167;
},
{
segmentType = curve;
smooth = 1;
x = 494;
y = 1143;
},
{
smooth = 0;
x = 494;
y = 1119;
},
{
smooth = 0;
x = 513;
y = 1100;
},
{
segmentType = curve;
smooth = 1;
x = 537;
y = 1100;
}
);
},
{
points = (
{
smooth = 0;
x = 1245;
y = 559;
},
{
smooth = 0;
x = 1264;
y = 578;
},
{
segmentType = curve;
smooth = 1;
x = 1264;
y = 602;
},
{
smooth = 0;
x = 1264;
y = 626;
},
{
smooth = 0;
x = 1245;
y = 645;
},
{
segmentType = curve;
smooth = 1;
x = 1221;
y = 645;
},
{
smooth = 0;
x = 1197;
y = 645;
},
{
smooth = 0;
x = 1178;
y = 626;
},
{
segmentType = curve;
smooth = 1;
x = 1178;
y = 602;
},
{
smooth = 0;
x = 1178;
y = 578;
},
{
smooth = 0;
x = 1197;
y = 559;
},
{
segmentType = curve;
smooth = 1;
x = 1221;
y = 559;
}
);
},
{
points = (
{
smooth = 0;
x = 325;
y = 780;
},
{
smooth = 0;
x = 344;
y = 799;
},
{
segmentType = curve;
smooth = 1;
x = 344;
y = 823;
},
{
smooth = 0;
x = 344;
y = 847;
},
{
smooth = 0;
x = 325;
y = 866;
},
{
segmentType = curve;
smooth = 1;
x = 301;
y = 866;
},
{
smooth = 0;
x = 277;
y = 866;
},
{
smooth = 0;
x = 258;
y = 847;
},
{
segmentType = curve;
smooth = 1;
x = 258;
y = 823;
},
{
smooth = 0;
x = 258;
y = 799;
},
{
smooth = 0;
x = 277;
y = 780;
},
{
segmentType = curve;
smooth = 1;
x = 301;
y = 780;
}
);
},
{
points = (
{
smooth = 0;
x = 1585;
y = 42;
},
{
smooth = 0;
x = 1625;
y = 82;
},
{
segmentType = curve;
smooth = 1;
x = 1625;
y = 132;
},
{
smooth = 0;
x = 1625;
y = 181;
},
{
smooth = 0;
x = 1585;
y = 221;
},
{
segmentType = curve;
smooth = 1;
x = 1536;
y = 221;
},
{
smooth = 0;
x = 1486;
y = 221;
},
{
smooth = 0;
x = 1446;
y = 181;
},
{
segmentType = curve;
smooth = 1;
x = 1446;
y = 132;
},
{
smooth = 0;
x = 1446;
y = 82;
},
{
smooth = 0;
x = 1486;
y = 42;
},
{
segmentType = curve;
smooth = 1;
x = 1536;
y = 42;
}
);
}
);
lib = {
};
name = uni1CEC;
unicodes = (
);
width = 1696;
};
};
};
}
{
glyphname = "ardhavisarga-vedic";
production = uni1CF2;
layers = (
{
layerId = "E22305A4-B0AF-4429-B69B-D5D74FEEE350";
paths = (
{
closed = 1;
nodes = (
"349 307 OFFCURVE",
"429 363 OFFCURVE",
"447 481 CURVE",
"377 500 LINE",
"365 408 OFFCURVE",
"312 372 OFFCURVE",
"235 372 CURVE SMOOTH",
"150 372 OFFCURVE",
"96 421 OFFCURVE",
"79 500 CURVE",
"39 489 LINE",
"62 375 OFFCURVE",
"134 307 OFFCURVE",
"247 307 CURVE SMOOTH"
);
},
{
closed = 1;
nodes = (
"121 153 OFFCURVE",
"175 190 OFFCURVE",
"251 190 CURVE SMOOTH",
"336 190 OFFCURVE",
"391 140 OFFCURVE",
"407 62 CURVE",
"447 73 LINE",
"424 186 OFFCURVE",
"353 254 OFFCURVE",
"239 254 CURVE SMOOTH",
"137 254 OFFCURVE",
"57 199 OFFCURVE",
"39 81 CURVE",
"109 62 LINE"
);
}
);
width = 486;
},
{
layerId = "92BDF110-6149-41B0-AB08-5310EECFA1B7";
paths = (
{
closed = 1;
nodes = (
"343 315 OFFCURVE",
"408 386 OFFCURVE",
"424 489 CURVE",
"396 494 LINE",
"385 399 OFFCURVE",
"324 339 OFFCURVE",
"230 339 CURVE SMOOTH",
"134 339 OFFCURVE",
"79 397 OFFCURVE",
"61 494 CURVE",
"39 489 LINE",
"60 389 OFFCURVE",
"118 315 OFFCURVE",
"236 315 CURVE SMOOTH"
);
},
{
closed = 1;
nodes = (
"78 162 OFFCURVE",
"139 222 OFFCURVE",
"232 222 CURVE SMOOTH",
"329 222 OFFCURVE",
"384 164 OFFCURVE",
"402 67 CURVE",
"424 72 LINE",
"403 173 OFFCURVE",
"345 247 OFFCURVE",
"227 247 CURVE SMOOTH",
"120 247 OFFCURVE",
"55 176 OFFCURVE",
"39 73 CURVE",
"67 67 LINE"
);
}
);
width = 463;
},
{
layerId = "26889610-2B6B-400B-B1BB-1A42565FFDAF";
paths = (
{
closed = 1;
nodes = (
"399 297 OFFCURVE",
"485 370 OFFCURVE",
"507 489 CURVE",
"394 518 LINE",
"382 438 OFFCURVE",
"334 387 OFFCURVE",
"250 387 CURVE SMOOTH",
"171 387 OFFCURVE",
"119 439 OFFCURVE",
"105 518 CURVE",
"39 501 LINE",
"62 375 OFFCURVE",
"144 297 OFFCURVE",
"274 297 CURVE SMOOTH"
);
},
{
closed = 1;
nodes = (
"164 120 OFFCURVE",
"214 170 OFFCURVE",
"299 170 CURVE SMOOTH",
"377 170 OFFCURVE",
"427 119 OFFCURVE",
"441 39 CURVE",
"507 57 LINE",
"483 183 OFFCURVE",
"402 260 OFFCURVE",
"272 260 CURVE SMOOTH",
"147 260 OFFCURVE",
"61 188 OFFCURVE",
"39 69 CURVE",
"152 39 LINE"
);
}
);
width = 546;
},
{
layerId = "3E60C6C7-DFFD-4AAE-9DD7-DF994DEB26A2";
paths = (
{
closed = 1;
nodes = (
"423 291 OFFCURVE",
"517 366 OFFCURVE",
"541 490 CURVE",
"399 527 LINE",
"386 453 OFFCURVE",
"342 403 OFFCURVE",
"259 403 CURVE SMOOTH",
"184 403 OFFCURVE",
"134 452 OFFCURVE",
"121 527 CURVE",
"39 505 LINE",
"63 371 OFFCURVE",
"153 291 OFFCURVE",
"289 291 CURVE SMOOTH"
);
},
{
closed = 1;
nodes = (
"195 103 OFFCURVE",
"241 153 OFFCURVE",
"327 153 CURVE SMOOTH",
"399 153 OFFCURVE",
"447 104 OFFCURVE",
"459 29 CURVE",
"541 51 LINE",
"517 185 OFFCURVE",
"427 265 OFFCURVE",
"291 265 CURVE SMOOTH",
"157 265 OFFCURVE",
"63 190 OFFCURVE",
"39 66 CURVE",
"181 29 LINE"
);
}
);
width = 580;
},
{
layerId = "B188D42B-E0C1-4C36-A461-FECF08FB9142";
paths = (
{
closed = 1;
nodes = (
"272 315 OFFCURVE",
"321 386 OFFCURVE",
"328 491 CURVE",
"302 494 LINE",
"295 401 OFFCURVE",
"257 339 OFFCURVE",
"185 339 CURVE SMOOTH",
"112 339 OFFCURVE",
"74 396 OFFCURVE",
"61 494 CURVE",
"39 490 LINE",
"53 384 OFFCURVE",
"98 315 OFFCURVE",
"190 315 CURVE SMOOTH"
);
},
{
closed = 1;
nodes = (
"71 161 OFFCURVE",
"109 222 OFFCURVE",
"182 222 CURVE SMOOTH",
"255 222 OFFCURVE",
"293 166 OFFCURVE",
"306 67 CURVE",
"328 71 LINE",
"313 177 OFFCURVE",
"269 247 OFFCURVE",
"176 247 CURVE SMOOTH",
"95 247 OFFCURVE",
"45 176 OFFCURVE",
"39 70 CURVE",
"65 67 LINE"
);
}
);
width = 367;
},
{
layerId = "1C76EA3D-1F01-478B-AF6D-23469B2400A3";
paths = (
{
closed = 1;
nodes = (
"271 307 OFFCURVE",
"321 383 OFFCURVE",
"331 485 CURVE",
"261 498 LINE",
"256 422 OFFCURVE",
"231 372 OFFCURVE",
"175 372 CURVE SMOOTH",
"119 372 OFFCURVE",
"87 422 OFFCURVE",
"80 498 CURVE",
"39 490 LINE",
"49 391 OFFCURVE",
"93 307 OFFCURVE",
"188 307 CURVE SMOOTH"
);
},
{
closed = 1;
nodes = (
"114 140 OFFCURVE",
"141 190 OFFCURVE",
"199 190 CURVE SMOOTH",
"253 190 OFFCURVE",
"283 140 OFFCURVE",
"290 63 CURVE",
"331 72 LINE",
"321 171 OFFCURVE",
"278 254 OFFCURVE",
"187 254 CURVE SMOOTH",
"101 254 OFFCURVE",
"49 179 OFFCURVE",
"39 77 CURVE",
"108 63 LINE"
);
}
);
width = 370;
},
{
layerId = "48B0D659-D2E4-4014-AFB5-7353283B7180";
paths = (
{
closed = 1;
nodes = (
"324 298 OFFCURVE",
"382 378 OFFCURVE",
"395 492 CURVE",
"289 515 LINE",
"282 434 OFFCURVE",
"255 390 OFFCURVE",
"200 390 CURVE SMOOTH",
"144 390 OFFCURVE",
"112 437 OFFCURVE",
"104 515 CURVE",
"39 501 LINE",
"52 385 OFFCURVE",
"109 298 OFFCURVE",
"220 298 CURVE SMOOTH"
);
},
{
closed = 1;
nodes = (
"152 125 OFFCURVE",
"180 169 OFFCURVE",
"236 169 CURVE SMOOTH",
"290 169 OFFCURVE",
"322 122 OFFCURVE",
"330 43 CURVE",
"395 57 LINE",
"382 174 OFFCURVE",
"326 261 OFFCURVE",
"216 261 CURVE SMOOTH",
"110 261 OFFCURVE",
"52 181 OFFCURVE",
"39 66 CURVE",
"145 43 LINE"
);
}
);
width = 434;
},
{
layerId = "E10056C4-06A7-4834-9783-123B62B78F3D";
paths = (
{
closed = 1;
nodes = (
"354 291 OFFCURVE",
"414 376 OFFCURVE",
"428 498 CURVE",
"296 527 LINE",
"288 445 OFFCURVE",
"263 403 OFFCURVE",
"211 403 CURVE SMOOTH",
"159 403 OFFCURVE",
"129 448 OFFCURVE",
"121 527 CURVE",
"39 509 LINE",
"53 382 OFFCURVE",
"115 291 OFFCURVE",
"236 291 CURVE SMOOTH"
);
},
{
closed = 1;
nodes = (
"179 112 OFFCURVE",
"205 153 OFFCURVE",
"258 153 CURVE SMOOTH",
"308 153 OFFCURVE",
"338 108 OFFCURVE",
"346 29 CURVE",
"428 47 LINE",
"415 174 OFFCURVE",
"352 265 OFFCURVE",
"231 265 CURVE SMOOTH",
"113 265 OFFCURVE",
"53 180 OFFCURVE",
"39 58 CURVE",
"171 29 LINE"
);
}
);
width = 467;
}
);
note = "\012    uni1CF2\012  ";
unicode = 1CF2;
script = vedic;
category = Letter;
subCategory = Other;
userData = {
com.schriftgestaltung.Glyphs.ColorIndex = 1;
com.typemytype.robofont.layerData = {
"Light Feb 26 16, 12:58" = {
anchors = (
);
components = (
);
contours = (
{
points = (
{
segmentType = line;
smooth = 0;
x = 984;
y = 991;
},
{
smooth = 0;
x = 916;
y = 727;
},
{
smooth = 0;
x = 775;
y = 598;
},
{
segmentType = curve;
smooth = 1;
x = 539;
y = 598;
},
{
smooth = 0;
x = 331;
y = 598;
},
{
smooth = 0;
x = 168;
y = 736;
},
{
segmentType = curve;
smooth = 0;
x = 79;
y = 991;
},
{
segmentType = line;
smooth = 0;
x = 232;
y = 1043;
},
{
smooth = 0;
x = 308;
y = 839;
},
{
smooth = 0;
x = 402;
y = 746;
},
{
segmentType = curve;
smooth = 1;
x = 545;
y = 746;
},
{
smooth = 0;
x = 688;
y = 746;
},
{
smooth = 0;
x = 772;
y = 833;
},
{
segmentType = curve;
smooth = 0;
x = 821;
y = 1046;
}
);
},
{
points = (
{
segmentType = line;
smooth = 0;
x = 79;
y = 141;
},
{
smooth = 0;
x = 147;
y = 405;
},
{
smooth = 0;
x = 288;
y = 534;
},
{
segmentType = curve;
smooth = 1;
x = 524;
y = 534;
},
{
smooth = 0;
x = 732;
y = 534;
},
{
smooth = 0;
x = 895;
y = 397;
},
{
segmentType = curve;
smooth = 0;
x = 984;
y = 141;
},
{
segmentType = line;
smooth = 0;
x = 831;
y = 89;
},
{
smooth = 0;
x = 754;
y = 294;
},
{
smooth = 0;
x = 659;
y = 386;
},
{
segmentType = curve;
smooth = 1;
x = 518;
y = 386;
},
{
smooth = 0;
x = 375;
y = 386;
},
{
smooth = 0;
x = 291;
y = 299;
},
{
segmentType = curve;
smooth = 0;
x = 242;
y = 86;
}
);
}
);
lib = {
};
name = uni1CF2;
unicodes = (
);
width = 1053;
};
background = {
anchors = (
);
components = (
{
baseGlyph = dvmEcandra;
transformation = (
1,
0,
0,
1,
788,
-782
);
}
);
contours = (
);
lib = {
};
name = uni1CF2;
unicodes = (
);
width = 993;
};
};
};
}
{
glyphname = "atharvavedicIndependentSvarita-vedic";
production = uni1CE1;
layers = (
{
layerId = "E22305A4-B0AF-4429-B69B-D5D74FEEE350";
paths = (
{
closed = 1;
nodes = (
"193 -159 OFFCURVE",
"259 -104 OFFCURVE",
"259 38 CURVE SMOOTH",
"259 217 OFFCURVE",
"214 463 OFFCURVE",
"214 629 CURVE SMOOTH",
"214 731 OFFCURVE",
"246 762 OFFCURVE",
"298 762 CURVE SMOOTH",
"335 762 OFFCURVE",
"368 742 OFFCURVE",
"392 694 CURVE",
"428 709 LINE",
"396 805 OFFCURVE",
"343 839 OFFCURVE",
"280 839 CURVE SMOOTH",
"189 839 OFFCURVE",
"138 772 OFFCURVE",
"138 642 CURVE SMOOTH",
"138 468 OFFCURVE",
"182 229 OFFCURVE",
"182 58 CURVE SMOOTH",
"182 -56 OFFCURVE",
"146 -85 OFFCURVE",
"78 -85 CURVE SMOOTH",
"50 -85 OFFCURVE",
"20 -78 OFFCURVE",
"-17 -62 CURVE",
"-40 -101 LINE",
"15 -149 OFFCURVE",
"65 -159 OFFCURVE",
"110 -159 CURVE SMOOTH"
);
}
);
width = 396;
},
{
layerId = "92BDF110-6149-41B0-AB08-5310EECFA1B7";
paths = (
{
closed = 1;
nodes = (
"169 -146 OFFCURVE",
"219 -82 OFFCURVE",
"219 39 CURVE SMOOTH",
"219 216 OFFCURVE",
"146 490 OFFCURVE",
"146 646 CURVE SMOOTH",
"146 751 OFFCURVE",
"184 809 OFFCURVE",
"254 809 CURVE SMOOTH",
"301 809 OFFCURVE",
"335 776 OFFCURVE",
"359 712 CURVE",
"381 719 LINE",
"351 797 OFFCURVE",
"310 836 OFFCURVE",
"248 836 CURVE SMOOTH",
"170 836 OFFCURVE",
"118 768 OFFCURVE",
"118 651 CURVE SMOOTH",
"118 483 OFFCURVE",
"192 210 OFFCURVE",
"192 44 CURVE SMOOTH",
"192 -65 OFFCURVE",
"152 -119 OFFCURVE",
"71 -119 CURVE SMOOTH",
"29 -119 OFFCURVE",
"-8 -101 OFFCURVE",
"-49 -70 CURVE",
"-65 -91 LINE",
"-19 -125 OFFCURVE",
"23 -146 OFFCURVE",
"77 -146 CURVE SMOOTH"
);
}
);
width = 351;
},
{
layerId = "26889610-2B6B-400B-B1BB-1A42565FFDAF";
paths = (
{
closed = 1;
nodes = (
"256 -185 OFFCURVE",
"322 -113 OFFCURVE",
"322 43 CURVE SMOOTH",
"322 216 OFFCURVE",
"257 457 OFFCURVE",
"257 618 CURVE SMOOTH",
"257 694 OFFCURVE",
"291 736 OFFCURVE",
"344 736 CURVE SMOOTH",
"382 736 OFFCURVE",
"408 715 OFFCURVE",
"430 668 CURVE",
"488 689 LINE",
"461 789 OFFCURVE",
"399 846 OFFCURVE",
"310 846 CURVE SMOOTH",
"197 846 OFFCURVE",
"132 764 OFFCURVE",
"132 626 CURVE SMOOTH",
"132 485 OFFCURVE",
"197 242 OFFCURVE",
"197 67 CURVE SMOOTH",
"197 -36 OFFCURVE",
"158 -80 OFFCURVE",
"89 -80 CURVE SMOOTH",
"56 -80 OFFCURVE",
"22 -67 OFFCURVE",
"-7 -49 CURVE",
"-46 -110 LINE",
"11 -162 OFFCURVE",
"70 -185 OFFCURVE",
"139 -185 CURVE SMOOTH"
);
}
);
width = 456;
},
{
layerId = "3E60C6C7-DFFD-4AAE-9DD7-DF994DEB26A2";
paths = (
{
closed = 1;
nodes = (
"284 -175 OFFCURVE",
"361 -92 OFFCURVE",
"361 47 CURVE SMOOTH",
"361 216 OFFCURVE",
"294 446 OFFCURVE",
"294 610 CURVE SMOOTH",
"294 674 OFFCURVE",
"325 711 OFFCURVE",
"375 711 CURVE SMOOTH",
"410 711 OFFCURVE",
"434 694 OFFCURVE",
"454 651 CURVE",
"526 677 LINE",
"489 807 OFFCURVE",
"428 880 OFFCURVE",
"319 880 CURVE SMOOTH",
"204 880 OFFCURVE",
"130 800 OFFCURVE",
"130 660 CURVE SMOOTH",
"130 488 OFFCURVE",
"196 254 OFFCURVE",
"196 87 CURVE SMOOTH",
"196 -1 OFFCURVE",
"160 -40 OFFCURVE",
"94 -40 CURVE SMOOTH",
"60 -40 OFFCURVE",
"28 -29 OFFCURVE",
"2 -13 CURVE",
"-46 -89 LINE",
"15 -141 OFFCURVE",
"80 -175 OFFCURVE",
"158 -175 CURVE SMOOTH"
);
}
);
width = 496;
},
{
layerId = "B188D42B-E0C1-4C36-A461-FECF08FB9142";
paths = (
{
closed = 1;
nodes = (
"122 -146 OFFCURVE",
"167 -81 OFFCURVE",
"167 41 CURVE SMOOTH",
"167 226 OFFCURVE",
"113 511 OFFCURVE",
"113 675 CURVE SMOOTH",
"113 761 OFFCURVE",
"142 809 OFFCURVE",
"194 809 CURVE SMOOTH",
"233 809 OFFCURVE",
"258 776 OFFCURVE",
"269 711 CURVE",
"292 716 LINE",
"277 795 OFFCURVE",
"246 836 OFFCURVE",
"188 836 CURVE SMOOTH",
"128 836 OFFCURVE",
"85 779 OFFCURVE",
"85 680 CURVE SMOOTH",
"85 503 OFFCURVE",
"139 219 OFFCURVE",
"139 46 CURVE SMOOTH",
"139 -64 OFFCURVE",
"105 -120 OFFCURVE",
"35 -120 CURVE SMOOTH",
"10 -120 OFFCURVE",
"-14 -115 OFFCURVE",
"-39 -102 CURVE",
"-49 -124 LINE",
"-20 -140 OFFCURVE",
"7 -146 OFFCURVE",
"41 -146 CURVE SMOOTH"
);
}
);
width = 262;
},
{
layerId = "1C76EA3D-1F01-478B-AF6D-23469B2400A3";
paths = (
{
closed = 1;
nodes = (
"179 -158 OFFCURVE",
"229 -86 OFFCURVE",
"229 29 CURVE SMOOTH",
"229 207 OFFCURVE",
"188 462 OFFCURVE",
"188 632 CURVE SMOOTH",
"188 725 OFFCURVE",
"215 767 OFFCURVE",
"262 767 CURVE SMOOTH",
"292 767 OFFCURVE",
"311 743 OFFCURVE",
"327 695 CURVE",
"362 707 LINE",
"341 784 OFFCURVE",
"307 840 OFFCURVE",
"237 840 CURVE SMOOTH",
"160 840 OFFCURVE",
"115 771 OFFCURVE",
"115 648 CURVE SMOOTH",
"115 466 OFFCURVE",
"155 217 OFFCURVE",
"155 56 CURVE SMOOTH",
"155 -53 OFFCURVE",
"124 -88 OFFCURVE",
"62 -88 CURVE SMOOTH",
"41 -88 OFFCURVE",
"20 -83 OFFCURVE",
"-5 -71 CURVE",
"-27 -108 LINE",
"10 -142 OFFCURVE",
"49 -158 OFFCURVE",
"87 -158 CURVE SMOOTH"
);
}
);
width = 342;
},
{
layerId = "48B0D659-D2E4-4014-AFB5-7353283B7180";
paths = (
{
closed = 1;
nodes = (
"214 -169 OFFCURVE",
"272 -92 OFFCURVE",
"272 30 CURVE SMOOTH",
"272 204 OFFCURVE",
"226 465 OFFCURVE",
"226 626 CURVE SMOOTH",
"226 708 OFFCURVE",
"251 745 OFFCURVE",
"292 745 CURVE SMOOTH",
"320 745 OFFCURVE",
"338 725 OFFCURVE",
"353 680 CURVE",
"403 694 LINE",
"378 802 OFFCURVE",
"338 869 OFFCURVE",
"253 869 CURVE SMOOTH",
"167 869 OFFCURVE",
"109 796 OFFCURVE",
"109 660 CURVE SMOOTH",
"109 485 OFFCURVE",
"155 226 OFFCURVE",
"155 63 CURVE SMOOTH",
"155 -23 OFFCURVE",
"124 -69 OFFCURVE",
"69 -69 CURVE SMOOTH",
"47 -69 OFFCURVE",
"24 -62 OFFCURVE",
"3 -51 CURVE",
"-30 -106 LINE",
"15 -145 OFFCURVE",
"63 -169 OFFCURVE",
"116 -169 CURVE SMOOTH"
);
}
);
width = 383;
},
{
layerId = "E10056C4-06A7-4834-9783-123B62B78F3D";
paths = (
{
closed = 1;
nodes = (
"237 -175 OFFCURVE",
"300 -98 OFFCURVE",
"300 29 CURVE SMOOTH",
"300 201 OFFCURVE",
"250 466 OFFCURVE",
"250 629 CURVE SMOOTH",
"250 696 OFFCURVE",
"273 730 OFFCURVE",
"310 730 CURVE SMOOTH",
"337 730 OFFCURVE",
"353 711 OFFCURVE",
"367 668 CURVE",
"428 685 LINE",
"401 808 OFFCURVE",
"356 880 OFFCURVE",
"261 880 CURVE SMOOTH",
"169 880 OFFCURVE",
"106 807 OFFCURVE",
"106 673 CURVE SMOOTH",
"106 499 OFFCURVE",
"156 232 OFFCURVE",
"156 66 CURVE SMOOTH",
"156 -16 OFFCURVE",
"123 -55 OFFCURVE",
"74 -55 CURVE SMOOTH",
"52 -55 OFFCURVE",
"29 -48 OFFCURVE",
"11 -37 CURVE",
"-30 -104 LINE",
"19 -147 OFFCURVE",
"72 -175 OFFCURVE",
"135 -175 CURVE SMOOTH"
);
}
);
width = 408;
}
);
note = "\012    uni1CE1\012  ";
unicode = 1CE1;
script = vedic;
category = Mark;
subCategory = Spacing;
userData = {
com.schriftgestaltung.Glyphs.ColorIndex = 1;
com.typemytype.robofont.layerData = {
"Light Feb 25 16, 13:01" = {
anchors = (
);
components = (
);
contours = (
{
points = (
{
segmentType = line;
smooth = 0;
x = 783;
y = 1521;
},
{
smooth = 0;
x = 732;
y = 1574;
},
{
smooth = 0;
x = 681;
y = 1601;
},
{
segmentType = curve;
smooth = 1;
x = 616;
y = 1601;
},
{
smooth = 0;
x = 509;
y = 1601;
},
{
smooth = 0;
x = 455;
y = 1532;
},
{
segmentType = curve;
smooth = 1;
x = 455;
y = 1393;
},
{
smooth = 0;
x = 455;
y = 1340;
},
{
smooth = 0;
x = 457;
y = 1283;
},
{
segmentType = curve;
smooth = 1;
x = 462;
y = 1220;
},
{
smooth = 0;
x = 466;
y = 1157;
},
{
smooth = 0;
x = 478;
y = 1034;
},
{
segmentType = curve;
smooth = 1;
x = 498;
y = 852;
},
{
smooth = 0;
x = 527;
y = 594;
},
{
smooth = 0;
x = 541;
y = 370;
},
{
segmentType = curve;
smooth = 1;
x = 541;
y = 179;
},
{
smooth = 0;
x = 541;
y = -182;
},
{
smooth = 0;
x = 379;
y = -336;
},
{
segmentType = curve;
smooth = 1;
x = 40;
y = -336;
},
{
smooth = 0;
x = 1;
y = -336;
},
{
smooth = 0;
x = -38;
y = -334;
},
{
segmentType = curve;
smooth = 0;
x = -76;
y = -330;
},
{
segmentType = line;
smooth = 0;
x = -72;
y = -177;
},
{
smooth = 0;
x = -45;
y = -181;
},
{
smooth = 0;
x = -10;
y = -183;
},
{
segmentType = curve;
smooth = 1;
x = 33;
y = -183;
},
{
smooth = 0;
x = 194;
y = -183;
},
{
smooth = 0;
x = 293;
y = -135;
},
{
segmentType = curve;
smooth = 1;
x = 340;
y = -30;
},
{
smooth = 0;
x = 363;
y = 22;
},
{
smooth = 0;
x = 375;
y = 95;
},
{
segmentType = curve;
smooth = 1;
x = 375;
y = 190;
},
{
smooth = 0;
x = 375;
y = 352;
},
{
smooth = 0;
x = 361;
y = 561;
},
{
segmentType = curve;
smooth = 1;
x = 332;
y = 818;
},
{
smooth = 0;
x = 303;
y = 1075;
},
{
smooth = 0;
x = 288;
y = 1270;
},
{
segmentType = curve;
smooth = 1;
x = 288;
y = 1404;
},
{
smooth = 0;
x = 288;
y = 1624;
},
{
smooth = 0;
x = 408;
y = 1752;
},
{
segmentType = curve;
smooth = 1;
x = 604;
y = 1752;
},
{
smooth = 0;
x = 717;
y = 1752;
},
{
smooth = 0;
x = 808;
y = 1714;
},
{
segmentType = curve;
smooth = 0;
x = 897;
y = 1622;
}
);
}
);
lib = {
};
name = uni1CE1;
unicodes = (
);
width = 811;
};
background = {
anchors = (
);
components = (
);
contours = (
{
points = (
{
smooth = 0;
x = 184;
y = 1254;
},
{
smooth = 0;
x = 203;
y = 1273;
},
{
segmentType = curve;
smooth = 1;
x = 203;
y = 1297;
},
{
smooth = 0;
x = 203;
y = 1321;
},
{
smooth = 0;
x = 184;
y = 1340;
},
{
segmentType = curve;
smooth = 1;
x = 160;
y = 1340;
},
{
smooth = 0;
x = 136;
y = 1340;
},
{
smooth = 0;
x = 117;
y = 1321;
},
{
segmentType = curve;
smooth = 1;
x = 117;
y = 1297;
},
{
smooth = 0;
x = 117;
y = 1273;
},
{
smooth = 0;
x = 136;
y = 1254;
},
{
segmentType = curve;
smooth = 1;
x = 160;
y = 1254;
}
);
},
{
points = (
{
smooth = 0;
x = 464;
y = 584;
},
{
smooth = 0;
x = 504;
y = 624;
},
{
segmentType = curve;
smooth = 1;
x = 504;
y = 674;
},
{
smooth = 0;
x = 504;
y = 723;
},
{
smooth = 0;
x = 464;
y = 763;
},
{
segmentType = curve;
smooth = 1;
x = 415;
y = 763;
},
{
smooth = 0;
x = 365;
y = 763;
},
{
smooth = 0;
x = 325;
y = 723;
},
{
segmentType = curve;
smooth = 1;
x = 325;
y = 674;
},
{
smooth = 0;
x = 325;
y = 624;
},
{
smooth = 0;
x = 365;
y = 584;
},
{
segmentType = curve;
smooth = 1;
x = 415;
y = 584;
}
);
}
);
lib = {
};
name = uni1CE1;
unicodes = (
);
width = 811;
};
};
};
}
{
glyphname = "candraAbove-vedic";
production = uni1CF4;
layers = (
{
layerId = "E22305A4-B0AF-4429-B69B-D5D74FEEE350";
paths = (
{
closed = 1;
nodes = (
"-142 1003 OFFCURVE",
"-70 1059 OFFCURVE",
"-54 1177 CURVE",
"-124 1196 LINE",
"-134 1104 OFFCURVE",
"-181 1068 OFFCURVE",
"-248 1068 CURVE SMOOTH",
"-322 1068 OFFCURVE",
"-369 1117 OFFCURVE",
"-384 1196 CURVE",
"-424 1185 LINE",
"-403 1071 OFFCURVE",
"-338 1003 OFFCURVE",
"-235 1003 CURVE SMOOTH"
);
}
);
width = 0;
},
{
layerId = "92BDF110-6149-41B0-AB08-5310EECFA1B7";
paths = (
{
closed = 1;
nodes = (
"-126 1009 OFFCURVE",
"-66 1080 OFFCURVE",
"-51 1183 CURVE",
"-80 1188 LINE",
"-90 1094 OFFCURVE",
"-145 1033 OFFCURVE",
"-230 1033 CURVE SMOOTH",
"-319 1033 OFFCURVE",
"-369 1092 OFFCURVE",
"-385 1188 CURVE",
"-407 1183 LINE",
"-388 1083 OFFCURVE",
"-334 1009 OFFCURVE",
"-224 1009 CURVE SMOOTH"
);
}
);
width = 0;
},
{
layerId = "26889610-2B6B-400B-B1BB-1A42565FFDAF";
paths = (
{
closed = 1;
nodes = (
"-115 989 OFFCURVE",
"-37 1062 OFFCURVE",
"-18 1181 CURVE",
"-130 1210 LINE",
"-141 1129 OFFCURVE",
"-184 1079 OFFCURVE",
"-258 1079 CURVE SMOOTH",
"-333 1079 OFFCURVE",
"-381 1130 OFFCURVE",
"-394 1210 CURVE",
"-460 1192 LINE",
"-437 1067 OFFCURVE",
"-356 989 OFFCURVE",
"-227 989 CURVE SMOOTH"
);
}
);
width = 0;
},
{
layerId = "3E60C6C7-DFFD-4AAE-9DD7-DF994DEB26A2";
paths = (
{
closed = 1;
nodes = (
"-104 981 OFFCURVE",
"-20 1057 OFFCURVE",
"1 1180 CURVE",
"-141 1217 LINE",
"-152 1143 OFFCURVE",
"-191 1093 OFFCURVE",
"-265 1093 CURVE SMOOTH",
"-337 1093 OFFCURVE",
"-385 1143 OFFCURVE",
"-397 1217 CURVE",
"-479 1195 LINE",
"-454 1061 OFFCURVE",
"-362 981 OFFCURVE",
"-223 981 CURVE SMOOTH"
);
}
);
width = 0;
},
{
layerId = "B188D42B-E0C1-4C36-A461-FECF08FB9142";
paths = (
{
closed = 1;
nodes = (
"-107 1008 OFFCURVE",
"-58 1079 OFFCURVE",
"-51 1184 CURVE",
"-77 1187 LINE",
"-84 1094 OFFCURVE",
"-122 1032 OFFCURVE",
"-195 1032 CURVE SMOOTH",
"-268 1032 OFFCURVE",
"-306 1089 OFFCURVE",
"-319 1187 CURVE",
"-341 1183 LINE",
"-327 1077 OFFCURVE",
"-282 1008 OFFCURVE",
"-190 1008 CURVE SMOOTH"
);
}
);
width = 0;
},
{
layerId = "1C76EA3D-1F01-478B-AF6D-23469B2400A3";
paths = (
{
closed = 1;
nodes = (
"-114 1003 OFFCURVE",
"-64 1079 OFFCURVE",
"-54 1181 CURVE",
"-124 1194 LINE",
"-129 1118 OFFCURVE",
"-154 1068 OFFCURVE",
"-210 1068 CURVE SMOOTH",
"-266 1068 OFFCURVE",
"-298 1118 OFFCURVE",
"-305 1194 CURVE",
"-346 1186 LINE",
"-336 1087 OFFCURVE",
"-292 1003 OFFCURVE",
"-197 1003 CURVE SMOOTH"
);
}
);
width = 0;
},
{
layerId = "48B0D659-D2E4-4014-AFB5-7353283B7180";
paths = (
{
closed = 1;
nodes = (
"-87 990 OFFCURVE",
"-31 1070 OFFCURVE",
"-19 1185 CURVE",
"-124 1208 LINE",
"-131 1126 OFFCURVE",
"-158 1082 OFFCURVE",
"-210 1082 CURVE SMOOTH",
"-265 1082 OFFCURVE",
"-296 1129 OFFCURVE",
"-304 1208 CURVE",
"-369 1194 LINE",
"-356 1077 OFFCURVE",
"-300 990 OFFCURVE",
"-189 990 CURVE SMOOTH"
);
}
);
width = 0;
},
{
layerId = "E10056C4-06A7-4834-9783-123B62B78F3D";
paths = (
{
closed = 1;
nodes = (
"-71 982 OFFCURVE",
"-13 1068 OFFCURVE",
"1 1189 CURVE",
"-131 1218 LINE",
"-139 1136 OFFCURVE",
"-164 1094 OFFCURVE",
"-214 1094 CURVE SMOOTH",
"-265 1094 OFFCURVE",
"-295 1139 OFFCURVE",
"-303 1218 CURVE",
"-385 1200 LINE",
"-371 1074 OFFCURVE",
"-309 982 OFFCURVE",
"-186 982 CURVE SMOOTH"
);
}
);
width = 0;
}
);
note = "\012    uni1CF4\012  ";
unicode = 1CF4;
script = vedic;
category = Mark;
subCategory = Nonspacing;
userData = {
com.schriftgestaltung.Glyphs.ColorIndex = 0;
com.typemytype.robofont.layerData = {
"Light Feb 27 16, 17:13" = {
anchors = (
);
components = (
);
contours = (
{
points = (
{
segmentType = line;
smooth = 0;
x = 141;
y = 2325;
},
{
smooth = 0;
x = 84;
y = 2074;
},
{
smooth = 0;
x = -53;
y = 1950;
},
{
segmentType = curve;
smooth = 1;
x = -282;
y = 1950;
},
{
smooth = 0;
x = -485;
y = 1950;
},
{
smooth = 0;
x = -631;
y = 2075;
},
{
segmentType = curve;
smooth = 0;
x = -720;
y = 2325;
},
{
segmentType = line;
smooth = 0;
x = -575;
y = 2374;
},
{
smooth = 0;
x = -503;
y = 2177;
},
{
smooth = 0;
x = -418;
y = 2091;
},
{
segmentType = curve;
smooth = 1;
x = -277;
y = 2091;
},
{
smooth = 0;
x = -140;
y = 2091;
},
{
smooth = 0;
x = -65;
y = 2166;
},
{
segmentType = curve;
smooth = 0;
x = -14;
y = 2377;
}
);
}
);
lib = {
};
name = uni1CF4;
unicodes = (
);
width = 0;
};
};
};
}
{
glyphname = "candraBelow-vedic";
production = uni1CD8;
layers = (
{
anchors = (
{
name = _bottom_right;
position = "{-126, 0}";
}
);
layerId = "E22305A4-B0AF-4429-B69B-D5D74FEEE350";
paths = (
{
closed = 1;
nodes = (
"-30 -269 OFFCURVE",
"42 -213 OFFCURVE",
"58 -95 CURVE",
"-12 -76 LINE",
"-22 -168 OFFCURVE",
"-69 -204 OFFCURVE",
"-135 -204 CURVE SMOOTH",
"-209 -204 OFFCURVE",
"-256 -155 OFFCURVE",
"-271 -76 CURVE",
"-311 -87 LINE",
"-290 -201 OFFCURVE",
"-225 -269 OFFCURVE",
"-122 -269 CURVE SMOOTH"
);
}
);
width = 0;
},
{
anchors = (
{
name = _bottom_right;
position = "{-121, 0}";
}
);
layerId = "92BDF110-6149-41B0-AB08-5310EECFA1B7";
paths = (
{
closed = 1;
nodes = (
"-18 -263 OFFCURVE",
"42 -192 OFFCURVE",
"57 -89 CURVE",
"28 -84 LINE",
"18 -178 OFFCURVE",
"-37 -239 OFFCURVE",
"-122 -239 CURVE SMOOTH",
"-211 -239 OFFCURVE",
"-261 -180 OFFCURVE",
"-277 -84 CURVE",
"-299 -89 LINE",
"-280 -189 OFFCURVE",
"-226 -263 OFFCURVE",
"-116 -263 CURVE SMOOTH"
);
}
);
width = 0;
},
{
anchors = (
{
name = _bottom_right;
position = "{-121, 0}";
}
);
layerId = "26889610-2B6B-400B-B1BB-1A42565FFDAF";
paths = (
{
closed = 1;
nodes = (
"3 -287 OFFCURVE",
"81 -214 OFFCURVE",
"100 -95 CURVE",
"-12 -66 LINE",
"-23 -147 OFFCURVE",
"-66 -197 OFFCURVE",
"-140 -197 CURVE SMOOTH",
"-215 -197 OFFCURVE",
"-263 -146 OFFCURVE",
"-276 -66 CURVE",
"-342 -84 LINE",
"-319 -209 OFFCURVE",
"-238 -287 OFFCURVE",
"-109 -287 CURVE SMOOTH"
);
}
);
width = 0;
},
{
anchors = (
{
name = _bottom_right;
position = "{-120, 0}";
}
);
layerId = "3E60C6C7-DFFD-4AAE-9DD7-DF994DEB26A2";
paths = (
{
closed = 1;
nodes = (
"14 -297 OFFCURVE",
"98 -221 OFFCURVE",
"119 -98 CURVE",
"-23 -61 LINE",
"-34 -135 OFFCURVE",
"-73 -185 OFFCURVE",
"-146 -185 CURVE SMOOTH",
"-218 -185 OFFCURVE",
"-266 -135 OFFCURVE",
"-278 -61 CURVE",
"-360 -83 LINE",
"-335 -217 OFFCURVE",
"-243 -297 OFFCURVE",
"-104 -297 CURVE SMOOTH"
);
}
);
width = 0;
},
{
anchors = (
{
name = _bottom_right;
position = "{-89, 0}";
}
);
layerId = "B188D42B-E0C1-4C36-A461-FECF08FB9142";
paths = (
{
closed = 1;
nodes = (
"-1 -263 OFFCURVE",
"48 -192 OFFCURVE",
"55 -87 CURVE",
"29 -84 LINE",
"22 -177 OFFCURVE",
"-16 -239 OFFCURVE",
"-88 -239 CURVE SMOOTH",
"-161 -239 OFFCURVE",
"-199 -182 OFFCURVE",
"-212 -84 CURVE",
"-234 -88 LINE",
"-220 -194 OFFCURVE",
"-175 -263 OFFCURVE",
"-83 -263 CURVE SMOOTH"
);
}
);
width = 0;
},
{
anchors = (
{
name = _bottom_right;
position = "{-87, 0}";
}
);
layerId = "1C76EA3D-1F01-478B-AF6D-23469B2400A3";
paths = (
{
closed = 1;
nodes = (
"-1 -270 OFFCURVE",
"49 -194 OFFCURVE",
"59 -92 CURVE",
"-11 -79 LINE",
"-16 -155 OFFCURVE",
"-41 -205 OFFCURVE",
"-97 -205 CURVE SMOOTH",
"-153 -205 OFFCURVE",
"-185 -155 OFFCURVE",
"-192 -79 CURVE",
"-233 -87 LINE",
"-223 -186 OFFCURVE",
"-179 -270 OFFCURVE",
"-84 -270 CURVE SMOOTH"
);
}
);
width = 0;
},
{
anchors = (
{
name = _bottom_right;
position = "{-94, 0}";
}
);
layerId = "48B0D659-D2E4-4014-AFB5-7353283B7180";
paths = (
{
closed = 1;
nodes = (
"13 -286 OFFCURVE",
"69 -206 OFFCURVE",
"81 -91 CURVE",
"-24 -68 LINE",
"-31 -150 OFFCURVE",
"-58 -194 OFFCURVE",
"-110 -194 CURVE SMOOTH",
"-165 -194 OFFCURVE",
"-196 -147 OFFCURVE",
"-204 -68 CURVE",
"-269 -82 LINE",
"-256 -199 OFFCURVE",
"-200 -286 OFFCURVE",
"-89 -286 CURVE SMOOTH"
);
}
);
width = 0;
},
{
anchors = (
{
name = _bottom_right;
position = "{-93, 0}";
}
);
layerId = "E10056C4-06A7-4834-9783-123B62B78F3D";
paths = (
{
closed = 1;
nodes = (
"27 -297 OFFCURVE",
"85 -211 OFFCURVE",
"99 -90 CURVE",
"-33 -61 LINE",
"-41 -143 OFFCURVE",
"-65 -185 OFFCURVE",
"-115 -185 CURVE SMOOTH",
"-166 -185 OFFCURVE",
"-196 -140 OFFCURVE",
"-204 -61 CURVE",
"-286 -79 LINE",
"-272 -205 OFFCURVE",
"-210 -297 OFFCURVE",
"-87 -297 CURVE SMOOTH"
);
}
);
width = 0;
}
);
note = "\012    uni1CD8\012  ";
unicode = 1CD8;
script = vedic;
category = Mark;
subCategory = Nonspacing;
userData = {
com.schriftgestaltung.Glyphs.ColorIndex = 1;
com.typemytype.robofont.layerData = {
"Light Feb 24 16, 19:14" = {
anchors = (
);
components = (
);
contours = (
{
points = (
{
segmentType = line;
smooth = 0;
x = 141;
y = -153;
},
{
smooth = 0;
x = 84;
y = -404;
},
{
smooth = 0;
x = -53;
y = -528;
},
{
segmentType = curve;
smooth = 1;
x = -282;
y = -528;
},
{
smooth = 0;
x = -485;
y = -528;
},
{
smooth = 0;
x = -631;
y = -403;
},
{
segmentType = curve;
smooth = 0;
x = -720;
y = -153;
},
{
segmentType = line;
smooth = 0;
x = -575;
y = -104;
},
{
smooth = 0;
x = -503;
y = -301;
},
{
smooth = 0;
x = -418;
y = -387;
},
{
segmentType = curve;
smooth = 1;
x = -277;
y = -387;
},
{
smooth = 0;
x = -140;
y = -387;
},
{
smooth = 0;
x = -65;
y = -312;
},
{
segmentType = curve;
smooth = 0;
x = -14;
y = -101;
}
);
}
);
lib = {
};
name = uni1CD8;
unicodes = (
);
width = 0;
};
};
};
}
{
glyphname = "dotBelow-vedic";
production = uni1CDD;
layers = (
{
anchors = (
{
name = _bottom_right;
position = "{-122, 0}";
}
);
layerId = "E22305A4-B0AF-4429-B69B-D5D74FEEE350";
paths = (
{
closed = 1;
nodes = (
"-51 -170 LINE",
"-123 -98 LINE",
"-194 -170 LINE",
"-123 -242 LINE"
);
}
);
width = 0;
},
{
anchors = (
{
name = _bottom_right;
position = "{-113, 0}";
}
);
layerId = "92BDF110-6149-41B0-AB08-5310EECFA1B7";
paths = (
{
closed = 1;
nodes = (
"-74 -170 LINE",
"-114 -130 LINE",
"-153 -170 LINE",
"-114 -209 LINE"
);
}
);
width = 0;
},
{
anchors = (
{
name = _bottom_right;
position = "{-132, 0}";
}
);
layerId = "26889610-2B6B-400B-B1BB-1A42565FFDAF";
paths = (
{
closed = 1;
nodes = (
"-47 -170 LINE",
"-133 -85 LINE",
"-218 -170 LINE",
"-133 -255 LINE"
);
}
);
width = 0;
},
{
anchors = (
{
name = _bottom_right;
position = "{-140, 0}";
}
);
layerId = "3E60C6C7-DFFD-4AAE-9DD7-DF994DEB26A2";
paths = (
{
closed = 1;
nodes = (
"-41 -170 LINE",
"-140 -71 LINE",
"-240 -170 LINE",
"-140 -268 LINE"
);
}
);
width = 0;
},
{
anchors = (
{
name = _bottom_right;
position = "{-87, 0}";
}
);
layerId = "B188D42B-E0C1-4C36-A461-FECF08FB9142";
paths = (
{
closed = 1;
nodes = (
"-52 -170 LINE",
"-87 -128 LINE",
"-122 -170 LINE",
"-87 -211 LINE"
);
}
);
width = 0;
},
{
anchors = (
{
name = _bottom_right;
position = "{-99, 0}";
}
);
layerId = "1C76EA3D-1F01-478B-AF6D-23469B2400A3";
paths = (
{
closed = 1;
nodes = (
"-37 -170 LINE",
"-100 -101 LINE",
"-162 -170 LINE",
"-100 -239 LINE"
);
}
);
width = 0;
},
{
anchors = (
{
name = _bottom_right;
position = "{-108, 0}";
}
);
layerId = "48B0D659-D2E4-4014-AFB5-7353283B7180";
paths = (
{
closed = 1;
nodes = (
"-25 -170 LINE",
"-108 -82 LINE",
"-191 -170 LINE",
"-108 -258 LINE"
);
}
);
width = 0;
},
{
anchors = (
{
name = _bottom_right;
position = "{-112, 0}";
}
);
layerId = "E10056C4-06A7-4834-9783-123B62B78F3D";
paths = (
{
closed = 1;
nodes = (
"-16 -170 LINE",
"-112 -68 LINE",
"-209 -170 LINE",
"-112 -272 LINE"
);
}
);
width = 0;
}
);
note = "\012    uni1CDD\012  ";
unicode = 1CDD;
script = vedic;
category = Mark;
subCategory = Nonspacing;
userData = {
com.schriftgestaltung.Glyphs.ColorIndex = 7;
};
}
{
glyphname = "doubleSvarita-vedic";
production = uni1CDA;
layers = (
{
anchors = (
{
name = _top;
position = "{-82, 623}";
}
);
layerId = "E22305A4-B0AF-4429-B69B-D5D74FEEE350";
paths = (
{
closed = 1;
nodes = (
"-147 681 LINE",
"-147 876 LINE",
"-200 876 LINE",
"-200 681 LINE"
);
},
{
closed = 1;
nodes = (
"-42 681 LINE",
"-42 876 LINE",
"-95 876 LINE",
"-95 681 LINE"
);
}
);
width = 0;
},
{
anchors = (
{
name = _top;
position = "{-105, 622}";
}
);
layerId = "92BDF110-6149-41B0-AB08-5310EECFA1B7";
paths = (
{
closed = 1;
nodes = (
"-149 681 LINE",
"-149 867 LINE",
"-176 867 LINE",
"-176 681 LINE"
);
},
{
closed = 1;
nodes = (
"-62 681 LINE",
"-62 867 LINE",
"-89 867 LINE",
"-89 681 LINE"
);
}
);
width = 0;
},
{
anchors = (
{
name = _top;
position = "{-74, 626}";
}
);
layerId = "26889610-2B6B-400B-B1BB-1A42565FFDAF";
paths = (
{
closed = 1;
nodes = (
"-162 673 LINE",
"-162 875 LINE",
"-250 875 LINE",
"-250 673 LINE"
);
},
{
closed = 1;
nodes = (
"-24 673 LINE",
"-24 875 LINE",
"-112 875 LINE",
"-112 673 LINE"
);
}
);
width = 0;
},
{
anchors = (
{
name = _top;
position = "{-70, 627}";
}
);
layerId = "3E60C6C7-DFFD-4AAE-9DD7-DF994DEB26A2";
paths = (
{
closed = 1;
nodes = (
"-173 670 LINE",
"-173 877 LINE",
"-283 877 LINE",
"-283 670 LINE"
);
},
{
closed = 1;
nodes = (
"-17 670 LINE",
"-17 877 LINE",
"-127 877 LINE",
"-127 670 LINE"
);
}
);
width = 0;
},
{
anchors = (
{
name = _top;
position = "{-73, 622}";
}
);
layerId = "B188D42B-E0C1-4C36-A461-FECF08FB9142";
paths = (
{
closed = 1;
nodes = (
"-111 681 LINE",
"-111 867 LINE",
"-140 867 LINE",
"-140 681 LINE"
);
},
{
closed = 1;
nodes = (
"-34 681 LINE",
"-34 867 LINE",
"-63 867 LINE",
"-63 681 LINE"
);
}
);
width = 0;
},
{
anchors = (
{
name = _top;
position = "{-66, 623}";
}
);
layerId = "1C76EA3D-1F01-478B-AF6D-23469B2400A3";
paths = (
{
closed = 1;
nodes = (
"-120 681 LINE",
"-120 876 LINE",
"-173 876 LINE",
"-173 681 LINE"
);
},
{
closed = 1;
nodes = (
"-27 681 LINE",
"-27 876 LINE",
"-80 876 LINE",
"-80 681 LINE"
);
}
);
width = 0;
},
{
anchors = (
{
name = _top;
position = "{-58, 625}";
}
);
layerId = "48B0D659-D2E4-4014-AFB5-7353283B7180";
paths = (
{
closed = 1;
nodes = (
"-132 676 LINE",
"-132 876 LINE",
"-218 876 LINE",
"-218 676 LINE"
);
},
{
closed = 1;
nodes = (
"-6 676 LINE",
"-6 876 LINE",
"-92 876 LINE",
"-92 676 LINE"
);
}
);
width = 0;
},
{
anchors = (
{
name = _top;
position = "{-45, 627}";
}
);
layerId = "E10056C4-06A7-4834-9783-123B62B78F3D";
paths = (
{
closed = 1;
nodes = (
"-133 672 LINE",
"-133 875 LINE",
"-237 875 LINE",
"-237 672 LINE"
);
},
{
closed = 1;
nodes = (
"12 672 LINE",
"12 875 LINE",
"-92 875 LINE",
"-92 672 LINE"
);
}
);
width = 0;
}
);
note = "\012    uni1CDA\012  ";
unicode = 1CDA;
script = vedic;
category = Mark;
subCategory = Nonspacing;
userData = {
com.schriftgestaltung.Glyphs.ColorIndex = 7;
};
}
{
glyphname = "hexiformLongAnusvara-vedic";
production = uni1CEE;
layers = (
{
layerId = "E22305A4-B0AF-4429-B69B-D5D74FEEE350";
paths = (
{
closed = 1;
nodes = (
"387 -5 OFFCURVE",
"469 44 OFFCURVE",
"469 117 CURVE SMOOTH",
"469 159 OFFCURVE",
"443 192 OFFCURVE",
"399 192 CURVE SMOOTH",
"354 192 OFFCURVE",
"328 162 OFFCURVE",
"328 122 CURVE SMOOTH",
"328 111 OFFCURVE",
"332 88 OFFCURVE",
"338 76 CURVE",
"346 100 LINE",
"324 76 OFFCURVE",
"290 63 OFFCURVE",
"254 63 CURVE SMOOTH",
"196 63 OFFCURVE",
"149 102 OFFCURVE",
"149 160 CURVE SMOOTH",
"149 233 OFFCURVE",
"206 285 OFFCURVE",
"335 300 CURVE",
"305 383 LINE",
"161 367 OFFCURVE",
"70 295 OFFCURVE",
"70 196 CURVE SMOOTH",
"70 92 OFFCURVE",
"168 -5 OFFCURVE",
"298 -5 CURVE SMOOTH"
);
},
{
closed = 1;
nodes = (
"207 328 LINE",
"167 365 OFFCURVE",
"142 403 OFFCURVE",
"142 449 CURVE SMOOTH",
"142 509 OFFCURVE",
"191 547 OFFCURVE",
"258 547 CURVE SMOOTH",
"293 547 OFFCURVE",
"332 542 OFFCURVE",
"362 534 CURVE",
"331 616 LINE",
"300 624 OFFCURVE",
"268 627 OFFCURVE",
"236 627 CURVE SMOOTH",
"129 627 OFFCURVE",
"63 571 OFFCURVE",
"63 479 CURVE SMOOTH",
"63 413 OFFCURVE",
"107 351 OFFCURVE",
"171 300 CURVE"
);
},
{
closed = 1;
nodes = (
"523 353 LINE",
"452 424 LINE",
"380 353 LINE",
"452 281 LINE"
);
}
);
width = 538;
},
{
layerId = "92BDF110-6149-41B0-AB08-5310EECFA1B7";
paths = (
{
closed = 1;
nodes = (
"364 -5 OFFCURVE",
"449 35 OFFCURVE",
"449 95 CURVE SMOOTH",
"449 122 OFFCURVE",
"431 143 OFFCURVE",
"400 143 CURVE SMOOTH",
"368 143 OFFCURVE",
"348 120 OFFCURVE",
"348 90 CURVE SMOOTH",
"348 68 OFFCURVE",
"358 49 OFFCURVE",
"373 31 CURVE",
"380 48 LINE",
"355 31 OFFCURVE",
"317 21 OFFCURVE",
"278 21 CURVE SMOOTH",
"179 21 OFFCURVE",
"107 82 OFFCURVE",
"107 165 CURVE SMOOTH",
"107 253 OFFCURVE",
"173 314 OFFCURVE",
"320 334 CURVE",
"304 359 LINE",
"162 339 OFFCURVE",
"80 270 OFFCURVE",
"80 170 CURVE SMOOTH",
"80 75 OFFCURVE",
"173 -5 OFFCURVE",
"284 -5 CURVE SMOOTH"
);
},
{
closed = 1;
nodes = (
"197 313 LINE",
"138 363 OFFCURVE",
"101 414 OFFCURVE",
"101 475 CURVE SMOOTH",
"101 553 OFFCURVE",
"162 602 OFFCURVE",
"247 602 CURVE SMOOTH",
"275 602 OFFCURVE",
"306 598 OFFCURVE",
"332 590 CURVE",
"321 617 LINE",
"295 624 OFFCURVE",
"268 627 OFFCURVE",
"241 627 CURVE SMOOTH",
"137 627 OFFCURVE",
"73 571 OFFCURVE",
"73 480 CURVE SMOOTH",
"73 413 OFFCURVE",
"117 351 OFFCURVE",
"181 300 CURVE"
);
},
{
closed = 1;
nodes = (
"489 353 LINE",
"437 405 LINE",
"385 353 LINE",
"437 300 LINE"
);
}
);
width = 514;
},
{
layerId = "26889610-2B6B-400B-B1BB-1A42565FFDAF";
paths = (
{
closed = 1;
nodes = (
"448 -8 OFFCURVE",
"534 45 OFFCURVE",
"534 120 CURVE SMOOTH",
"534 170 OFFCURVE",
"504 208 OFFCURVE",
"452 208 CURVE SMOOTH",
"401 208 OFFCURVE",
"370 173 OFFCURVE",
"370 127 CURVE SMOOTH",
"370 109 OFFCURVE",
"376 86 OFFCURVE",
"388 72 CURVE",
"412 131 LINE",
"380 98 OFFCURVE",
"341 79 OFFCURVE",
"296 79 CURVE SMOOTH",
"243 79 OFFCURVE",
"206 112 OFFCURVE",
"206 156 CURVE SMOOTH",
"206 217 OFFCURVE",
"269 268 OFFCURVE",
"401 277 CURVE",
"362 392 LINE",
"195 384 OFFCURVE",
"101 304 OFFCURVE",
"101 203 CURVE SMOOTH",
"101 92 OFFCURVE",
"206 -8 OFFCURVE",
"343 -8 CURVE SMOOTH"
);
},
{
closed = 1;
nodes = (
"258 337 LINE",
"220 368 OFFCURVE",
"197 399 OFFCURVE",
"197 436 CURVE SMOOTH",
"197 495 OFFCURVE",
"250 528 OFFCURVE",
"324 528 CURVE SMOOTH",
"359 528 OFFCURVE",
"396 523 OFFCURVE",
"426 514 CURVE",
"385 620 LINE",
"352 627 OFFCURVE",
"315 632 OFFCURVE",
"280 632 CURVE SMOOTH",
"161 632 OFFCURVE",
"91 570 OFFCURVE",
"91 486 CURVE SMOOTH",
"91 413 OFFCURVE",
"141 355 OFFCURVE",
"205 304 CURVE"
);
},
{
closed = 1;
nodes = (
"588 352 LINE",
"506 433 LINE",
"424 352 LINE",
"506 271 LINE"
);
}
);
width = 623;
},
{
layerId = "3E60C6C7-DFFD-4AAE-9DD7-DF994DEB26A2";
paths = (
{
closed = 1;
nodes = (
"484 -10 OFFCURVE",
"571 48 OFFCURVE",
"571 129 CURVE SMOOTH",
"571 185 OFFCURVE",
"536 228 OFFCURVE",
"478 228 CURVE SMOOTH",
"420 228 OFFCURVE",
"384 190 OFFCURVE",
"384 139 CURVE SMOOTH",
"384 120 OFFCURVE",
"391 96 OFFCURVE",
"402 82 CURVE",
"434 160 LINE",
"398 121 OFFCURVE",
"356 98 OFFCURVE",
"308 98 CURVE SMOOTH",
"269 98 OFFCURVE",
"243 122 OFFCURVE",
"243 154 CURVE SMOOTH",
"243 205 OFFCURVE",
"307 253 OFFCURVE",
"436 257 CURVE",
"389 402 LINE",
"211 400 OFFCURVE",
"111 316 OFFCURVE",
"111 214 CURVE SMOOTH",
"111 98 OFFCURVE",
"222 -10 OFFCURVE",
"368 -10 CURVE SMOOTH"
);
},
{
closed = 1;
nodes = (
"284 346 LINE",
"252 369 OFFCURVE",
"233 394 OFFCURVE",
"233 423 CURVE SMOOTH",
"233 476 OFFCURVE",
"285 504 OFFCURVE",
"358 504 CURVE SMOOTH",
"394 504 OFFCURVE",
"433 499 OFFCURVE",
"464 490 CURVE",
"414 621 LINE",
"378 629 OFFCURVE",
"338 634 OFFCURVE",
"300 634 CURVE SMOOTH",
"174 634 OFFCURVE",
"101 570 OFFCURVE",
"101 488 CURVE SMOOTH",
"101 412 OFFCURVE",
"153 357 OFFCURVE",
"218 305 CURVE"
);
},
{
closed = 1;
nodes = (
"629 351 LINE",
"537 442 LINE",
"445 351 LINE",
"537 261 LINE"
);
}
);
width = 670;
},
{
layerId = "B188D42B-E0C1-4C36-A461-FECF08FB9142";
paths = (
{
closed = 1;
nodes = (
"276 -5 OFFCURVE",
"340 31 OFFCURVE",
"340 91 CURVE SMOOTH",
"340 120 OFFCURVE",
"325 141 OFFCURVE",
"300 141 CURVE SMOOTH",
"273 141 OFFCURVE",
"257 118 OFFCURVE",
"257 87 CURVE SMOOTH",
"257 65 OFFCURVE",
"264 46 OFFCURVE",
"274 29 CURVE",
"279 46 LINE",
"261 32 OFFCURVE",
"233 23 OFFCURVE",
"204 23 CURVE SMOOTH",
"137 23 OFFCURVE",
"87 75 OFFCURVE",
"87 145 CURVE SMOOTH",
"87 233 OFFCURVE",
"150 295 OFFCURVE",
"243 333 CURVE",
"228 361 LINE",
"132 322 OFFCURVE",
"58 250 OFFCURVE",
"58 152 CURVE SMOOTH",
"58 67 OFFCURVE",
"129 -5 OFFCURVE",
"215 -5 CURVE SMOOTH"
);
},
{
closed = 1;
nodes = (
"149 307 LINE",
"108 357 OFFCURVE",
"82 411 OFFCURVE",
"82 474 CURVE SMOOTH",
"82 550 OFFCURVE",
"126 599 OFFCURVE",
"187 599 CURVE SMOOTH",
"210 599 OFFCURVE",
"234 594 OFFCURVE",
"254 587 CURVE",
"242 617 LINE",
"222 624 OFFCURVE",
"201 627 OFFCURVE",
"180 627 CURVE SMOOTH",
"102 627 OFFCURVE",
"53 571 OFFCURVE",
"53 480 CURVE SMOOTH",
"53 410 OFFCURVE",
"85 345 OFFCURVE",
"132 292 CURVE"
);
},
{
closed = 1;
nodes = (
"373 353 LINE",
"330 406 LINE",
"288 353 LINE",
"330 299 LINE"
);
}
);
width = 389;
},
{
layerId = "1C76EA3D-1F01-478B-AF6D-23469B2400A3";
paths = (
{
closed = 1;
nodes = (
"322 -5 OFFCURVE",
"389 42 OFFCURVE",
"389 110 CURVE SMOOTH",
"389 150 OFFCURVE",
"367 183 OFFCURVE",
"331 183 CURVE SMOOTH",
"293 183 OFFCURVE",
"272 153 OFFCURVE",
"272 114 CURVE SMOOTH",
"272 102 OFFCURVE",
"276 80 OFFCURVE",
"283 67 CURVE",
"293 90 LINE",
"272 69 OFFCURVE",
"243 59 OFFCURVE",
"214 59 CURVE SMOOTH",
"167 59 OFFCURVE",
"132 93 OFFCURVE",
"132 142 CURVE SMOOTH",
"132 217 OFFCURVE",
"194 272 OFFCURVE",
"287 313 CURVE",
"240 391 LINE",
"137 350 OFFCURVE",
"64 273 OFFCURVE",
"64 175 CURVE SMOOTH",
"64 82 OFFCURVE",
"144 -5 OFFCURVE",
"248 -5 CURVE SMOOTH"
);
},
{
closed = 1;
nodes = (
"177 326 LINE",
"146 365 OFFCURVE",
"125 404 OFFCURVE",
"125 452 CURVE SMOOTH",
"125 513 OFFCURVE",
"167 552 OFFCURVE",
"222 552 CURVE SMOOTH",
"249 552 OFFCURVE",
"278 548 OFFCURVE",
"303 539 CURVE",
"276 616 LINE",
"251 624 OFFCURVE",
"225 627 OFFCURVE",
"199 627 CURVE SMOOTH",
"111 627 OFFCURVE",
"58 571 OFFCURVE",
"58 479 CURVE SMOOTH",
"58 413 OFFCURVE",
"94 351 OFFCURVE",
"146 300 CURVE"
);
},
{
closed = 1;
nodes = (
"431 353 LINE",
"373 422 LINE",
"313 353 LINE",
"373 283 LINE"
);
}
);
width = 448;
},
{
layerId = "48B0D659-D2E4-4014-AFB5-7353283B7180";
paths = (
{
closed = 1;
nodes = (
"364 -7 OFFCURVE",
"433 43 OFFCURVE",
"433 114 CURVE SMOOTH",
"433 162 OFFCURVE",
"406 199 OFFCURVE",
"362 199 CURVE SMOOTH",
"319 199 OFFCURVE",
"292 165 OFFCURVE",
"292 122 CURVE SMOOTH",
"292 106 OFFCURVE",
"296 88 OFFCURVE",
"304 70 CURVE",
"324 117 LINE",
"301 91 OFFCURVE",
"273 77 OFFCURVE",
"242 77 CURVE SMOOTH",
"202 77 OFFCURVE",
"174 104 OFFCURVE",
"174 143 CURVE SMOOTH",
"174 206 OFFCURVE",
"230 255 OFFCURVE",
"330 291 CURVE",
"277 397 LINE",
"154 355 OFFCURVE",
"79 282 OFFCURVE",
"79 185 CURVE SMOOTH",
"79 85 OFFCURVE",
"164 -7 OFFCURVE",
"278 -7 CURVE SMOOTH"
);
},
{
closed = 1;
nodes = (
"211 335 LINE",
"184 367 OFFCURVE",
"166 401 OFFCURVE",
"166 442 CURVE SMOOTH",
"166 497 OFFCURVE",
"206 530 OFFCURVE",
"260 530 CURVE SMOOTH",
"289 530 OFFCURVE",
"321 526 OFFCURVE",
"348 519 CURVE",
"311 620 LINE",
"282 626 OFFCURVE",
"251 630 OFFCURVE",
"221 630 CURVE SMOOTH",
"127 630 OFFCURVE",
"71 571 OFFCURVE",
"71 486 CURVE SMOOTH",
"71 417 OFFCURVE",
"112 354 OFFCURVE",
"164 302 CURVE"
);
},
{
closed = 1;
nodes = (
"479 352 LINE",
"409 431 LINE",
"340 352 LINE",
"409 273 LINE"
);
}
);
width = 505;
},
{
layerId = "E10056C4-06A7-4834-9783-123B62B78F3D";
paths = (
{
closed = 1;
nodes = (
"389 -9 OFFCURVE",
"457 44 OFFCURVE",
"457 117 CURVE SMOOTH",
"457 170 OFFCURVE",
"428 210 OFFCURVE",
"379 210 CURVE SMOOTH",
"331 210 OFFCURVE",
"302 174 OFFCURVE",
"302 126 CURVE SMOOTH",
"302 109 OFFCURVE",
"306 94 OFFCURVE",
"314 72 CURVE",
"341 136 LINE",
"318 107 OFFCURVE",
"291 89 OFFCURVE",
"259 89 CURVE SMOOTH",
"224 89 OFFCURVE",
"203 111 OFFCURVE",
"203 141 CURVE SMOOTH",
"203 196 OFFCURVE",
"257 241 OFFCURVE",
"357 276 CURVE",
"297 402 LINE",
"165 358 OFFCURVE",
"89 286 OFFCURVE",
"89 189 CURVE SMOOTH",
"89 87 OFFCURVE",
"177 -9 OFFCURVE",
"295 -9 CURVE SMOOTH"
);
},
{
closed = 1;
nodes = (
"232 341 LINE",
"210 368 OFFCURVE",
"195 398 OFFCURVE",
"195 434 CURVE SMOOTH",
"195 486 OFFCURVE",
"233 515 OFFCURVE",
"285 515 CURVE SMOOTH",
"315 515 OFFCURVE",
"348 511 OFFCURVE",
"374 504 CURVE",
"331 623 LINE",
"301 629 OFFCURVE",
"266 632 OFFCURVE",
"235 632 CURVE SMOOTH",
"137 632 OFFCURVE",
"81 572 OFFCURVE",
"81 491 CURVE SMOOTH",
"81 419 OFFCURVE",
"124 356 OFFCURVE",
"176 304 CURVE"
);
},
{
closed = 1;
nodes = (
"505 352 LINE",
"428 437 LINE",
"352 352 LINE",
"428 266 LINE"
);
}
);
width = 537;
}
);
note = "\012    uni1CEE\012  ";
unicode = 1CEE;
script = vedic;
category = Letter;
subCategory = Other;
userData = {
com.schriftgestaltung.Glyphs.ColorIndex = 1;
com.typemytype.robofont.layerData = {
"Light Feb 25 16, 18:08" = {
anchors = (
);
components = (
);
contours = (
{
points = (
{
segmentType = line;
smooth = 0;
x = 699;
y = 1125;
},
{
smooth = 0;
x = 638;
y = 1141;
},
{
smooth = 0;
x = 579;
y = 1149;
},
{
segmentType = curve;
smooth = 1;
x = 524;
y = 1149;
},
{
smooth = 0;
x = 411;
y = 1149;
},
{
smooth = 0;
x = 338;
y = 1117;
},
{
segmentType = curve;
smooth = 1;
x = 305;
y = 1066;
},
{
smooth = 0;
x = 288;
y = 1041;
},
{
smooth = 0;
x = 280;
y = 1012;
},
{
segmentType = curve;
smooth = 1;
x = 280;
y = 980;
},
{
smooth = 0;
x = 280;
y = 881;
},
{
smooth = 0;
x = 337;
y = 810;
},
{
segmentType = curve;
smooth = 0;
x = 464;
y = 745;
},
{
smooth = 0;
x = 523;
y = 766;
},
{
smooth = 0;
x = 586;
y = 776;
},
{
segmentType = curve;
smooth = 1;
x = 655;
y = 776;
},
{
smooth = 0;
x = 690;
y = 776;
},
{
smooth = 0;
x = 716;
y = 775;
},
{
segmentType = curve;
smooth = 0;
x = 733;
y = 772;
},
{
segmentType = line;
smooth = 0;
x = 707;
y = 626;
},
{
smooth = 0;
x = 691;
y = 627;
},
{
smooth = 0;
x = 675;
y = 628;
},
{
segmentType = curve;
smooth = 1;
x = 659;
y = 628;
},
{
smooth = 0;
x = 483;
y = 628;
},
{
smooth = 0;
x = 370;
y = 539;
},
{
segmentType = curve;
smooth = 1;
x = 370;
y = 390;
},
{
smooth = 0;
x = 370;
y = 227;
},
{
smooth = 0;
x = 464;
y = 144;
},
{
segmentType = curve;
smooth = 1;
x = 637;
y = 144;
},
{
smooth = 0;
x = 690;
y = 144;
},
{
smooth = 0;
x = 733;
y = 150;
},
{
segmentType = curve;
smooth = 0;
x = 766;
y = 163;
},
{
smooth = 0;
x = 760;
y = 177;
},
{
smooth = 0;
x = 757;
y = 194;
},
{
segmentType = curve;
smooth = 1;
x = 757;
y = 213;
},
{
smooth = 0;
x = 757;
y = 281;
},
{
smooth = 0;
x = 802;
y = 324;
},
{
segmentType = curve;
smooth = 1;
x = 874;
y = 324;
},
{
smooth = 0;
x = 918;
y = 324;
},
{
smooth = 0;
x = 958;
y = 305;
},
{
segmentType = curve;
smooth = 1;
x = 979;
y = 267;
},
{
smooth = 0;
x = 989;
y = 248;
},
{
smooth = 0;
x = 994;
y = 227;
},
{
segmentType = curve;
smooth = 1;
x = 994;
y = 205;
},
{
smooth = 0;
x = 994;
y = 77;
},
{
smooth = 0;
x = 847;
y = 0;
},
{
segmentType = curve;
smooth = 1;
x = 635;
y = 0;
},
{
smooth = 0;
x = 372;
y = 0;
},
{
smooth = 0;
x = 205;
y = 155;
},
{
segmentType = curve;
smooth = 1;
x = 205;
y = 390;
},
{
smooth = 0;
x = 205;
y = 497;
},
{
smooth = 0;
x = 244;
y = 587;
},
{
segmentType = curve;
smooth = 0;
x = 321;
y = 660;
},
{
smooth = 0;
x = 176;
y = 753;
},
{
smooth = 0;
x = 115;
y = 860;
},
{
segmentType = curve;
smooth = 1;
x = 115;
y = 989;
},
{
smooth = 0;
x = 115;
y = 1170;
},
{
smooth = 0;
x = 258;
y = 1295;
},
{
segmentType = curve;
smooth = 1;
x = 503;
y = 1295;
},
{
smooth = 0;
x = 585;
y = 1295;
},
{
smooth = 0;
x = 660;
y = 1286;
},
{
segmentType = curve;
smooth = 0;
x = 727;
y = 1268;
}
);
},
{
points = (
{
smooth = 0;
x = 1003;
y = 820;
},
{
smooth = 0;
x = 1053;
y = 765;
},
{
segmentType = curve;
smooth = 1;
x = 1053;
y = 701;
},
{
smooth = 0;
x = 1053;
y = 636;
},
{
smooth = 0;
x = 1003;
y = 582;
},
{
segmentType = curve;
smooth = 1;
x = 940;
y = 582;
},
{
smooth = 0;
x = 877;
y = 582;
},
{
smooth = 0;
x = 827;
y = 636;
},
{
segmentType = curve;
smooth = 1;
x = 827;
y = 701;
},
{
smooth = 0;
x = 827;
y = 765;
},
{
smooth = 0;
x = 877;
y = 820;
},
{
segmentType = curve;
smooth = 1;
x = 940;
y = 820;
}
);
}
);
lib = {
};
name = uni1CEE;
unicodes = (
);
width = 1103;
};
background = {
anchors = (
);
components = (
);
contours = (
{
points = (
{
smooth = 0;
x = 310;
y = 1033;
},
{
smooth = 0;
x = 350;
y = 1073;
},
{
segmentType = curve;
smooth = 1;
x = 350;
y = 1123;
},
{
smooth = 0;
x = 350;
y = 1172;
},
{
smooth = 0;
x = 310;
y = 1212;
},
{
segmentType = curve;
smooth = 1;
x = 261;
y = 1212;
},
{
smooth = 0;
x = 211;
y = 1212;
},
{
smooth = 0;
x = 171;
y = 1172;
},
{
segmentType = curve;
smooth = 1;
x = 171;
y = 1123;
},
{
smooth = 0;
x = 171;
y = 1073;
},
{
smooth = 0;
x = 211;
y = 1033;
},
{
segmentType = curve;
smooth = 1;
x = 261;
y = 1033;
}
);
},
{
points = (
{
smooth = 0;
x = 333;
y = 656;
},
{
smooth = 0;
x = 352;
y = 675;
},
{
segmentType = curve;
smooth = 1;
x = 352;
y = 699;
},
{
smooth = 0;
x = 352;
y = 723;
},
{
smooth = 0;
x = 333;
y = 742;
},
{
segmentType = curve;
smooth = 1;
x = 309;
y = 742;
},
{
smooth = 0;
x = 285;
y = 742;
},
{
smooth = 0;
x = 266;
y = 723;
},
{
segmentType = curve;
smooth = 1;
x = 266;
y = 699;
},
{
smooth = 0;
x = 266;
y = 675;
},
{
smooth = 0;
x = 285;
y = 656;
},
{
segmentType = curve;
smooth = 1;
x = 309;
y = 656;
}
);
},
{
points = (
{
smooth = 0;
x = 539;
y = 564;
},
{
smooth = 0;
x = 579;
y = 604;
},
{
segmentType = curve;
smooth = 1;
x = 579;
y = 654;
},
{
smooth = 0;
x = 579;
y = 703;
},
{
smooth = 0;
x = 539;
y = 743;
},
{
segmentType = curve;
smooth = 1;
x = 490;
y = 743;
},
{
smooth = 0;
x = 440;
y = 743;
},
{
smooth = 0;
x = 400;
y = 703;
},
{
segmentType = curve;
smooth = 1;
x = 400;
y = 654;
},
{
smooth = 0;
x = 400;
y = 604;
},
{
smooth = 0;
x = 440;
y = 564;
},
{
segmentType = curve;
smooth = 1;
x = 490;
y = 564;
}
);
},
{
points = (
{
smooth = 0;
x = 309;
y = 128;
},
{
smooth = 0;
x = 328;
y = 147;
},
{
segmentType = curve;
smooth = 1;
x = 328;
y = 171;
},
{
smooth = 0;
x = 328;
y = 195;
},
{
smooth = 0;
x = 309;
y = 214;
},
{
segmentType = curve;
smooth = 1;
x = 285;
y = 214;
},
{
smooth = 0;
x = 261;
y = 214;
},
{
smooth = 0;
x = 242;
y = 195;
},
{
segmentType = curve;
smooth = 1;
x = 242;
y = 171;
},
{
smooth = 0;
x = 242;
y = 147;
},
{
smooth = 0;
x = 261;
y = 128;
},
{
segmentType = curve;
smooth = 1;
x = 285;
y = 128;
}
);
}
);
lib = {
};
name = uni1CEE;
unicodes = (
);
width = 1002;
};
};
};
}
{
glyphname = "karshana-vedic";
production = uni1CD0;
layers = (
{
layerId = "E22305A4-B0AF-4429-B69B-D5D74FEEE350";
paths = (
{
closed = 1;
nodes = (
"-159 1167 LINE",
"-168 1168 LINE",
"-21 995 LINE",
"8 1024 LINE",
"-191 1263 LINE",
"-377 1041 LINE",
"-308 991 LINE"
);
}
);
width = 0;
},
{
layerId = "92BDF110-6149-41B0-AB08-5310EECFA1B7";
paths = (
{
closed = 1;
nodes = (
"-174 1221 LINE",
"-191 1221 LINE",
"-8 1005 LINE",
"8 1020 LINE",
"-188 1252 LINE",
"-380 1018 LINE",
"-353 1001 LINE"
);
}
);
width = 0;
},
{
layerId = "26889610-2B6B-400B-B1BB-1A42565FFDAF";
paths = (
{
closed = 1;
nodes = (
"-135 1175 LINE",
"-187 1175 LINE",
"-16 981 LINE",
"28 1023 LINE",
"-196 1280 LINE",
"-401 1049 LINE",
"-303 977 LINE"
);
}
);
width = 0;
},
{
layerId = "3E60C6C7-DFFD-4AAE-9DD7-DF994DEB26A2";
paths = (
{
closed = 1;
nodes = (
"-121 1165 LINE",
"-189 1165 LINE",
"-18 972 LINE",
"36 1025 LINE",
"-199 1290 LINE",
"-411 1059 LINE",
"-289 969 LINE"
);
}
);
width = 0;
},
{
layerId = "B188D42B-E0C1-4C36-A461-FECF08FB9142";
paths = (
{
closed = 1;
nodes = (
"-115 1193 LINE",
"-125 1193 LINE",
"-34 1020 LINE",
"-15 1031 LINE",
"-123 1237 LINE",
"-230 1031 LINE",
"-206 1016 LINE"
);
}
);
width = 0;
},
{
layerId = "1C76EA3D-1F01-478B-AF6D-23469B2400A3";
paths = (
{
closed = 1;
nodes = (
"-119 1181 LINE",
"-142 1181 LINE",
"-20 994 LINE",
"14 1018 LINE",
"-147 1262 LINE",
"-297 1030 LINE",
"-235 990 LINE"
);
}
);
width = 0;
},
{
layerId = "48B0D659-D2E4-4014-AFB5-7353283B7180";
paths = (
{
closed = 1;
nodes = (
"-110 1166 LINE",
"-150 1167 LINE",
"-16 983 LINE",
"33 1017 LINE",
"-156 1275 LINE",
"-330 1040 LINE",
"-240 979 LINE"
);
}
);
width = 0;
},
{
layerId = "E10056C4-06A7-4834-9783-123B62B78F3D";
paths = (
{
closed = 1;
nodes = (
"-99 1158 LINE",
"-153 1158 LINE",
"-13 975 LINE",
"48 1017 LINE",
"-158 1284 LINE",
"-345 1046 LINE",
"-234 972 LINE"
);
}
);
width = 0;
}
);
note = "\012    uni1CD0\012  ";
unicode = 1CD0;
script = vedic;
category = Mark;
subCategory = Nonspacing;
userData = {
com.schriftgestaltung.Glyphs.ColorIndex = 0;
com.typemytype.robofont.layerData = {
"Light Feb 24 16, 17:37" = {
anchors = (
);
components = (
);
contours = (
{
points = (
{
segmentType = line;
smooth = 0;
x = -731;
y = 1992;
},
{
segmentType = line;
smooth = 0;
x = -449;
y = 2503;
},
{
segmentType = line;
smooth = 0;
x = -323;
y = 2503;
},
{
segmentType = line;
smooth = 0;
x = -9;
y = 1996;
},
{
segmentType = line;
smooth = 0;
x = -119;
y = 1942;
},
{
segmentType = line;
smooth = 0;
x = -379;
y = 2378;
},
{
segmentType = line;
smooth = 0;
x = -610;
y = 1942;
}
);
}
);
lib = {
};
name = uni1CD0;
unicodes = (
);
width = 0;
};
background = {
anchors = (
);
components = (
);
contours = (
{
points = (
{
smooth = 0;
x = -536;
y = 2040;
},
{
smooth = 0;
x = -496;
y = 2080;
},
{
segmentType = curve;
smooth = 1;
x = -496;
y = 2130;
},
{
smooth = 0;
x = -496;
y = 2179;
},
{
smooth = 0;
x = -536;
y = 2219;
},
{
segmentType = curve;
smooth = 1;
x = -585;
y = 2219;
},
{
smooth = 0;
x = -635;
y = 2219;
},
{
smooth = 0;
x = -675;
y = 2179;
},
{
segmentType = curve;
smooth = 1;
x = -675;
y = 2130;
},
{
smooth = 0;
x = -675;
y = 2080;
},
{
smooth = 0;
x = -635;
y = 2040;
},
{
segmentType = curve;
smooth = 1;
x = -585;
y = 2040;
}
);
},
{
points = (
{
smooth = 0;
x = -99;
y = 2070;
},
{
smooth = 0;
x = -80;
y = 2089;
},
{
segmentType = curve;
smooth = 1;
x = -80;
y = 2113;
},
{
smooth = 0;
x = -80;
y = 2137;
},
{
smooth = 0;
x = -99;
y = 2156;
},
{
segmentType = curve;
smooth = 1;
x = -123;
y = 2156;
},
{
smooth = 0;
x = -147;
y = 2156;
},
{
smooth = 0;
x = -166;
y = 2137;
},
{
segmentType = curve;
smooth = 1;
x = -166;
y = 2113;
},
{
smooth = 0;
x = -166;
y = 2089;
},
{
smooth = 0;
x = -147;
y = 2070;
},
{
segmentType = curve;
smooth = 1;
x = -123;
y = 2070;
}
);
}
);
lib = {
};
name = uni1CD0;
unicodes = (
);
width = 0;
};
};
};
}
{
glyphname = "kathakaAnudatta-vedic";
production = uni1CDC;
layers = (
{
anchors = (
{
name = _bottom_right;
position = "{-122, 0}";
}
);
layerId = "E22305A4-B0AF-4429-B69B-D5D74FEEE350";
paths = (
{
closed = 1;
nodes = (
"-84 -257 LINE",
"-84 -74 LINE",
"-150 -26 LINE",
"-160 -26 LINE",
"-160 -209 LINE",
"-94 -257 LINE"
);
}
);
width = 0;
},
{
anchors = (
{
name = _bottom_right;
position = "{-113, 0}";
}
);
layerId = "92BDF110-6149-41B0-AB08-5310EECFA1B7";
paths = (
{
closed = 1;
nodes = (
"-100 -248 LINE",
"-100 -62 LINE",
"-123 -46 LINE",
"-127 -46 LINE",
"-127 -232 LINE",
"-105 -248 LINE"
);
}
);
width = 0;
},
{
anchors = (
{
name = _bottom_right;
position = "{-132, 0}";
}
);
layerId = "26889610-2B6B-400B-B1BB-1A42565FFDAF";
paths = (
{
closed = 1;
nodes = (
"-70 -272 LINE",
"-70 -84 LINE",
"-182 -12 LINE",
"-195 -12 LINE",
"-195 -200 LINE",
"-83 -272 LINE"
);
}
);
width = 0;
},
{
anchors = (
{
name = _bottom_right;
position = "{-140, 0}";
}
);
layerId = "3E60C6C7-DFFD-4AAE-9DD7-DF994DEB26A2";
paths = (
{
closed = 1;
nodes = (
"-60 -293 LINE",
"-60 -94 LINE",
"-204 -3 LINE",
"-220 -3 LINE",
"-220 -202 LINE",
"-76 -293 LINE"
);
}
);
width = 0;
},
{
anchors = (
{
name = _bottom_right;
position = "{-86, 0}";
}
);
layerId = "B188D42B-E0C1-4C36-A461-FECF08FB9142";
paths = (
{
closed = 1;
nodes = (
"-72 -248 LINE",
"-72 -61 LINE",
"-96 -46 LINE",
"-101 -46 LINE",
"-101 -233 LINE",
"-77 -248 LINE"
);
}
);
width = 0;
},
{
anchors = (
{
name = _bottom_right;
position = "{-98, 0}";
}
);
layerId = "1C76EA3D-1F01-478B-AF6D-23469B2400A3";
paths = (
{
closed = 1;
nodes = (
"-63 -255 LINE",
"-63 -63 LINE",
"-124 -29 LINE",
"-134 -29 LINE",
"-134 -221 LINE",
"-73 -255 LINE"
);
}
);
width = 0;
},
{
anchors = (
{
name = _bottom_right;
position = "{-108, 0}";
}
);
layerId = "48B0D659-D2E4-4014-AFB5-7353283B7180";
paths = (
{
closed = 1;
nodes = (
"-54 -266 LINE",
"-54 -74 LINE",
"-151 -19 LINE",
"-163 -19 LINE",
"-163 -211 LINE",
"-67 -266 LINE"
);
}
);
width = 0;
},
{
anchors = (
{
name = _bottom_right;
position = "{-114, 0}";
}
);
layerId = "E10056C4-06A7-4834-9783-123B62B78F3D";
paths = (
{
closed = 1;
nodes = (
"-46 -284 LINE",
"-46 -81 LINE",
"-167 -12 LINE",
"-182 -12 LINE",
"-182 -215 LINE",
"-60 -284 LINE"
);
}
);
width = 0;
}
);
note = "\012    uni1CDC\012  ";
unicode = 1CDC;
script = vedic;
category = Mark;
subCategory = Nonspacing;
userData = {
com.schriftgestaltung.Glyphs.ColorIndex = 1;
com.typemytype.robofont.layerData = {
"Light Feb 25 16, 12:32" = {
anchors = (
);
components = (
);
contours = (
{
points = (
{
segmentType = line;
smooth = 0;
x = -183;
y = -493;
},
{
segmentType = line;
smooth = 0;
x = -348;
y = -493;
},
{
segmentType = line;
smooth = 0;
x = -348;
y = -104;
},
{
segmentType = line;
smooth = 0;
x = -183;
y = -104;
}
);
}
);
lib = {
};
name = uni1CDC;
unicodes = (
);
width = 0;
};
};
};
}
{
glyphname = "longAnusvara-vedic";
production = uni1CEF;
layers = (
{
layerId = "E22305A4-B0AF-4429-B69B-D5D74FEEE350";
paths = (
{
closed = 1;
nodes = (
"345 278 OFFCURVE",
"391 288 OFFCURVE",
"422 299 CURVE",
"400 380 LINE",
"360 364 OFFCURVE",
"305 355 OFFCURVE",
"264 355 CURVE SMOOTH",
"192 355 OFFCURVE",
"120 374 OFFCURVE",
"120 435 CURVE SMOOTH",
"120 520 OFFCURVE",
"243 555 OFFCURVE",
"375 555 CURVE",
"339 634 LINE",
"193 634 OFFCURVE",
"62 594 OFFCURVE",
"62 466 CURVE SMOOTH",
"62 363 OFFCURVE",
"180 278 OFFCURVE",
"303 278 CURVE SMOOTH"
);
},
{
closed = 1;
nodes = (
"345 -5 OFFCURVE",
"404 34 OFFCURVE",
"404 92 CURVE SMOOTH",
"404 162 OFFCURVE",
"354 221 OFFCURVE",
"284 221 CURVE SMOOTH",
"271 221 OFFCURVE",
"255 219 OFFCURVE",
"238 215 CURVE",
"260 140 LINE",
"279 145 OFFCURVE",
"298 148 OFFCURVE",
"314 148 CURVE SMOOTH",
"339 148 OFFCURVE",
"356 144 OFFCURVE",
"356 125 CURVE SMOOTH",
"356 98 OFFCURVE",
"302 74 OFFCURVE",
"248 74 CURVE SMOOTH",
"187 74 OFFCURVE",
"135 93 OFFCURVE",
"135 145 CURVE SMOOTH",
"135 215 OFFCURVE",
"242 269 OFFCURVE",
"324 279 CURVE",
"283 350 LINE",
"148 335 OFFCURVE",
"86 247 OFFCURVE",
"86 174 CURVE SMOOTH",
"86 67 OFFCURVE",
"181 -5 OFFCURVE",
"277 -5 CURVE SMOOTH"
);
},
{
closed = 1;
nodes = (
"357 451 LINE",
"292 517 LINE",
"226 451 LINE",
"292 385 LINE"
);
}
);
width = 460;
},
{
layerId = "92BDF110-6149-41B0-AB08-5310EECFA1B7";
paths = (
{
closed = 1;
nodes = (
"307 299 OFFCURVE",
"358 308 OFFCURVE",
"407 323 CURVE",
"398 353 LINE",
"354 336 OFFCURVE",
"303 326 OFFCURVE",
"253 326 CURVE SMOOTH",
"160 326 OFFCURVE",
"91 369 OFFCURVE",
"91 451 CURVE SMOOTH",
"91 551 OFFCURVE",
"182 605 OFFCURVE",
"349 605 CURVE",
"336 633 LINE",
"165 633 OFFCURVE",
"67 565 OFFCURVE",
"67 456 CURVE SMOOTH",
"67 359 OFFCURVE",
"152 299 OFFCURVE",
"259 299 CURVE SMOOTH"
);
},
{
closed = 1;
nodes = (
"328 -5 OFFCURVE",
"379 39 OFFCURVE",
"379 101 CURVE SMOOTH",
"379 156 OFFCURVE",
"343 199 OFFCURVE",
"274 199 CURVE SMOOTH",
"258 199 OFFCURVE",
"245 197 OFFCURVE",
"229 193 CURVE",
"237 167 LINE",
"251 171 OFFCURVE",
"267 173 OFFCURVE",
"280 173 CURVE SMOOTH",
"330 173 OFFCURVE",
"355 147 OFFCURVE",
"355 106 CURVE SMOOTH",
"355 60 OFFCURVE",
"315 22 OFFCURVE",
"250 22 CURVE SMOOTH",
"180 22 OFFCURVE",
"116 65 OFFCURVE",
"116 140 CURVE SMOOTH",
"116 230 OFFCURVE",
"195 287 OFFCURVE",
"299 301 CURVE",
"278 323 LINE",
"171 308 OFFCURVE",
"91 238 OFFCURVE",
"91 146 CURVE SMOOTH",
"91 55 OFFCURVE",
"167 -5 OFFCURVE",
"256 -5 CURVE SMOOTH"
);
},
{
closed = 1;
nodes = (
"327 458 LINE",
"275 511 LINE",
"223 458 LINE",
"275 406 LINE"
);
}
);
width = 450;
},
{
layerId = "26889610-2B6B-400B-B1BB-1A42565FFDAF";
paths = (
{
closed = 1;
nodes = (
"345 271 OFFCURVE",
"396 280 OFFCURVE",
"449 297 CURVE",
"418 405 LINE",
"362 381 OFFCURVE",
"307 370 OFFCURVE",
"255 370 CURVE SMOOTH",
"189 370 OFFCURVE",
"143 393 OFFCURVE",
"143 437 CURVE SMOOTH",
"143 506 OFFCURVE",
"259 537 OFFCURVE",
"409 537 CURVE",
"363 637 LINE",
"183 637 OFFCURVE",
"61 590 OFFCURVE",
"61 467 CURVE SMOOTH",
"61 370 OFFCURVE",
"173 271 OFFCURVE",
"298 271 CURVE SMOOTH"
);
},
{
closed = 1;
nodes = (
"376 -16 OFFCURVE",
"428 31 OFFCURVE",
"428 95 CURVE SMOOTH",
"428 170 OFFCURVE",
"364 243 OFFCURVE",
"276 243 CURVE SMOOTH",
"258 243 OFFCURVE",
"240 242 OFFCURVE",
"222 237 CURVE",
"252 132 LINE",
"276 143 OFFCURVE",
"301 149 OFFCURVE",
"319 149 CURVE SMOOTH",
"342 149 OFFCURVE",
"353 142 OFFCURVE",
"353 126 CURVE SMOOTH",
"353 102 OFFCURVE",
"311 83 OFFCURVE",
"263 83 CURVE SMOOTH",
"206 83 OFFCURVE",
"162 112 OFFCURVE",
"162 154 CURVE SMOOTH",
"162 216 OFFCURVE",
"241 257 OFFCURVE",
"333 273 CURVE",
"270 360 LINE",
"166 350 OFFCURVE",
"86 276 OFFCURVE",
"86 179 CURVE SMOOTH",
"86 81 OFFCURVE",
"176 -16 OFFCURVE",
"293 -16 CURVE SMOOTH"
);
},
{
closed = 1;
nodes = (
"361 451 LINE",
"306 505 LINE",
"252 451 LINE",
"306 398 LINE"
);
}
);
width = 486;
},
{
layerId = "3E60C6C7-DFFD-4AAE-9DD7-DF994DEB26A2";
paths = (
{
closed = 1;
nodes = (
"357 263 OFFCURVE",
"409 271 OFFCURVE",
"467 290 CURVE",
"429 424 LINE",
"366 396 OFFCURVE",
"310 385 OFFCURVE",
"256 385 CURVE SMOOTH",
"198 385 OFFCURVE",
"161 403 OFFCURVE",
"161 435 CURVE SMOOTH",
"161 492 OFFCURVE",
"283 515 OFFCURVE",
"434 515 CURVE",
"376 638 LINE",
"188 638 OFFCURVE",
"60 597 OFFCURVE",
"60 470 CURVE SMOOTH",
"60 374 OFFCURVE",
"179 263 OFFCURVE",
"310 263 CURVE SMOOTH"
);
},
{
closed = 1;
nodes = (
"396 -20 OFFCURVE",
"448 28 OFFCURVE",
"448 94 CURVE SMOOTH",
"448 175 OFFCURVE",
"373 259 OFFCURVE",
"277 259 CURVE SMOOTH",
"257 259 OFFCURVE",
"238 258 OFFCURVE",
"219 253 CURVE",
"257 122 LINE",
"284 134 OFFCURVE",
"313 143 OFFCURVE",
"333 143 CURVE SMOOTH",
"348 143 OFFCURVE",
"354 140 OFFCURVE",
"354 131 CURVE SMOOTH",
"354 114 OFFCURVE",
"314 101 OFFCURVE",
"270 101 CURVE SMOOTH",
"217 101 OFFCURVE",
"180 128 OFFCURVE",
"180 159 CURVE SMOOTH",
"180 211 OFFCURVE",
"254 246 OFFCURVE",
"345 264 CURVE",
"268 372 LINE",
"169 365 OFFCURVE",
"85 292 OFFCURVE",
"85 189 CURVE SMOOTH",
"85 91 OFFCURVE",
"178 -20 OFFCURVE",
"306 -20 CURVE SMOOTH"
);
},
{
closed = 1;
nodes = (
"373 450 LINE",
"319 501 LINE",
"265 450 LINE",
"319 398 LINE"
);
}
);
width = 502;
},
{
layerId = "B188D42B-E0C1-4C36-A461-FECF08FB9142";
paths = (
{
closed = 1;
nodes = (
"236 297 OFFCURVE",
"273 304 OFFCURVE",
"308 316 CURVE",
"299 346 LINE",
"269 333 OFFCURVE",
"231 325 OFFCURVE",
"196 325 CURVE SMOOTH",
"127 325 OFFCURVE",
"74 366 OFFCURVE",
"74 446 CURVE SMOOTH",
"74 535 OFFCURVE",
"156 587 OFFCURVE",
"266 605 CURVE",
"252 633 LINE",
"137 613 OFFCURVE",
"49 549 OFFCURVE",
"49 451 CURVE SMOOTH",
"49 357 OFFCURVE",
"119 297 OFFCURVE",
"202 297 CURVE SMOOTH"
);
},
{
closed = 1;
nodes = (
"250 -5 OFFCURVE",
"289 40 OFFCURVE",
"289 104 CURVE SMOOTH",
"289 158 OFFCURVE",
"259 200 OFFCURVE",
"207 200 CURVE SMOOTH",
"197 200 OFFCURVE",
"186 199 OFFCURVE",
"173 195 CURVE",
"182 170 LINE",
"192 173 OFFCURVE",
"204 175 OFFCURVE",
"213 175 CURVE SMOOTH",
"247 175 OFFCURVE",
"264 150 OFFCURVE",
"264 109 CURVE SMOOTH",
"264 58 OFFCURVE",
"232 22 OFFCURVE",
"182 22 CURVE SMOOTH",
"134 22 OFFCURVE",
"92 62 OFFCURVE",
"92 132 CURVE SMOOTH",
"92 222 OFFCURVE",
"160 278 OFFCURVE",
"233 300 CURVE",
"214 324 LINE",
"132 294 OFFCURVE",
"68 230 OFFCURVE",
"68 137 CURVE SMOOTH",
"68 52 OFFCURVE",
"124 -5 OFFCURVE",
"188 -5 CURVE SMOOTH"
);
},
{
closed = 1;
nodes = (
"250 458 LINE",
"209 511 LINE",
"167 458 LINE",
"209 405 LINE"
);
}
);
width = 339;
},
{
layerId = "1C76EA3D-1F01-478B-AF6D-23469B2400A3";
paths = (
{
closed = 1;
nodes = (
"273 280 OFFCURVE",
"311 290 OFFCURVE",
"341 301 CURVE",
"322 378 LINE",
"288 362 OFFCURVE",
"244 353 OFFCURVE",
"207 353 CURVE SMOOTH",
"151 353 OFFCURVE",
"101 378 OFFCURVE",
"101 431 CURVE SMOOTH",
"101 511 OFFCURVE",
"190 552 OFFCURVE",
"306 560 CURVE",
"275 634 LINE",
"146 626 OFFCURVE",
"49 567 OFFCURVE",
"49 460 CURVE SMOOTH",
"49 366 OFFCURVE",
"141 280 OFFCURVE",
"238 280 CURVE SMOOTH"
);
},
{
closed = 1;
nodes = (
"279 -5 OFFCURVE",
"326 36 OFFCURVE",
"326 98 CURVE SMOOTH",
"326 163 OFFCURVE",
"288 219 OFFCURVE",
"218 219 CURVE SMOOTH",
"208 219 OFFCURVE",
"197 217 OFFCURVE",
"185 213 CURVE",
"204 143 LINE",
"221 147 OFFCURVE",
"237 150 OFFCURVE",
"250 150 CURVE SMOOTH",
"272 150 OFFCURVE",
"282 143 OFFCURVE",
"282 127 CURVE SMOOTH",
"282 97 OFFCURVE",
"241 69 OFFCURVE",
"196 69 CURVE SMOOTH",
"151 69 OFFCURVE",
"114 89 OFFCURVE",
"114 140 CURVE SMOOTH",
"114 215 OFFCURVE",
"191 264 OFFCURVE",
"269 282 CURVE",
"221 347 LINE",
"107 313 OFFCURVE",
"69 242 OFFCURVE",
"69 167 CURVE SMOOTH",
"69 64 OFFCURVE",
"140 -5 OFFCURVE",
"219 -5 CURVE SMOOTH"
);
},
{
closed = 1;
nodes = (
"284 451 LINE",
"235 516 LINE",
"186 451 LINE",
"235 387 LINE"
);
}
);
width = 372;
},
{
layerId = "48B0D659-D2E4-4014-AFB5-7353283B7180";
paths = (
{
closed = 1;
nodes = (
"285 272 OFFCURVE",
"325 281 OFFCURVE",
"363 296 CURVE",
"336 398 LINE",
"294 377 OFFCURVE",
"249 367 OFFCURVE",
"211 367 CURVE SMOOTH",
"161 367 OFFCURVE",
"121 388 OFFCURVE",
"121 428 CURVE SMOOTH",
"121 499 OFFCURVE",
"219 534 OFFCURVE",
"334 539 CURVE",
"292 636 LINE",
"149 629 OFFCURVE",
"48 571 OFFCURVE",
"48 460 CURVE SMOOTH",
"48 366 OFFCURVE",
"145 272 OFFCURVE",
"249 272 CURVE SMOOTH"
);
},
{
closed = 1;
nodes = (
"305 -12 OFFCURVE",
"349 32 OFFCURVE",
"349 95 CURVE SMOOTH",
"349 168 OFFCURVE",
"296 237 OFFCURVE",
"222 237 CURVE SMOOTH",
"209 237 OFFCURVE",
"195 235 OFFCURVE",
"180 231 CURVE",
"208 133 LINE",
"227 141 OFFCURVE",
"246 147 OFFCURVE",
"260 147 CURVE SMOOTH",
"276 147 OFFCURVE",
"284 141 OFFCURVE",
"284 129 CURVE SMOOTH",
"284 107 OFFCURVE",
"245 84 OFFCURVE",
"206 84 CURVE SMOOTH",
"165 84 OFFCURVE",
"134 104 OFFCURVE",
"134 144 CURVE SMOOTH",
"134 213 OFFCURVE",
"202 259 OFFCURVE",
"284 275 CURVE",
"213 361 LINE",
"119 326 OFFCURVE",
"68 254 OFFCURVE",
"68 173 CURVE SMOOTH",
"68 74 OFFCURVE",
"144 -12 OFFCURVE",
"239 -12 CURVE SMOOTH"
);
},
{
closed = 1;
nodes = (
"296 451 LINE",
"249 510 LINE",
"203 451 LINE",
"249 391 LINE"
);
}
);
width = 392;
},
{
layerId = "E10056C4-06A7-4834-9783-123B62B78F3D";
paths = (
{
closed = 1;
nodes = (
"285 266 OFFCURVE",
"326 275 OFFCURVE",
"371 292 CURVE",
"338 413 LINE",
"290 388 OFFCURVE",
"247 377 OFFCURVE",
"208 377 CURVE SMOOTH",
"163 377 OFFCURVE",
"133 395 OFFCURVE",
"133 426 CURVE SMOOTH",
"133 489 OFFCURVE",
"233 521 OFFCURVE",
"348 525 CURVE",
"298 637 LINE",
"145 630 OFFCURVE",
"46 571 OFFCURVE",
"46 460 CURVE SMOOTH",
"46 367 OFFCURVE",
"144 266 OFFCURVE",
"249 266 CURVE SMOOTH"
);
},
{
closed = 1;
nodes = (
"317 -17 OFFCURVE",
"357 29 OFFCURVE",
"357 93 CURVE SMOOTH",
"357 171 OFFCURVE",
"295 249 OFFCURVE",
"217 249 CURVE SMOOTH",
"203 249 OFFCURVE",
"187 248 OFFCURVE",
"171 243 CURVE",
"204 126 LINE",
"226 137 OFFCURVE",
"246 144 OFFCURVE",
"261 144 CURVE SMOOTH",
"272 144 OFFCURVE",
"277 140 OFFCURVE",
"277 131 CURVE SMOOTH",
"277 114 OFFCURVE",
"242 94 OFFCURVE",
"207 94 CURVE SMOOTH",
"171 94 OFFCURVE",
"147 115 OFFCURVE",
"147 147 CURVE SMOOTH",
"147 211 OFFCURVE",
"205 254 OFFCURVE",
"288 270 CURVE",
"201 371 LINE",
"123 333 OFFCURVE",
"66 263 OFFCURVE",
"66 177 CURVE SMOOTH",
"66 81 OFFCURVE",
"142 -17 OFFCURVE",
"247 -17 CURVE SMOOTH"
);
},
{
closed = 1;
nodes = (
"297 450 LINE",
"254 505 LINE",
"211 450 LINE",
"254 395 LINE"
);
}
);
width = 397;
}
);
note = "\012    uni1CEF\012  ";
unicode = 1CEF;
script = vedic;
category = Letter;
subCategory = Other;
userData = {
com.schriftgestaltung.Glyphs.ColorIndex = 1;
com.typemytype.robofont.layerData = {
"Light Feb 25 16, 18:18" = {
anchors = (
);
components = (
);
contours = (
{
points = (
{
segmentType = line;
smooth = 0;
x = 864;
y = 587;
},
{
smooth = 0;
x = 805;
y = 567;
},
{
smooth = 0;
x = 739;
y = 553;
},
{
segmentType = curve;
smooth = 0;
x = 666;
y = 545;
},
{
smooth = 0;
x = 450;
y = 506;
},
{
smooth = 0;
x = 341;
y = 411;
},
{
segmentType = curve;
smooth = 1;
x = 341;
y = 270;
},
{
smooth = 0;
x = 341;
y = 167;
},
{
smooth = 0;
x = 409;
y = 107;
},
{
segmentType = curve;
smooth = 1;
x = 512;
y = 107;
},
{
smooth = 0;
x = 596;
y = 107;
},
{
smooth = 0;
x = 636;
y = 141;
},
{
segmentType = curve;
smooth = 1;
x = 636;
y = 192;
},
{
smooth = 0;
x = 636;
y = 249;
},
{
smooth = 0;
x = 581;
y = 284;
},
{
segmentType = curve;
smooth = 0;
x = 468;
y = 284;
},
{
segmentType = line;
smooth = 0;
x = 490;
y = 423;
},
{
smooth = 0;
x = 685;
y = 418;
},
{
smooth = 0;
x = 774;
y = 327;
},
{
segmentType = curve;
smooth = 1;
x = 774;
y = 186;
},
{
smooth = 0;
x = 774;
y = 55;
},
{
smooth = 0;
x = 678;
y = -24;
},
{
segmentType = curve;
smooth = 1;
x = 507;
y = -24;
},
{
smooth = 0;
x = 391;
y = -24;
},
{
smooth = 0;
x = 290;
y = 14;
},
{
segmentType = curve;
smooth = 1;
x = 229;
y = 107;
},
{
smooth = 0;
x = 198;
y = 154;
},
{
smooth = 0;
x = 183;
y = 212;
},
{
segmentType = curve;
smooth = 1;
x = 183;
y = 283;
},
{
smooth = 0;
x = 183;
y = 408;
},
{
smooth = 0;
x = 247;
y = 505;
},
{
segmentType = curve;
smooth = 0;
x = 374;
y = 574;
},
{
smooth = 0;
x = 211;
y = 629;
},
{
smooth = 0;
x = 119;
y = 754;
},
{
segmentType = curve;
smooth = 1;
x = 119;
y = 910;
},
{
smooth = 0;
x = 119;
y = 1150;
},
{
smooth = 0;
x = 305;
y = 1295;
},
{
segmentType = curve;
smooth = 1;
x = 614;
y = 1295;
},
{
smooth = 0;
x = 697;
y = 1295;
},
{
smooth = 0;
x = 763;
y = 1289;
},
{
segmentType = curve;
smooth = 0;
x = 812;
y = 1278;
},
{
segmentType = line;
smooth = 0;
x = 800;
y = 1129;
},
{
smooth = 0;
x = 748;
y = 1140;
},
{
smooth = 0;
x = 686;
y = 1146;
},
{
segmentType = curve;
smooth = 1;
x = 615;
y = 1146;
},
{
smooth = 0;
x = 475;
y = 1146;
},
{
smooth = 0;
x = 376;
y = 1111;
},
{
segmentType = curve;
smooth = 1;
x = 325;
y = 1040;
},
{
smooth = 0;
x = 299;
y = 1005;
},
{
smooth = 0;
x = 286;
y = 961;
},
{
segmentType = curve;
smooth = 1;
x = 286;
y = 910;
},
{
smooth = 0;
x = 286;
y = 761;
},
{
smooth = 0;
x = 387;
y = 677;
},
{
segmentType = curve;
smooth = 1;
x = 570;
y = 677;
},
{
smooth = 0;
x = 655;
y = 677;
},
{
smooth = 0;
x = 738;
y = 693;
},
{
segmentType = curve;
smooth = 0;
x = 819;
y = 726;
}
);
},
{
points = (
{
smooth = 0;
x = 651;
y = 1027;
},
{
smooth = 0;
x = 699;
y = 977;
},
{
segmentType = curve;
smooth = 1;
x = 699;
y = 914;
},
{
smooth = 0;
x = 699;
y = 851;
},
{
smooth = 0;
x = 651;
y = 801;
},
{
segmentType = curve;
smooth = 1;
x = 592;
y = 801;
},
{
smooth = 0;
x = 533;
y = 801;
},
{
smooth = 0;
x = 485;
y = 851;
},
{
segmentType = curve;
smooth = 1;
x = 485;
y = 914;
},
{
smooth = 0;
x = 485;
y = 977;
},
{
smooth = 0;
x = 533;
y = 1027;
},
{
segmentType = curve;
smooth = 1;
x = 592;
y = 1027;
}
);
}
);
lib = {
};
name = uni1CEF;
unicodes = (
);
width = 943;
};
"Light Feb 27 16, 13:21" = {
anchors = (
);
components = (
);
contours = (
{
points = (
{
smooth = 0;
x = 369;
y = 569;
},
{
smooth = 0;
x = 127;
y = 744;
},
{
segmentType = curve;
smooth = 1;
x = 127;
y = 954;
},
{
smooth = 0;
x = 127;
y = 1215;
},
{
smooth = 0;
x = 400;
y = 1314;
},
{
segmentType = curve;
smooth = 0;
x = 694;
y = 1296;
},
{
segmentType = line;
smooth = 0;
x = 768;
y = 1132;
},
{
smooth = 0;
x = 546;
y = 1161;
},
{
smooth = 0;
x = 230;
y = 1069;
},
{
segmentType = curve;
smooth = 1;
x = 247;
y = 874;
},
{
smooth = 0;
x = 256;
y = 774;
},
{
smooth = 0;
x = 377;
y = 728;
},
{
segmentType = curve;
smooth = 1;
x = 540;
y = 728;
},
{
smooth = 0;
x = 625;
y = 728;
},
{
smooth = 0;
x = 738;
y = 746;
},
{
segmentType = curve;
smooth = 0;
x = 819;
y = 779;
},
{
segmentType = line;
smooth = 0;
x = 864;
y = 612;
},
{
smooth = 0;
x = 801;
y = 589;
},
{
smooth = 0;
x = 706;
y = 569;
},
{
segmentType = curve;
smooth = 1;
x = 621;
y = 569;
}
);
},
{
points = (
{
segmentType = line;
smooth = 0;
x = 434;
y = 423;
},
{
smooth = 0;
x = 486;
y = 446;
},
{
smooth = 0;
x = 543;
y = 452;
},
{
segmentType = curve;
smooth = 1;
x = 581;
y = 452;
},
{
smooth = 0;
x = 726;
y = 452;
},
{
smooth = 0;
x = 827;
y = 331;
},
{
segmentType = curve;
smooth = 1;
x = 827;
y = 188;
},
{
smooth = 0;
x = 827;
y = 69;
},
{
smooth = 0;
x = 706;
y = -11;
},
{
segmentType = curve;
smooth = 1;
x = 567;
y = -11;
},
{
smooth = 0;
x = 370;
y = -11;
},
{
smooth = 0;
x = 177;
y = 138;
},
{
segmentType = curve;
smooth = 1;
x = 177;
y = 357;
},
{
smooth = 0;
x = 177;
y = 506;
},
{
smooth = 0;
x = 304;
y = 686;
},
{
segmentType = curve;
smooth = 0;
x = 579;
y = 716;
},
{
segmentType = line;
smooth = 0;
x = 663;
y = 571;
},
{
smooth = 0;
x = 495;
y = 551;
},
{
smooth = 0;
x = 277;
y = 441;
},
{
segmentType = curve;
smooth = 1;
x = 277;
y = 297;
},
{
smooth = 0;
x = 277;
y = 191;
},
{
smooth = 0;
x = 383;
y = 152;
},
{
segmentType = curve;
smooth = 1;
x = 507;
y = 152;
},
{
smooth = 0;
x = 619;
y = 152;
},
{
smooth = 0;
x = 730;
y = 201;
},
{
segmentType = curve;
smooth = 1;
x = 730;
y = 255;
},
{
smooth = 0;
x = 730;
y = 294;
},
{
smooth = 0;
x = 694;
y = 303;
},
{
segmentType = curve;
smooth = 1;
x = 643;
y = 303;
},
{
smooth = 0;
x = 599;
y = 303;
},
{
smooth = 0;
x = 545;
y = 293;
},
{
segmentType = curve;
smooth = 0;
x = 494;
y = 275;
}
);
},
{
points = (
{
smooth = 0;
x = 704;
y = 979;
},
{
smooth = 0;
x = 678;
y = 1025;
},
{
segmentType = curve;
smooth = 1;
x = 596;
y = 1025;
},
{
smooth = 0;
x = 512;
y = 1025;
},
{
smooth = 0;
x = 487;
y = 979;
},
{
segmentType = curve;
smooth = 1;
x = 487;
y = 925;
},
{
smooth = 0;
x = 487;
y = 868;
},
{
smooth = 0;
x = 512;
y = 824;
},
{
segmentType = curve;
smooth = 1;
x = 596;
y = 824;
},
{
smooth = 0;
x = 678;
y = 824;
},
{
smooth = 0;
x = 704;
y = 868;
},
{
segmentType = curve;
smooth = 1;
x = 704;
y = 925;
}
);
}
);
lib = {
};
name = uni1CEF;
unicodes = (
);
width = 943;
};
background = {
anchors = (
);
components = (
);
contours = (
{
points = (
{
smooth = 0;
x = 420;
y = 1076;
},
{
smooth = 0;
x = 460;
y = 1116;
},
{
segmentType = curve;
smooth = 1;
x = 460;
y = 1166;
},
{
smooth = 0;
x = 460;
y = 1215;
},
{
smooth = 0;
x = 420;
y = 1255;
},
{
segmentType = curve;
smooth = 1;
x = 371;
y = 1255;
},
{
smooth = 0;
x = 321;
y = 1255;
},
{
smooth = 0;
x = 281;
y = 1215;
},
{
segmentType = curve;
smooth = 1;
x = 281;
y = 1166;
},
{
smooth = 0;
x = 281;
y = 1116;
},
{
smooth = 0;
x = 321;
y = 1076;
},
{
segmentType = curve;
smooth = 1;
x = 371;
y = 1076;
}
);
},
{
points = (
{
smooth = 0;
x = 243;
y = 756;
},
{
smooth = 0;
x = 262;
y = 775;
},
{
segmentType = curve;
smooth = 1;
x = 262;
y = 799;
},
{
smooth = 0;
x = 262;
y = 823;
},
{
smooth = 0;
x = 243;
y = 842;
},
{
segmentType = curve;
smooth = 1;
x = 219;
y = 842;
},
{
smooth = 0;
x = 195;
y = 842;
},
{
smooth = 0;
x = 176;
y = 823;
},
{
segmentType = curve;
smooth = 1;
x = 176;
y = 799;
},
{
smooth = 0;
x = 176;
y = 775;
},
{
smooth = 0;
x = 195;
y = 756;
},
{
segmentType = curve;
smooth = 1;
x = 219;
y = 756;
}
);
},
{
points = (
{
smooth = 0;
x = 703;
y = 561;
},
{
smooth = 0;
x = 743;
y = 601;
},
{
segmentType = curve;
smooth = 1;
x = 743;
y = 651;
},
{
smooth = 0;
x = 743;
y = 700;
},
{
smooth = 0;
x = 703;
y = 740;
},
{
segmentType = curve;
smooth = 1;
x = 654;
y = 740;
},
{
smooth = 0;
x = 604;
y = 740;
},
{
smooth = 0;
x = 564;
y = 700;
},
{
segmentType = curve;
smooth = 1;
x = 564;
y = 651;
},
{
smooth = 0;
x = 564;
y = 601;
},
{
smooth = 0;
x = 604;
y = 561;
},
{
segmentType = curve;
smooth = 1;
x = 654;
y = 561;
}
);
},
{
points = (
{
smooth = 0;
x = 277;
y = 174;
},
{
smooth = 0;
x = 296;
y = 193;
},
{
segmentType = curve;
smooth = 1;
x = 296;
y = 217;
},
{
smooth = 0;
x = 296;
y = 241;
},
{
smooth = 0;
x = 277;
y = 260;
},
{
segmentType = curve;
smooth = 1;
x = 253;
y = 260;
},
{
smooth = 0;
x = 229;
y = 260;
},
{
smooth = 0;
x = 210;
y = 241;
},
{
segmentType = curve;
smooth = 1;
x = 210;
y = 217;
},
{
smooth = 0;
x = 210;
y = 193;
},
{
smooth = 0;
x = 229;
y = 174;
},
{
segmentType = curve;
smooth = 1;
x = 253;
y = 174;
}
);
},
{
points = (
{
smooth = 0;
x = 777;
y = 258;
},
{
smooth = 0;
x = 796;
y = 277;
},
{
segmentType = curve;
smooth = 1;
x = 796;
y = 301;
},
{
smooth = 0;
x = 796;
y = 325;
},
{
smooth = 0;
x = 777;
y = 344;
},
{
segmentType = curve;
smooth = 1;
x = 753;
y = 344;
},
{
smooth = 0;
x = 729;
y = 344;
},
{
smooth = 0;
x = 710;
y = 325;
},
{
segmentType = curve;
smooth = 1;
x = 710;
y = 301;
},
{
smooth = 0;
x = 710;
y = 277;
},
{
smooth = 0;
x = 729;
y = 258;
},
{
segmentType = curve;
smooth = 1;
x = 753;
y = 258;
}
);
},
{
points = (
{
smooth = 0;
x = 631;
y = -16;
},
{
smooth = 0;
x = 671;
y = 24;
},
{
segmentType = curve;
smooth = 1;
x = 671;
y = 74;
},
{
smooth = 0;
x = 671;
y = 123;
},
{
smooth = 0;
x = 631;
y = 163;
},
{
segmentType = curve;
smooth = 1;
x = 582;
y = 163;
},
{
smooth = 0;
x = 532;
y = 163;
},
{
smooth = 0;
x = 492;
y = 123;
},
{
segmentType = curve;
smooth = 1;
x = 492;
y = 74;
},
{
smooth = 0;
x = 492;
y = 24;
},
{
smooth = 0;
x = 532;
y = -16;
},
{
segmentType = curve;
smooth = 1;
x = 582;
y = -16;
}
);
}
);
lib = {
};
name = uni1CEF;
unicodes = (
);
width = 943;
};
};
};
}
{
glyphname = "nihshvasa-vedic";
production = uni1CD3;
layers = (
{
layerId = "E22305A4-B0AF-4429-B69B-D5D74FEEE350";
paths = (
{
closed = 1;
nodes = (
"212 659 LINE",
"242 896 LINE",
"188 896 LINE",
"159 659 LINE"
);
},
{
closed = 1;
nodes = (
"103 659 LINE",
"132 896 LINE",
"78 896 LINE",
"49 659 LINE"
);
}
);
width = 291;
},
{
layerId = "92BDF110-6149-41B0-AB08-5310EECFA1B7";
paths = (
{
closed = 1;
nodes = (
"194 659 LINE",
"223 896 LINE",
"198 896 LINE",
"169 659 LINE"
);
},
{
closed = 1;
nodes = (
"73 659 LINE",
"103 896 LINE",
"78 896 LINE",
"49 659 LINE"
);
}
);
width = 272;
},
{
layerId = "26889610-2B6B-400B-B1BB-1A42565FFDAF";
paths = (
{
closed = 1;
nodes = (
"276 659 LINE",
"306 896 LINE",
"223 896 LINE",
"193 659 LINE"
);
},
{
closed = 1;
nodes = (
"139 659 LINE",
"170 896 LINE",
"86 896 LINE",
"56 659 LINE"
);
}
);
width = 362;
},
{
layerId = "3E60C6C7-DFFD-4AAE-9DD7-DF994DEB26A2";
paths = (
{
closed = 1;
nodes = (
"321 659 LINE",
"352 896 LINE",
"248 896 LINE",
"217 659 LINE"
);
},
{
closed = 1;
nodes = (
"168 659 LINE",
"199 896 LINE",
"95 896 LINE",
"64 659 LINE"
);
}
);
width = 416;
},
{
layerId = "B188D42B-E0C1-4C36-A461-FECF08FB9142";
paths = (
{
closed = 1;
nodes = (
"161 659 LINE",
"180 896 LINE",
"156 896 LINE",
"136 659 LINE"
);
},
{
closed = 1;
nodes = (
"65 659 LINE",
"84 896 LINE",
"60 896 LINE",
"40 659 LINE"
);
}
);
width = 220;
},
{
layerId = "1C76EA3D-1F01-478B-AF6D-23469B2400A3";
paths = (
{
closed = 1;
nodes = (
"189 659 LINE",
"209 896 LINE",
"157 896 LINE",
"138 659 LINE"
);
},
{
closed = 1;
nodes = (
"91 659 LINE",
"111 896 LINE",
"60 896 LINE",
"40 659 LINE"
);
}
);
width = 249;
},
{
layerId = "48B0D659-D2E4-4014-AFB5-7353283B7180";
paths = (
{
closed = 1;
nodes = (
"241 659 LINE",
"262 896 LINE",
"186 896 LINE",
"164 659 LINE"
);
},
{
closed = 1;
nodes = (
"125 659 LINE",
"146 896 LINE",
"70 896 LINE",
"48 659 LINE"
);
}
);
width = 310;
},
{
layerId = "E10056C4-06A7-4834-9783-123B62B78F3D";
paths = (
{
closed = 1;
nodes = (
"282 659 LINE",
"304 896 LINE",
"208 896 LINE",
"187 659 LINE"
);
},
{
closed = 1;
nodes = (
"150 659 LINE",
"172 896 LINE",
"77 896 LINE",
"55 659 LINE"
);
}
);
width = 359;
}
);
note = "\012    uni1CD3\012  ";
unicode = 1CD3;
script = devanagari;
category = Mark;
subCategory = Spacing;
userData = {
com.schriftgestaltung.Glyphs.ColorIndex = 7;
};
}
{
glyphname = "reversedVisargaUdatta-vedic";
production = uni1CE4;
layers = (
{
layerId = "E22305A4-B0AF-4429-B69B-D5D74FEEE350";
paths = (
{
closed = 1;
nodes = (
"365 241 LINE",
"365 252 LINE",
"326 313 LINE",
"171 313 LINE SMOOTH",
"132 313 OFFCURVE",
"117 329 OFFCURVE",
"117 355 CURVE SMOOTH",
"117 417 OFFCURVE",
"167 488 OFFCURVE",
"258 553 CURVE",
"201 617 LINE",
"98 542 OFFCURVE",
"39 457 OFFCURVE",
"39 385 CURVE SMOOTH",
"39 313 OFFCURVE",
"126 241 OFFCURVE",
"191 241 CURVE SMOOTH"
);
}
);
width = 191;
},
{
layerId = "92BDF110-6149-41B0-AB08-5310EECFA1B7";
paths = (
{
closed = 1;
nodes = (
"312 252 LINE",
"312 257 LINE",
"298 276 LINE",
"187 276 LINE SMOOTH",
"110 276 OFFCURVE",
"67 312 OFFCURVE",
"67 374 CURVE SMOOTH",
"67 451 OFFCURVE",
"130 531 OFFCURVE",
"230 606 CURVE",
"212 627 LINE",
"108 548 OFFCURVE",
"40 460 OFFCURVE",
"40 378 CURVE SMOOTH",
"40 302 OFFCURVE",
"100 252 OFFCURVE",
"192 252 CURVE SMOOTH"
);
}
);
width = 155;
},
{
layerId = "26889610-2B6B-400B-B1BB-1A42565FFDAF";
paths = (
{
closed = 1;
nodes = (
"396 212 LINE",
"396 225 LINE",
"343 312 LINE",
"206 312 LINE SMOOTH",
"171 312 OFFCURVE",
"151 327 OFFCURVE",
"151 353 CURVE SMOOTH",
"151 397 OFFCURVE",
"195 449 OFFCURVE",
"268 501 CURVE",
"181 597 LINE",
"95 540 OFFCURVE",
"40 472 OFFCURVE",
"40 403 CURVE SMOOTH",
"40 317 OFFCURVE",
"156 212 OFFCURVE",
"245 212 CURVE SMOOTH"
);
}
);
width = 217;
},
{
layerId = "3E60C6C7-DFFD-4AAE-9DD7-DF994DEB26A2";
paths = (
{
closed = 1;
nodes = (
"422 216 LINE",
"422 233 LINE",
"356 342 LINE",
"217 342 LINE SMOOTH",
"194 342 OFFCURVE",
"180 352 OFFCURVE",
"180 368 CURVE SMOOTH",
"180 399 OFFCURVE",
"216 440 OFFCURVE",
"278 483 CURVE",
"170 606 LINE",
"91 559 OFFCURVE",
"40 498 OFFCURVE",
"40 433 CURVE SMOOTH",
"40 341 OFFCURVE",
"177 216 OFFCURVE",
"268 216 CURVE SMOOTH"
);
}
);
width = 232;
},
{
layerId = "B188D42B-E0C1-4C36-A461-FECF08FB9142";
paths = (
{
closed = 1;
nodes = (
"276 258 LINE",
"276 263 LINE",
"263 282 LINE",
"184 282 LINE SMOOTH",
"110 282 OFFCURVE",
"67 318 OFFCURVE",
"67 380 CURVE SMOOTH",
"67 454 OFFCURVE",
"114 537 OFFCURVE",
"178 615 CURVE",
"153 633 LINE",
"89 552 OFFCURVE",
"40 465 OFFCURVE",
"40 384 CURVE SMOOTH",
"40 309 OFFCURVE",
"99 258 OFFCURVE",
"190 258 CURVE SMOOTH"
);
}
);
width = 146;
},
{
layerId = "1C76EA3D-1F01-478B-AF6D-23469B2400A3";
paths = (
{
closed = 1;
nodes = (
"306 239 LINE",
"306 249 LINE",
"271 306 LINE",
"172 306 LINE SMOOTH",
"133 306 OFFCURVE",
"109 325 OFFCURVE",
"109 359 CURVE SMOOTH",
"109 427 OFFCURVE",
"155 508 OFFCURVE",
"207 570 CURVE",
"143 615 LINE",
"95 558 OFFCURVE",
"40 473 OFFCURVE",
"40 386 CURVE SMOOTH",
"40 309 OFFCURVE",
"115 239 OFFCURVE",
"191 239 CURVE SMOOTH"
);
}
);
width = 166;
},
{
layerId = "48B0D659-D2E4-4014-AFB5-7353283B7180";
paths = (
{
closed = 1;
nodes = (
"342 225 LINE",
"342 238 LINE",
"297 318 LINE",
"191 318 LINE SMOOTH",
"159 318 OFFCURVE",
"140 334 OFFCURVE",
"140 360 CURVE SMOOTH",
"140 412 OFFCURVE",
"182 481 OFFCURVE",
"235 537 CURVE",
"145 607 LINE",
"87 550 OFFCURVE",
"40 476 OFFCURVE",
"40 405 CURVE SMOOTH",
"40 329 OFFCURVE",
"139 225 OFFCURVE",
"222 225 CURVE SMOOTH"
);
}
);
width = 192;
},
{
layerId = "E10056C4-06A7-4834-9783-123B62B78F3D";
paths = (
{
closed = 1;
nodes = (
"386 225 LINE",
"386 239 LINE",
"334 337 LINE",
"206 337 LINE SMOOTH",
"178 337 OFFCURVE",
"161 350 OFFCURVE",
"161 372 CURVE SMOOTH",
"161 413 OFFCURVE",
"200 473 OFFCURVE",
"249 524 CURVE",
"139 611 LINE",
"81 557 OFFCURVE",
"40 491 OFFCURVE",
"40 430 CURVE SMOOTH",
"40 353 OFFCURVE",
"155 225 OFFCURVE",
"245 225 CURVE SMOOTH"
);
}
);
width = 216;
}
);
note = "\012    uni1CE4\012  ";
unicode = 1CE4;
script = vedic;
category = Mark;
subCategory = Spacing;
userData = {
com.schriftgestaltung.Glyphs.ColorIndex = 1;
com.typemytype.robofont.layerData = {
"Light Feb 25 16, 14:03" = {
anchors = (
);
components = (
);
contours = (
{
points = (
{
segmentType = line;
smooth = 0;
x = 539;
y = 1079;
},
{
smooth = 0;
x = 454;
y = 1016;
},
{
smooth = 0;
x = 301;
y = 891;
},
{
segmentType = curve;
smooth = 1;
x = 264;
y = 831;
},
{
smooth = 0;
x = 245;
y = 800;
},
{
smooth = 0;
x = 236;
y = 770;
},
{
segmentType = curve;
smooth = 1;
x = 236;
y = 741;
},
{
smooth = 0;
x = 236;
y = 690;
},
{
smooth = 0;
x = 266;
y = 658;
},
{
segmentType = curve;
smooth = 1;
x = 314;
y = 647;
},
{
smooth = 0;
x = 337;
y = 642;
},
{
smooth = 0;
x = 378;
y = 639;
},
{
segmentType = curve;
smooth = 1;
x = 437;
y = 639;
},
{
segmentType = line;
smooth = 0;
x = 686;
y = 639;
},
{
segmentType = line;
smooth = 0;
x = 686;
y = 493;
},
{
segmentType = line;
smooth = 1;
x = 456;
y = 493;
},
{
smooth = 0;
x = 292;
y = 493;
},
{
smooth = 0;
x = 222;
y = 509;
},
{
segmentType = curve;
smooth = 1;
x = 162;
y = 553;
},
{
smooth = 0;
x = 101;
y = 597;
},
{
smooth = 0;
x = 74;
y = 652;
},
{
segmentType = curve;
smooth = 1;
x = 74;
y = 724;
},
{
smooth = 0;
x = 74;
y = 815;
},
{
smooth = 0;
x = 98;
y = 873;
},
{
segmentType = curve;
smooth = 1;
x = 159;
y = 946;
},
{
smooth = 0;
x = 220;
y = 1018;
},
{
smooth = 0;
x = 364;
y = 1140;
},
{
segmentType = curve;
smooth = 0;
x = 443;
y = 1199;
}
);
}
);
lib = {
};
name = uni1CE4;
unicodes = (
);
width = 419;
};
};
};
}
{
glyphname = "rigvedicKashmiriIndependentSvarita-vedic";
production = uni1CE0;
layers = (
{
layerId = "E22305A4-B0AF-4429-B69B-D5D74FEEE350";
paths = (
{
closed = 1;
nodes = (
"208 745 LINE",
"147 749 OFFCURVE",
"102 777 OFFCURVE",
"102 810 CURVE SMOOTH",
"102 824 OFFCURVE",
"111 832 OFFCURVE",
"129 832 CURVE SMOOTH",
"377 832 LINE",
"420 897 LINE",
"420 907 LINE",
"171 907 LINE SMOOTH",
"107 907 OFFCURVE",
"41 836 OFFCURVE",
"41 778 CURVE SMOOTH",
"41 714 OFFCURVE",
"106 677 OFFCURVE",
"183 671 CURVE"
);
}
);
width = 430;
},
{
layerId = "92BDF110-6149-41B0-AB08-5310EECFA1B7";
paths = (
{
closed = 1;
nodes = (
"179 697 LINE",
"101 708 OFFCURVE",
"68 746 OFFCURVE",
"68 792 CURVE SMOOTH",
"68 830 OFFCURVE",
"91 854 OFFCURVE",
"137 854 CURVE SMOOTH",
"368 854 LINE",
"383 876 LINE",
"383 881 LINE",
"143 881 LINE SMOOTH",
"81 881 OFFCURVE",
"41 839 OFFCURVE",
"41 788 CURVE SMOOTH",
"41 732 OFFCURVE",
"84 684 OFFCURVE",
"171 671 CURVE"
);
}
);
width = 393;
},
{
layerId = "26889610-2B6B-400B-B1BB-1A42565FFDAF";
paths = (
{
closed = 1;
nodes = (
"233 753 LINE",
"167 758 OFFCURVE",
"123 779 OFFCURVE",
"123 806 CURVE SMOOTH",
"123 822 OFFCURVE",
"133 832 OFFCURVE",
"154 832 CURVE SMOOTH",
"418 832 LINE",
"473 915 LINE",
"473 928 LINE",
"197 928 LINE SMOOTH",
"111 928 OFFCURVE",
"41 849 OFFCURVE",
"41 780 CURVE SMOOTH",
"41 710 OFFCURVE",
"102 661 OFFCURVE",
"202 656 CURVE"
);
}
);
width = 483;
},
{
layerId = "3E60C6C7-DFFD-4AAE-9DD7-DF994DEB26A2";
paths = (
{
closed = 1;
nodes = (
"253 775 LINE",
"189 779 OFFCURVE",
"141 795 OFFCURVE",
"141 815 CURVE SMOOTH",
"141 825 OFFCURVE",
"148 831 OFFCURVE",
"163 831 CURVE SMOOTH",
"439 831 LINE",
"509 934 LINE",
"509 951 LINE",
"215 951 LINE SMOOTH",
"120 951 OFFCURVE",
"41 860 OFFCURVE",
"41 783 CURVE SMOOTH",
"41 709 OFFCURVE",
"107 658 OFFCURVE",
"214 656 CURVE"
);
}
);
width = 519;
},
{
layerId = "B188D42B-E0C1-4C36-A461-FECF08FB9142";
paths = (
{
closed = 1;
nodes = (
"142 702 LINE",
"95 721 OFFCURVE",
"62 750 OFFCURVE",
"62 795 CURVE SMOOTH",
"62 832 OFFCURVE",
"85 854 OFFCURVE",
"128 854 CURVE SMOOTH",
"281 854 LINE",
"297 880 LINE",
"297 885 LINE",
"134 885 LINE SMOOTH",
"76 885 OFFCURVE",
"35 842 OFFCURVE",
"35 791 CURVE SMOOTH",
"35 738 OFFCURVE",
"74 697 OFFCURVE",
"128 673 CURVE"
);
}
);
width = 305;
},
{
layerId = "1C76EA3D-1F01-478B-AF6D-23469B2400A3";
paths = (
{
closed = 1;
nodes = (
"173 741 LINE",
"123 750 OFFCURVE",
"88 774 OFFCURVE",
"88 808 CURVE SMOOTH",
"88 824 OFFCURVE",
"97 833 OFFCURVE",
"116 833 CURVE SMOOTH",
"312 833 LINE",
"348 895 LINE",
"348 904 LINE",
"149 904 LINE SMOOTH",
"89 904 OFFCURVE",
"35 840 OFFCURVE",
"35 779 CURVE SMOOTH",
"35 724 OFFCURVE",
"83 683 OFFCURVE",
"147 671 CURVE"
);
}
);
width = 356;
},
{
layerId = "48B0D659-D2E4-4014-AFB5-7353283B7180";
paths = (
{
closed = 1;
nodes = (
"196 763 LINE",
"145 770 OFFCURVE",
"107 789 OFFCURVE",
"107 815 CURVE SMOOTH",
"107 828 OFFCURVE",
"115 836 OFFCURVE",
"134 836 CURVE SMOOTH",
"339 836 LINE",
"389 916 LINE",
"389 928 LINE",
"175 928 LINE SMOOTH",
"100 928 OFFCURVE",
"35 852 OFFCURVE",
"35 784 CURVE SMOOTH",
"35 722 OFFCURVE",
"85 679 OFFCURVE",
"161 668 CURVE"
);
}
);
width = 397;
},
{
layerId = "E10056C4-06A7-4834-9783-123B62B78F3D";
paths = (
{
closed = 1;
nodes = (
"211 779 LINE",
"160 785 OFFCURVE",
"121 800 OFFCURVE",
"121 820 CURVE SMOOTH",
"121 831 OFFCURVE",
"129 838 OFFCURVE",
"146 838 CURVE SMOOTH",
"353 838 LINE",
"413 931 LINE",
"413 946 LINE",
"192 946 LINE SMOOTH",
"108 946 OFFCURVE",
"35 861 OFFCURVE",
"35 788 CURVE SMOOTH",
"35 721 OFFCURVE",
"84 677 OFFCURVE",
"170 666 CURVE"
);
}
);
width = 421;
}
);
note = "\012    uni1CE0\012  ";
unicode = 1CE0;
script = vedic;
category = Mark;
subCategory = Spacing;
userData = {
com.schriftgestaltung.Glyphs.ColorIndex = 1;
com.typemytype.robofont.layerData = {
"Light Feb 25 16, 12:34" = {
anchors = (
);
components = (
);
contours = (
{
points = (
{
segmentType = line;
smooth = 0;
x = 885;
y = 1632;
},
{
segmentType = line;
smooth = 0;
x = 885;
y = 1486;
},
{
segmentType = line;
smooth = 1;
x = 436;
y = 1486;
},
{
smooth = 0;
x = 343;
y = 1486;
},
{
smooth = 0;
x = 295;
y = 1478;
},
{
segmentType = curve;
smooth = 1;
x = 268;
y = 1445;
},
{
smooth = 0;
x = 255;
y = 1428;
},
{
smooth = 0;
x = 248;
y = 1405;
},
{
segmentType = curve;
smooth = 1;
x = 248;
y = 1376;
},
{
smooth = 0;
x = 248;
y = 1308;
},
{
smooth = 0;
x = 290;
y = 1274;
},
{
segmentType = curve;
smooth = 1;
x = 375;
y = 1274;
},
{
segmentType = line;
smooth = 0;
x = 403;
y = 1274;
},
{
segmentType = line;
smooth = 0;
x = 403;
y = 1132;
},
{
segmentType = line;
smooth = 1;
x = 373;
y = 1132;
},
{
smooth = 0;
x = 196;
y = 1132;
},
{
smooth = 0;
x = 83;
y = 1227;
},
{
segmentType = curve;
smooth = 1;
x = 83;
y = 1379;
},
{
smooth = 0;
x = 83;
y = 1494;
},
{
smooth = 0;
x = 130;
y = 1564;
},
{
segmentType = curve;
smooth = 1;
x = 222;
y = 1603;
},
{
smooth = 0;
x = 268;
y = 1622;
},
{
smooth = 0;
x = 337;
y = 1632;
},
{
segmentType = curve;
smooth = 1;
x = 429;
y = 1632;
}
);
}
);
lib = {
};
name = uni1CE0;
unicodes = (
);
width = 905;
};
background = {
anchors = (
);
components = (
);
contours = (
{
points = (
{
smooth = 0;
x = 582;
y = 1472;
},
{
smooth = 0;
x = 622;
y = 1512;
},
{
segmentType = curve;
smooth = 1;
x = 622;
y = 1562;
},
{
smooth = 0;
x = 622;
y = 1611;
},
{
smooth = 0;
x = 582;
y = 1651;
},
{
segmentType = curve;
smooth = 1;
x = 533;
y = 1651;
},
{
smooth = 0;
x = 483;
y = 1651;
},
{
smooth = 0;
x = 443;
y = 1611;
},
{
segmentType = curve;
smooth = 1;
x = 443;
y = 1562;
},
{
smooth = 0;
x = 443;
y = 1512;
},
{
smooth = 0;
x = 483;
y = 1472;
},
{
segmentType = curve;
smooth = 1;
x = 533;
y = 1472;
}
);
},
{
points = (
{
smooth = 0;
x = 184;
y = 1244;
},
{
smooth = 0;
x = 203;
y = 1263;
},
{
segmentType = curve;
smooth = 1;
x = 203;
y = 1287;
},
{
smooth = 0;
x = 203;
y = 1311;
},
{
smooth = 0;
x = 184;
y = 1330;
},
{
segmentType = curve;
smooth = 1;
x = 160;
y = 1330;
},
{
smooth = 0;
x = 136;
y = 1330;
},
{
smooth = 0;
x = 117;
y = 1311;
},
{
segmentType = curve;
smooth = 1;
x = 117;
y = 1287;
},
{
smooth = 0;
x = 117;
y = 1263;
},
{
smooth = 0;
x = 136;
y = 1244;
},
{
segmentType = curve;
smooth = 1;
x = 160;
y = 1244;
}
);
},
{
points = (
{
smooth = 0;
x = 448;
y = 1125;
},
{
smooth = 0;
x = 488;
y = 1165;
},
{
segmentType = curve;
smooth = 1;
x = 488;
y = 1215;
},
{
smooth = 0;
x = 488;
y = 1264;
},
{
smooth = 0;
x = 448;
y = 1304;
},
{
segmentType = curve;
smooth = 1;
x = 399;
y = 1304;
},
{
smooth = 0;
x = 349;
y = 1304;
},
{
smooth = 0;
x = 309;
y = 1264;
},
{
segmentType = curve;
smooth = 1;
x = 309;
y = 1215;
},
{
smooth = 0;
x = 309;
y = 1165;
},
{
smooth = 0;
x = 349;
y = 1125;
},
{
segmentType = curve;
smooth = 1;
x = 399;
y = 1125;
}
);
}
);
lib = {
};
name = uni1CE0;
unicodes = (
);
width = 905;
};
};
};
}
{
glyphname = "ringAbove-vedic";
production = uni1CF8;
layers = (
{
anchors = (
{
name = _top;
position = "{-79, 623}";
}
);
layerId = "E22305A4-B0AF-4429-B69B-D5D74FEEE350";
paths = (
{
closed = 1;
nodes = (
"-60 676 OFFCURVE",
"-17 719 OFFCURVE",
"-17 776 CURVE SMOOTH",
"-17 804 OFFCURVE",
"-30 825 OFFCURVE",
"-48 843 CURVE SMOOTH",
"-67 862 OFFCURVE",
"-89 876 OFFCURVE",
"-118 876 CURVE SMOOTH",
"-175 876 OFFCURVE",
"-218 833 OFFCURVE",
"-218 776 CURVE SMOOTH",
"-218 748 OFFCURVE",
"-203 727 OFFCURVE",
"-185 708 CURVE SMOOTH",
"-167 689 OFFCURVE",
"-146 676 OFFCURVE",
"-118 676 CURVE SMOOTH"
);
},
{
closed = 1;
nodes = (
"-160 712 OFFCURVE",
"-183 729 OFFCURVE",
"-183 762 CURVE SMOOTH",
"-183 800 OFFCURVE",
"-143 839 OFFCURVE",
"-102 839 CURVE SMOOTH",
"-74 839 OFFCURVE",
"-52 823 OFFCURVE",
"-52 792 CURVE SMOOTH",
"-52 752 OFFCURVE",
"-95 712 OFFCURVE",
"-133 712 CURVE SMOOTH"
);
}
);
userData = {
RMXScaler = {
verticalShift = -200;
};
};
width = 0;
},
{
anchors = (
{
name = _top;
position = "{-97, 622}";
}
);
layerId = "92BDF110-6149-41B0-AB08-5310EECFA1B7";
paths = (
{
closed = 1;
nodes = (
"-53 677 OFFCURVE",
"-12 720 OFFCURVE",
"-12 774 CURVE SMOOTH",
"-12 801 OFFCURVE",
"-23 826 OFFCURVE",
"-42 845 CURVE SMOOTH",
"-61 864 OFFCURVE",
"-86 875 OFFCURVE",
"-113 875 CURVE SMOOTH",
"-167 875 OFFCURVE",
"-208 833 OFFCURVE",
"-208 779 CURVE SMOOTH",
"-208 750 OFFCURVE",
"-193 724 OFFCURVE",
"-173 704 CURVE SMOOTH",
"-156 687 OFFCURVE",
"-132 677 OFFCURVE",
"-107 677 CURVE SMOOTH"
);
},
{
closed = 1;
nodes = (
"-153 697 OFFCURVE",
"-185 731 OFFCURVE",
"-185 774 CURVE SMOOTH",
"-185 821 OFFCURVE",
"-152 855 OFFCURVE",
"-107 855 CURVE SMOOTH",
"-67 855 OFFCURVE",
"-35 822 OFFCURVE",
"-35 779 CURVE SMOOTH",
"-35 732 OFFCURVE",
"-68 697 OFFCURVE",
"-113 697 CURVE SMOOTH"
);
}
);
userData = {
RMXScaler = {
verticalShift = -200;
};
};
width = 0;
},
{
anchors = (
{
name = _top;
position = "{-62, 626}";
}
);
layerId = "26889610-2B6B-400B-B1BB-1A42565FFDAF";
paths = (
{
closed = 1;
nodes = (
"-63 672 OFFCURVE",
"-17 717 OFFCURVE",
"-17 773 CURVE SMOOTH",
"-17 800 OFFCURVE",
"-30 825 OFFCURVE",
"-50 845 CURVE SMOOTH",
"-70 866 OFFCURVE",
"-96 879 OFFCURVE",
"-125 879 CURVE SMOOTH",
"-188 879 OFFCURVE",
"-233 836 OFFCURVE",
"-233 779 CURVE SMOOTH",
"-233 751 OFFCURVE",
"-219 725 OFFCURVE",
"-198 704 CURVE SMOOTH",
"-178 684 OFFCURVE",
"-152 672 OFFCURVE",
"-125 672 CURVE SMOOTH"
);
},
{
closed = 1;
nodes = (
"-166 722 OFFCURVE",
"-182 737 OFFCURVE",
"-182 761 CURVE SMOOTH",
"-182 796 OFFCURVE",
"-144 829 OFFCURVE",
"-108 829 CURVE SMOOTH",
"-85 829 OFFCURVE",
"-68 814 OFFCURVE",
"-68 792 CURVE SMOOTH",
"-68 755 OFFCURVE",
"-107 722 OFFCURVE",
"-143 722 CURVE SMOOTH"
);
}
);
width = 0;
},
{
anchors = (
{
name = _top;
position = "{-53, 627}";
}
);
layerId = "3E60C6C7-DFFD-4AAE-9DD7-DF994DEB26A2";
paths = (
{
closed = 1;
nodes = (
"-66 670 OFFCURVE",
"-19 716 OFFCURVE",
"-19 772 CURVE SMOOTH",
"-19 799 OFFCURVE",
"-32 825 OFFCURVE",
"-52 846 CURVE SMOOTH",
"-73 867 OFFCURVE",
"-101 881 OFFCURVE",
"-130 881 CURVE SMOOTH",
"-197 881 OFFCURVE",
"-244 837 OFFCURVE",
"-244 780 CURVE SMOOTH",
"-244 753 OFFCURVE",
"-229 724 OFFCURVE",
"-208 704 CURVE SMOOTH",
"-187 684 OFFCURVE",
"-159 670 OFFCURVE",
"-132 670 CURVE SMOOTH"
);
},
{
closed = 1;
nodes = (
"-171 730 OFFCURVE",
"-183 740 OFFCURVE",
"-183 757 CURVE SMOOTH",
"-183 789 OFFCURVE",
"-143 820 OFFCURVE",
"-109 820 CURVE SMOOTH",
"-91 820 OFFCURVE",
"-79 810 OFFCURVE",
"-79 795 CURVE SMOOTH",
"-79 762 OFFCURVE",
"-119 730 OFFCURVE",
"-153 730 CURVE SMOOTH"
);
}
);
width = 0;
},
{
anchors = (
{
name = _top;
position = "{-71, 622}";
}
);
layerId = "B188D42B-E0C1-4C36-A461-FECF08FB9142";
paths = (
{
closed = 1;
nodes = (
"-42 677 OFFCURVE",
"-11 716 OFFCURVE",
"-11 772 CURVE SMOOTH",
"-11 800 OFFCURVE",
"-20 826 OFFCURVE",
"-33 844 CURVE SMOOTH",
"-47 863 OFFCURVE",
"-67 875 OFFCURVE",
"-90 875 CURVE SMOOTH",
"-134 875 OFFCURVE",
"-167 833 OFFCURVE",
"-167 777 CURVE SMOOTH",
"-167 749 OFFCURVE",
"-156 722 OFFCURVE",
"-140 704 CURVE SMOOTH",
"-125 687 OFFCURVE",
"-106 677 OFFCURVE",
"-85 677 CURVE SMOOTH"
);
},
{
closed = 1;
nodes = (
"-124 697 OFFCURVE",
"-148 729 OFFCURVE",
"-148 772 CURVE SMOOTH",
"-148 820 OFFCURVE",
"-120 855 OFFCURVE",
"-84 855 CURVE SMOOTH",
"-52 855 OFFCURVE",
"-30 822 OFFCURVE",
"-30 777 CURVE SMOOTH",
"-30 730 OFFCURVE",
"-55 697 OFFCURVE",
"-91 697 CURVE SMOOTH"
);
}
);
userData = {
RMXScaler = {
verticalShift = -200;
};
};
width = 0;
},
{
anchors = (
{
name = _top;
position = "{-64, 623}";
}
);
layerId = "1C76EA3D-1F01-478B-AF6D-23469B2400A3";
paths = (
{
closed = 1;
nodes = (
"-60 676 OFFCURVE",
"-30 715 OFFCURVE",
"-30 766 CURVE SMOOTH",
"-30 794 OFFCURVE",
"-39 822 OFFCURVE",
"-54 842 CURVE SMOOTH",
"-68 863 OFFCURVE",
"-88 876 OFFCURVE",
"-109 876 CURVE SMOOTH",
"-149 876 OFFCURVE",
"-178 838 OFFCURVE",
"-178 786 CURVE SMOOTH",
"-178 757 OFFCURVE",
"-167 729 OFFCURVE",
"-152 708 CURVE SMOOTH",
"-138 688 OFFCURVE",
"-118 676 OFFCURVE",
"-99 676 CURVE SMOOTH"
);
},
{
closed = 1;
nodes = (
"-135 712 OFFCURVE",
"-145 728 OFFCURVE",
"-145 752 CURVE SMOOTH",
"-145 796 OFFCURVE",
"-118 839 OFFCURVE",
"-89 839 CURVE SMOOTH",
"-73 839 OFFCURVE",
"-63 824 OFFCURVE",
"-63 801 CURVE SMOOTH",
"-63 756 OFFCURVE",
"-91 712 OFFCURVE",
"-119 712 CURVE SMOOTH"
);
}
);
userData = {
RMXScaler = {
verticalShift = -200;
};
};
width = 0;
},
{
anchors = (
{
name = _top;
position = "{-51, 625}";
}
);
layerId = "48B0D659-D2E4-4014-AFB5-7353283B7180";
paths = (
{
closed = 1;
nodes = (
"-61 673 OFFCURVE",
"-27 715 OFFCURVE",
"-27 768 CURVE SMOOTH",
"-27 797 OFFCURVE",
"-37 824 OFFCURVE",
"-53 844 CURVE SMOOTH",
"-69 865 OFFCURVE",
"-90 879 OFFCURVE",
"-113 879 CURVE SMOOTH",
"-159 879 OFFCURVE",
"-192 838 OFFCURVE",
"-192 784 CURVE SMOOTH",
"-192 753 OFFCURVE",
"-180 723 OFFCURVE",
"-163 703 CURVE SMOOTH",
"-147 685 OFFCURVE",
"-127 673 OFFCURVE",
"-105 673 CURVE SMOOTH"
);
},
{
closed = 1;
nodes = (
"-140 722 OFFCURVE",
"-148 733 OFFCURVE",
"-148 753 CURVE SMOOTH",
"-148 789 OFFCURVE",
"-119 829 OFFCURVE",
"-93 829 CURVE SMOOTH",
"-79 829 OFFCURVE",
"-71 818 OFFCURVE",
"-71 800 CURVE SMOOTH",
"-71 763 OFFCURVE",
"-100 722 OFFCURVE",
"-126 722 CURVE SMOOTH"
);
}
);
width = 0;
},
{
anchors = (
{
name = _top;
position = "{-41, 627}";
}
);
layerId = "E10056C4-06A7-4834-9783-123B62B78F3D";
paths = (
{
closed = 1;
nodes = (
"-62 671 OFFCURVE",
"-26 714 OFFCURVE",
"-26 768 CURVE SMOOTH",
"-26 797 OFFCURVE",
"-36 825 OFFCURVE",
"-53 846 CURVE SMOOTH",
"-70 867 OFFCURVE",
"-92 880 OFFCURVE",
"-116 880 CURVE SMOOTH",
"-164 880 OFFCURVE",
"-198 839 OFFCURVE",
"-198 783 CURVE SMOOTH",
"-198 752 OFFCURVE",
"-186 721 OFFCURVE",
"-167 700 CURVE SMOOTH",
"-150 682 OFFCURVE",
"-130 671 OFFCURVE",
"-108 671 CURVE SMOOTH"
);
},
{
closed = 1;
nodes = (
"-141 729 OFFCURVE",
"-147 737 OFFCURVE",
"-147 751 CURVE SMOOTH",
"-147 784 OFFCURVE",
"-118 822 OFFCURVE",
"-94 822 CURVE SMOOTH",
"-83 822 OFFCURVE",
"-78 814 OFFCURVE",
"-78 800 CURVE SMOOTH",
"-78 768 OFFCURVE",
"-107 729 OFFCURVE",
"-130 729 CURVE SMOOTH"
);
}
);
width = 0;
}
);
unicode = 1CF8;
script = vedic;
category = Mark;
subCategory = Nonspacing;
userData = {
RMXScaler = {
source = "zerocomb-deva";
};
};
}
